<svg width="126" height="160" viewBox="0 0 126 160" fill="none" xmlns="http://www.w3.org/2000/svg">
<path d="M125.179 27.2321C125.179 10.3266 21.1797 -24.5102 3.50517 27.2321C-14.1693 78.9744 40.1359 96.6494 52.1747 91.5271C57.2059 89.3864 54.9451 87.0217 51.8985 83.8349C47.6549 79.3961 41.8867 73.3625 52.1747 64.1185C59.9325 57.1479 74.9451 52.4469 89.3492 47.9366C107.761 42.1712 125.179 36.7172 125.179 27.2321Z" fill="url(#paint0_linear_938_26787)"/>
<path d="M0 132.768C0 149.673 103.999 184.51 121.674 132.768C139.348 81.0256 85.0431 63.3506 73.0043 68.4729C67.9731 70.6136 70.2339 72.9783 73.2805 76.1651C77.5241 80.6039 83.2923 86.6375 73.0043 95.8815C65.2465 102.852 50.2339 107.553 35.8298 112.063C17.4177 117.829 0 123.283 0 132.768Z" fill="url(#paint1_linear_938_26787)"/>
<defs>
<linearGradient id="paint0_linear_938_26787" x1="125.179" y1="160" x2="-28.3922" y2="125.164" gradientUnits="userSpaceOnUse">
<stop stop-color="#22BB9C"/>
<stop offset="1" stop-color="#35DEBC"/>
</linearGradient>
<linearGradient id="paint1_linear_938_26787" x1="125.179" y1="160" x2="-28.3922" y2="125.164" gradientUnits="userSpaceOnUse">
<stop stop-color="#22BB9C"/>
<stop offset="1" stop-color="#35DEBC"/>
</linearGradient>
</defs>
</svg>
