<svg width="60" height="60" viewBox="0 0 60 60" fill="none" xmlns="http://www.w3.org/2000/svg">
<rect width="60" height="60" rx="30" fill="#22BB9C" fill-opacity="0.08"/>
<path d="M29.9997 18.3333C23.5667 18.3333 18.333 23.5669 18.333 29.9999C18.333 36.4329 23.5667 41.6666 29.9997 41.6666C36.4327 41.6666 41.6663 36.4329 41.6663 29.9999C41.6663 23.5669 36.4327 18.3333 29.9997 18.3333ZM31.1663 35.7341V36.9999H28.833V35.7399C26.1042 35.3118 25.333 33.4043 25.333 32.3333H27.6663C27.6792 32.5001 27.8518 33.4999 29.9997 33.4999C31.6097 33.4999 32.333 32.8174 32.333 32.3333C32.333 31.9553 32.333 31.1666 29.9997 31.1666C25.9397 31.1666 25.333 28.9733 25.333 27.6666C25.333 26.1639 26.5335 24.6519 28.833 24.2658V23.0139H31.1663V24.3078C33.1893 24.7861 33.9663 26.4696 33.9663 27.6666H32.7997L31.633 27.6876C31.6167 27.2443 31.3822 26.4999 29.9997 26.4999C28.4842 26.4999 27.6663 27.1019 27.6663 27.6666C27.6663 28.1029 27.6663 28.8333 29.9997 28.8333C34.0597 28.8333 34.6663 31.0266 34.6663 32.3333C34.6663 33.8359 33.4658 35.3479 31.1663 35.7341Z" fill="url(#paint0_linear_929_20086)"/>
<defs>
<linearGradient id="paint0_linear_929_20086" x1="41.6663" y1="41.6666" x2="13.9018" y2="33.6165" gradientUnits="userSpaceOnUse">
<stop stop-color="#22BB9C"/>
<stop offset="1" stop-color="#35DEBC"/>
</linearGradient>
</defs>
</svg>
