<svg width="330" height="250" viewBox="0 0 330 250" fill="none" xmlns="http://www.w3.org/2000/svg">
<g clip-path="url(#clip0_929_19956)">
<path d="M132.19 51.8442H130.992V19.0059C130.992 16.51 130.5 14.0386 129.545 11.7327C128.59 9.42678 127.19 7.33158 125.425 5.56672C123.66 3.80185 121.565 2.40189 119.259 1.44675C116.953 0.491608 114.482 2.11472e-06 111.986 0H42.4132C37.3725 -9.60927e-06 32.5383 2.00238 28.974 5.56668C25.4096 9.13097 23.4072 13.9652 23.4072 19.0059V199.159C23.4072 201.655 23.8988 204.127 24.854 206.433C25.8091 208.739 27.2091 210.834 28.9739 212.599C30.7388 214.364 32.834 215.764 35.1399 216.719C37.4458 217.674 39.9172 218.165 42.4131 218.165H111.986C117.026 218.165 121.86 216.163 125.425 212.599C128.989 209.034 130.991 204.2 130.992 199.16V75.2191H132.19V51.8442Z" fill="#3F3D56"/>
<path d="M154.489 218.197H1.10765C1.00088 218.197 0.898487 218.154 0.82299 218.079C0.747492 218.003 0.705078 217.901 0.705078 217.794C0.705078 217.687 0.747492 217.585 0.82299 217.509C0.898487 217.434 1.00088 217.391 1.10765 217.391H154.489C154.596 217.391 154.698 217.434 154.774 217.509C154.849 217.585 154.892 217.687 154.892 217.794C154.892 217.901 154.849 218.003 154.774 218.079C154.698 218.154 154.596 218.197 154.489 218.197Z" fill="#CBCBCB"/>
<path d="M280.191 221.538C280.605 220.869 281.092 220.249 281.643 219.688C281.87 219.452 282.11 219.23 282.357 219.014C283.86 217.676 285.693 216.763 287.666 216.368C289.639 215.973 291.682 216.111 293.584 216.767C295.486 217.423 297.18 218.574 298.49 220.102C299.799 221.629 300.679 223.478 301.037 225.458C302.698 219.318 298.376 213.27 294.03 208.624C289.683 203.98 284.713 198.885 284.738 192.522C284.751 188.981 286.483 185.822 289.098 183.48C289.179 183.409 289.259 183.338 289.342 183.27C292.503 180.56 296.569 179.143 300.73 179.301C308.459 179.715 315.207 184.91 319.894 191.071C327.438 200.986 330.744 214.903 325.462 226.189C320.817 236.115 310.91 242.009 300.799 246.748C299.387 247.41 297.978 248.051 296.571 248.673C296.562 248.676 296.552 248.682 296.542 248.685C296.475 248.715 296.407 248.744 296.344 248.775C296.053 248.903 295.763 249.031 295.475 249.158L295.609 249.245L296.024 249.514C295.88 249.427 295.738 249.342 295.593 249.255C295.551 249.228 295.505 249.203 295.463 249.177C290.496 246.197 285.461 243.045 282.03 238.393C278.472 233.563 277.042 226.644 280.191 221.538Z" fill="#F1F1F1"/>
<path d="M313.325 210.321C314.425 212.822 315.154 215.471 315.489 218.183C315.753 220.601 315.654 223.045 315.195 225.434C314.209 230.344 312.058 234.944 308.924 238.849C306.559 241.814 303.829 244.468 300.799 246.748C299.387 247.41 297.978 248.051 296.572 248.673C296.563 248.676 296.552 248.682 296.543 248.685C296.475 248.715 296.408 248.744 296.344 248.775C296.054 248.903 295.764 249.031 295.476 249.158L295.609 249.245L296.025 249.514C295.881 249.427 295.738 249.342 295.594 249.255C295.551 249.228 295.506 249.203 295.463 249.177C296.556 245.354 296.717 241.325 295.932 237.427C295.147 233.529 293.439 229.877 290.951 226.775C288.45 223.712 285.261 221.284 281.644 219.688C281.871 219.452 282.11 219.23 282.358 219.014C283.751 219.654 285.085 220.416 286.345 221.291C290.848 224.404 294.23 228.884 295.99 234.068C297.56 238.772 297.757 243.826 296.555 248.637C296.805 248.474 297.055 248.307 297.298 248.14C301.924 245.02 306.188 241.274 309.4 236.679C312.17 232.795 313.942 228.291 314.562 223.561C315.177 218.394 313.884 213.314 311.578 208.704C309.031 203.772 305.821 199.211 302.038 195.149C298.239 190.974 293.943 187.281 289.246 184.15C289.14 184.078 289.066 183.969 289.038 183.844C289.011 183.72 289.032 183.589 289.098 183.48C289.149 183.381 289.236 183.305 289.342 183.27C289.396 183.256 289.452 183.255 289.506 183.266C289.561 183.277 289.612 183.3 289.656 183.333C290.236 183.72 290.811 184.11 291.379 184.512C296.108 187.862 300.404 191.785 304.166 196.194C307.802 200.443 311.111 205.164 313.325 210.321Z" fill="white"/>
<path d="M175.51 250H328.892C328.998 250 329.101 249.958 329.176 249.882C329.252 249.807 329.294 249.704 329.294 249.597C329.294 249.491 329.252 249.388 329.176 249.313C329.101 249.237 328.998 249.195 328.892 249.195H175.51C175.403 249.195 175.301 249.237 175.225 249.313C175.15 249.388 175.107 249.491 175.107 249.597C175.107 249.704 175.15 249.807 175.225 249.882C175.301 249.958 175.403 250 175.51 250Z" fill="#CBCBCB"/>
<path d="M212.399 217.879L204.962 217.762L205.856 243.111H212.398L212.399 217.879Z" fill="#FFB7B7"/>
<path d="M214.067 240.975L201.184 240.975H201.184C199.006 240.975 196.918 241.84 195.378 243.379C193.839 244.919 192.974 247.007 192.974 249.184V249.451L214.067 249.452L214.067 240.975Z" fill="#2F2E41"/>
<path d="M261.641 211.156L253.517 216.372L269.768 235.923L275.273 232.388L261.641 211.156Z" fill="#FFB7B7"/>
<path d="M275.523 229.69L264.682 236.65L264.681 236.65C262.849 237.826 261.559 239.683 261.096 241.81C260.632 243.937 261.032 246.162 262.208 247.994L262.353 248.219L280.102 236.823L275.523 229.69Z" fill="#2F2E41"/>
<path d="M196.106 150.452C194.715 150.839 193.23 150.701 191.933 150.066C190.636 149.431 189.618 148.342 189.07 147.006C188.522 145.67 188.483 144.18 188.961 142.817C189.439 141.454 190.4 140.314 191.662 139.613L204.183 125.408L214.772 127.696L199.878 142.285C200.244 143.061 200.436 143.907 200.439 144.765C200.443 145.622 200.259 146.47 199.899 147.249C199.539 148.028 199.013 148.718 198.358 149.271C197.703 149.825 196.934 150.228 196.106 150.452H196.106Z" fill="#FFB7B7"/>
<path d="M173.025 124.481C175.456 124.481 177.427 122.51 177.427 120.079C177.427 117.648 175.456 115.677 173.025 115.677C170.594 115.677 168.623 117.648 168.623 120.079C168.623 122.51 170.594 124.481 173.025 124.481Z" fill="#F1F1F1"/>
<path d="M301.849 112.404C304.28 112.404 306.251 110.433 306.251 108.002C306.251 105.571 304.28 103.6 301.849 103.6C299.418 103.6 297.447 105.571 297.447 108.002C297.447 110.433 299.418 112.404 301.849 112.404Z" fill="#F1F1F1"/>
<path d="M112.752 4.9447H103.671C104.088 5.96861 104.248 7.07951 104.135 8.17954C104.022 9.27957 103.641 10.335 103.024 11.2528C102.407 12.1706 101.574 12.9226 100.598 13.4426C99.622 13.9626 98.5332 14.2346 97.4274 14.2347H57.5703C56.4645 14.2346 55.3757 13.9626 54.3998 13.4426C53.4238 12.9226 52.5908 12.1706 51.974 11.2528C51.3572 10.335 50.9755 9.27958 50.8627 8.17955C50.7499 7.07951 50.9093 5.96861 51.3269 4.9447H42.8448C40.9809 4.9447 39.1352 5.31183 37.4132 6.02511C35.6912 6.73839 34.1265 7.78387 32.8085 9.10185C31.4905 10.4198 30.4451 11.9845 29.7318 13.7065C29.0185 15.4285 28.6514 17.2742 28.6514 19.1381V199.027C28.6514 200.891 29.0185 202.737 29.7318 204.459C30.4451 206.181 31.4905 207.746 32.8085 209.064C34.1265 210.382 35.6912 211.427 37.4132 212.14C39.1352 212.854 40.9809 213.221 42.8448 213.221H112.752C114.616 213.221 116.462 212.854 118.184 212.14C119.906 211.427 121.471 210.382 122.789 209.064C124.106 207.746 125.152 206.181 125.865 204.459C126.579 202.737 126.946 200.891 126.946 199.027V19.1381C126.946 17.2742 126.579 15.4285 125.865 13.7065C125.152 11.9845 124.106 10.4198 122.789 9.10185C121.471 7.78387 119.906 6.73839 118.184 6.02511C116.462 5.31183 114.616 4.9447 112.752 4.9447Z" fill="white"/>
<path d="M77.7988 139.163C96.5743 139.163 111.795 123.942 111.795 105.166C111.795 86.391 96.5743 71.1704 77.7988 71.1704C59.0233 71.1704 43.8027 86.391 43.8027 105.166C43.8027 123.942 59.0233 139.163 77.7988 139.163Z" fill="#22BB9C"/>
<path d="M74.4296 118.135C73.6648 118.136 72.9203 117.889 72.3084 117.43L72.2705 117.402L64.2809 111.29C63.9109 111.006 63.6004 110.652 63.3671 110.249C63.1338 109.845 62.9823 109.399 62.9212 108.937C62.8601 108.475 62.8907 108.005 63.0112 107.555C63.1317 107.104 63.3397 106.682 63.6234 106.312C63.9071 105.942 64.2609 105.631 64.6645 105.398C65.0682 105.165 65.5139 105.013 65.9762 104.952C66.4384 104.891 66.9082 104.922 67.3586 105.042C67.809 105.163 68.2313 105.371 68.6013 105.654L73.7763 109.623L86.005 93.669C86.2886 93.2991 86.6422 92.9887 87.0457 92.7555C87.4493 92.5223 87.8948 92.3709 88.3568 92.3099C88.8189 92.2488 89.2884 92.2794 89.7386 92.3998C90.1889 92.5203 90.611 92.7282 90.9809 93.0118L90.9819 93.0125L90.906 93.1179L90.9839 93.0125C91.7302 93.586 92.2184 94.4322 92.3414 95.3652C92.4645 96.2983 92.2124 97.242 91.6404 97.9894L77.2568 116.746C76.924 117.178 76.4961 117.528 76.0064 117.768C75.5166 118.008 74.9782 118.132 74.4327 118.131L74.4296 118.135Z" fill="white"/>
<path d="M237.299 99.5995L206.093 138.77L196.581 134.403L233.26 77.2996L237.299 99.5995Z" fill="#3F3D56"/>
<path d="M311.965 38.9029C312.166 37.473 311.836 36.0189 311.037 34.8161C310.238 33.6133 309.026 32.7455 307.629 32.377C306.233 32.0084 304.75 32.1649 303.462 32.8167C302.173 33.4684 301.168 34.5702 300.638 35.9133L288.191 50.1823L291.843 60.3823L304.361 43.7095C305.178 43.9712 306.042 44.0505 306.893 43.942C307.743 43.8335 308.56 43.5398 309.285 43.0816C310.01 42.6233 310.626 42.0116 311.089 41.2897C311.552 40.5677 311.851 39.753 311.965 38.9029Z" fill="#FFB7B7"/>
<path d="M260.373 94.4239L301.689 50.3301L296.116 41.4702L244.295 85.2963L260.373 94.4239Z" fill="#3F3D56"/>
<path d="M251.151 67.6328C259.155 67.6328 265.644 61.1442 265.644 53.1401C265.644 45.136 259.155 38.6473 251.151 38.6473C243.147 38.6473 236.658 45.136 236.658 53.1401C236.658 61.1442 243.147 67.6328 251.151 67.6328Z" fill="#2F2E41"/>
<path d="M252.316 44.953C255.435 41.7906 259.209 39.3502 263.372 37.8036C266.045 36.8135 268.954 36.2018 271.748 36.7641C274.542 37.3263 277.184 39.2593 277.964 42.0007C278.601 44.2424 277.943 46.656 276.954 48.7662C275.965 50.8764 274.644 52.8332 273.844 55.0222C273.028 57.2557 272.783 59.6577 273.13 62.0101C273.478 64.3625 274.407 66.5909 275.835 68.493C277.262 70.395 279.141 71.9105 281.303 72.9018C283.464 73.8931 285.839 74.3289 288.212 74.1696C285.467 74.5377 282.936 75.8279 280.253 76.5146C277.569 77.2013 274.402 77.1547 272.408 75.2323C270.298 73.1983 270.256 69.8912 270.358 66.9624C270.509 62.6085 270.661 58.2547 270.813 53.9008C270.89 51.6804 270.956 49.3889 270.155 47.3164C269.355 45.244 267.452 43.4293 265.23 43.4482C263.546 43.4624 262.056 44.4825 260.706 45.4884C259.355 46.4944 257.926 47.5676 256.249 47.7172C254.572 47.8669 252.657 46.6257 252.782 44.9465L252.316 44.953Z" fill="#2F2E41"/>
<path d="M264.536 133.752C264.536 133.752 246.484 73.7974 240.683 72.9872C234.882 72.177 225.535 88.3709 225.535 88.3709C213.416 103.833 200.92 153.919 200.92 153.919C200.92 153.919 221.752 155.222 236.98 163.324C252.208 171.426 270.18 162.914 270.18 162.914L264.536 133.752Z" fill="#3F3D56"/>
<path opacity="0.1" d="M264.536 133.752C264.536 133.752 246.484 73.7973 240.683 72.9871C234.882 72.1769 227.909 88.5351 227.909 88.5351C221.87 113.495 200.92 153.919 200.92 153.919C200.92 153.919 221.752 155.222 236.98 163.324C252.208 171.426 270.18 162.914 270.18 162.914L264.536 133.752Z" fill="black"/>
<path d="M249.726 115.814V145.941L253.272 189.582L270.985 222.593L262.531 228.632L238.376 197.231L228.823 166.052L213.819 235.073L202.547 234.268L210.375 138.571L225.231 111.635L249.726 115.814Z" fill="#2F2E41"/>
<path d="M231.525 86.6745C225.889 92.3106 231.123 98.3493 231.123 98.3493L224.682 112.842L250.044 119.686L258.907 80.081L252.869 73.6398C240.791 73.2372 240.785 72.9869 240.785 72.9869C238.669 75.0577 231.525 86.6745 231.525 86.6745Z" fill="#22BB9C"/>
<path d="M259.929 75.9781C258.777 75.1278 257.468 74.5145 256.077 74.1738C254.687 73.833 253.242 73.7716 251.828 73.993C250.413 74.2144 249.057 74.7143 247.837 75.4636C246.617 76.213 245.558 77.197 244.721 78.3586C238.345 87.2363 232.449 101.572 240.572 119.45C253.615 148.158 264.966 162.854 269.58 162.852C269.781 162.854 269.982 162.822 270.173 162.759C273.013 161.796 277.12 156.989 277.863 152.754C278.129 151.238 278.066 149.127 276.253 147.677C271.046 143.511 261.697 130.542 258.781 113.472C257.169 104.04 260.294 95.448 263.2 89.9014C264.427 87.6063 264.786 84.9458 264.211 82.4076C263.636 79.8693 262.166 77.6233 260.069 76.0813L259.929 75.9781Z" fill="#3F3D56"/>
<path d="M251.896 66.2091C257.066 63.383 258.966 56.9009 256.14 51.731C253.314 46.5611 246.832 44.6611 241.662 47.4872C236.492 50.3133 234.592 56.7954 237.418 61.9653C240.244 67.1353 246.726 69.0353 251.896 66.2091Z" fill="#FFB7B7"/>
<path d="M231.775 56.0415H247.18L247.338 53.8299L248.128 56.0415H250.5L250.813 51.6581L252.379 56.0415H256.968V55.8244C256.965 52.7727 255.751 49.8469 253.593 47.689C251.435 45.5311 248.51 44.3173 245.458 44.3138H243.286C240.234 44.3173 237.308 45.5311 235.151 47.689C232.993 49.8469 231.779 52.7726 231.775 55.8244V56.0415Z" fill="#2F2E41"/>
<path d="M254.641 63.9912L261.215 61.8581V45.8937H248.798L249.105 46.2006C253.382 50.4723 258.14 65.6278 254.641 63.9912Z" fill="#2F2E41"/>
<path d="M212.074 15.7852C216.062 15.7852 219.294 12.5528 219.294 8.56541C219.294 4.57801 216.062 1.34558 212.074 1.34558C208.087 1.34558 204.854 4.57801 204.854 8.56541C204.854 12.5528 208.087 15.7852 212.074 15.7852Z" fill="#F1F1F1"/>
</g>
<defs>
<clipPath id="clip0_929_19956">
<rect width="328.589" height="250" fill="white" transform="translate(0.705078)"/>
</clipPath>
</defs>
</svg>
