<svg width="76" height="76" viewBox="0 0 76 76" fill="none" xmlns="http://www.w3.org/2000/svg">
<rect width="76" height="76" rx="28" fill="#22BB9C" fill-opacity="0.08"/>
<path d="M31.0003 47.3337C30.0281 47.3337 29.2017 46.9934 28.5212 46.3128C27.8406 45.6323 27.5003 44.8059 27.5003 43.8337H25.167V31.0003C25.167 30.3587 25.3957 29.8095 25.853 29.353C26.3095 28.8957 26.8587 28.667 27.5003 28.667H43.8337V33.3337H47.3337L50.8337 38.0003V43.8337H48.5003C48.5003 44.8059 48.16 45.6323 47.4795 46.3128C46.7989 46.9934 45.9725 47.3337 45.0003 47.3337C44.0281 47.3337 43.2017 46.9934 42.5212 46.3128C41.8406 45.6323 41.5003 44.8059 41.5003 43.8337H34.5003C34.5003 44.8059 34.16 45.6323 33.4795 46.3128C32.7989 46.9934 31.9725 47.3337 31.0003 47.3337ZM31.0003 45.0003C31.3309 45.0003 31.6082 44.8883 31.8322 44.6643C32.0554 44.4411 32.167 44.1642 32.167 43.8337C32.167 43.5031 32.0554 43.2262 31.8322 43.003C31.6082 42.779 31.3309 42.667 31.0003 42.667C30.6698 42.667 30.3925 42.779 30.1685 43.003C29.9453 43.2262 29.8337 43.5031 29.8337 43.8337C29.8337 44.1642 29.9453 44.4411 30.1685 44.6643C30.3925 44.8883 30.6698 45.0003 31.0003 45.0003ZM45.0003 45.0003C45.3309 45.0003 45.6078 44.8883 45.831 44.6643C46.055 44.4411 46.167 44.1642 46.167 43.8337C46.167 43.5031 46.055 43.2262 45.831 43.003C45.6078 42.779 45.3309 42.667 45.0003 42.667C44.6698 42.667 44.3929 42.779 44.1697 43.003C43.9457 43.2262 43.8337 43.5031 43.8337 43.8337C43.8337 44.1642 43.9457 44.4411 44.1697 44.6643C44.3929 44.8883 44.6698 45.0003 45.0003 45.0003ZM43.8337 39.167H48.792L46.167 35.667H43.8337V39.167Z" fill="#22BB9C"/>
</svg>
