<svg width="20" height="20" viewBox="0 0 20 20" fill="none" xmlns="http://www.w3.org/2000/svg">
<path d="M4.99967 16.6663C4.30523 16.6663 3.71495 16.4233 3.22884 15.9372C2.74273 15.4511 2.49967 14.8608 2.49967 14.1663H0.833008V4.99967C0.833008 4.54134 0.996341 4.14912 1.32301 3.82301C1.64912 3.49634 2.04134 3.33301 2.49967 3.33301H14.1663V6.66634H16.6663L19.1663 9.99967V14.1663H17.4997C17.4997 14.8608 17.2566 15.4511 16.7705 15.9372C16.2844 16.4233 15.6941 16.6663 14.9997 16.6663C14.3052 16.6663 13.715 16.4233 13.2288 15.9372C12.7427 15.4511 12.4997 14.8608 12.4997 14.1663H7.49967C7.49967 14.8608 7.25662 15.4511 6.77051 15.9372C6.2844 16.4233 5.69412 16.6663 4.99967 16.6663ZM4.99967 14.9997C5.23579 14.9997 5.43384 14.9197 5.59384 14.7597C5.75328 14.6002 5.83301 14.4025 5.83301 14.1663C5.83301 13.9302 5.75328 13.7325 5.59384 13.573C5.43384 13.413 5.23579 13.333 4.99967 13.333C4.76356 13.333 4.56551 13.413 4.40551 13.573C4.24606 13.7325 4.16634 13.9302 4.16634 14.1663C4.16634 14.4025 4.24606 14.6002 4.40551 14.7597C4.56551 14.9197 4.76356 14.9997 4.99967 14.9997ZM14.9997 14.9997C15.2358 14.9997 15.4336 14.9197 15.593 14.7597C15.753 14.6002 15.833 14.4025 15.833 14.1663C15.833 13.9302 15.753 13.7325 15.593 13.573C15.4336 13.413 15.2358 13.333 14.9997 13.333C14.7636 13.333 14.5658 13.413 14.4063 13.573C14.2463 13.7325 14.1663 13.9302 14.1663 14.1663C14.1663 14.4025 14.2463 14.6002 14.4063 14.7597C14.5658 14.9197 14.7636 14.9997 14.9997 14.9997ZM14.1663 10.833H17.708L15.833 8.33301H14.1663V10.833Z" fill="#212121"/>
</svg>
