<svg width="20" height="20" viewBox="0 0 20 20" fill="none" xmlns="http://www.w3.org/2000/svg">
<path d="M11.1743 2.09421C10.4213 1.78891 9.57899 1.78891 8.82598 2.09421L7.00098 2.83421L14.9943 5.94254L17.806 4.85671C17.6907 4.76106 17.5614 4.68376 17.4226 4.62754L11.1743 2.09421V2.09421Z" fill="#9E9E9E"/>
<path d="M18.3333 5.99268L10.625 8.97101V18.0735C10.8117 18.036 10.995 17.9802 11.1742 17.9077L17.4225 15.3743C17.6916 15.2653 17.9221 15.0784 18.0844 14.8376C18.2466 14.5968 18.3333 14.3131 18.3333 14.0227V5.99351V5.99268Z" fill="#9E9E9E"/>
<path d="M9.37533 18.0735V8.97101L1.66699 5.99268V14.0235C1.66716 14.3137 1.75392 14.5973 1.91618 14.838C2.07844 15.0786 2.30882 15.2654 2.57783 15.3743L8.82616 17.9077C9.00533 17.9802 9.18866 18.0352 9.37533 18.0743V18.0735Z" fill="#9E9E9E"/>
<path d="M2.19434 4.85654L10.0002 7.87238L13.2643 6.61071L5.31184 3.51904L2.57767 4.62738C2.436 4.68488 2.30767 4.76238 2.19434 4.85654V4.85654Z" fill="#9E9E9E"/>
</svg>
