<svg width="2" height="27" viewBox="0 0 2 27" fill="none" xmlns="http://www.w3.org/2000/svg">
<path fill-rule="evenodd" clip-rule="evenodd" d="M1 0.333008C1.55228 0.333008 2 0.780723 2 1.33301L2 4.41634C2 4.96863 1.55228 5.41634 1 5.41634C0.447715 5.41634 -2.02629e-07 4.96863 -1.78488e-07 4.41634L-4.37114e-08 1.33301C-1.95703e-08 0.780723 0.447715 0.333008 1 0.333008ZM1 9.58301C1.55228 9.58301 2 10.0307 2 10.583L2 16.7497C2 17.302 1.55228 17.7497 0.999999 17.7497C0.447714 17.7497 -7.41736e-07 17.302 -7.17595e-07 16.7497L-4.48042e-07 10.583C-4.23901e-07 10.0307 0.447715 9.58301 1 9.58301ZM0.999999 21.9163C1.55228 21.9163 2 22.3641 2 22.9163L2 25.9997C2 26.552 1.55228 26.9997 0.999999 26.9997C0.447714 26.9997 -1.14607e-06 26.552 -1.12193e-06 25.9997L-9.87149e-07 22.9163C-9.63008e-07 22.3641 0.447714 21.9163 0.999999 21.9163Z" fill="#BDBDBD"/>
</svg>
