<svg width="76" height="76" viewBox="0 0 76 76" fill="none" xmlns="http://www.w3.org/2000/svg">
<rect width="76" height="76" rx="38" fill="#22BB9C" fill-opacity="0.08"/>
<path fill-rule="evenodd" clip-rule="evenodd" d="M44.73 33.7788H49.6663C49.6663 29.8154 47.2915 27.5 43.2678 27.5H32.7315C28.7078 27.5 26.333 29.8154 26.333 33.7282V42.2718C26.333 46.1846 28.7078 48.5 32.7315 48.5H43.2678C47.2915 48.5 49.6663 46.1846 49.6663 42.2718V41.9078H44.73C42.4391 41.9078 40.5819 40.0971 40.5819 37.8635C40.5819 35.6299 42.4391 33.8192 44.73 33.8192V33.7788ZM44.73 35.5178H48.7952C49.2763 35.5178 49.6663 35.8981 49.6663 36.3671V39.3195C49.6607 39.7862 49.274 40.1633 48.7952 40.1688H44.8234C43.6636 40.184 42.6494 39.4098 42.3863 38.3084C42.2546 37.6247 42.4395 36.9192 42.8916 36.3809C43.3436 35.8427 44.0166 35.5268 44.73 35.5178ZM44.9063 38.6218H45.29C45.7826 38.6218 46.1819 38.2325 46.1819 37.7523C46.1819 37.2721 45.7826 36.8828 45.29 36.8828H44.9063C44.6708 36.8801 44.4439 36.9694 44.2763 37.1309C44.1088 37.2923 44.0145 37.5125 44.0145 37.7422C44.0145 38.2241 44.4121 38.6163 44.9063 38.6218ZM31.8604 33.7788H38.4456C38.9382 33.7788 39.3375 33.3895 39.3375 32.9092C39.3375 32.429 38.9382 32.0397 38.4456 32.0397H31.8604C31.3719 32.0397 30.9742 32.4229 30.9686 32.8991C30.9685 33.381 31.3662 33.7732 31.8604 33.7788Z" fill="#22BB9C"/>
</svg>
