<svg width="60" height="60" viewBox="0 0 60 60" fill="none" xmlns="http://www.w3.org/2000/svg">
<rect width="60" height="60" rx="30" fill="#22BB9C" fill-opacity="0.08"/>
<path fill-rule="evenodd" clip-rule="evenodd" d="M24.948 18.3325H35.063C39.018 18.3325 41.6663 21.1092 41.6663 25.2392V34.772C41.6663 38.8904 39.018 41.6659 35.063 41.6659H24.948C20.993 41.6659 18.333 38.8904 18.333 34.772V25.2392C18.333 21.1092 20.993 18.3325 24.948 18.3325ZM29.988 26.5704C29.4397 26.5704 28.9847 26.1142 28.9847 25.5554C28.9847 24.9837 29.4397 24.5287 30.0113 24.5287C30.5713 24.5287 31.0263 24.9837 31.0263 25.5554C31.0263 26.1142 30.5713 26.5704 29.988 26.5704ZM31.0147 34.4104C31.0147 34.9704 30.5597 35.4254 29.988 35.4254C29.428 35.4254 28.973 34.9704 28.973 34.4104V29.2537C28.973 28.6925 29.428 28.227 29.988 28.227C30.5597 28.227 31.0147 28.6925 31.0147 29.2537V34.4104Z" fill="url(#paint0_linear_929_26163)"/>
<defs>
<linearGradient id="paint0_linear_929_26163" x1="41.6663" y1="41.6659" x2="13.9018" y2="33.6158" gradientUnits="userSpaceOnUse">
<stop stop-color="#22BB9C"/>
<stop offset="1" stop-color="#35DEBC"/>
</linearGradient>
</defs>
</svg>
