<svg width="25" height="24" viewBox="0 0 25 24" fill="none" xmlns="http://www.w3.org/2000/svg">
<path fill-rule="evenodd" clip-rule="evenodd" d="M2.875 12.015C2.875 6.74712 7.085 2 12.895 2C18.575 2 22.875 6.65699 22.875 11.985C22.875 18.1642 17.835 22 12.875 22C11.235 22 9.415 21.5593 7.955 20.698C7.445 20.3876 7.015 20.1572 6.465 20.3375L4.445 20.9384C3.935 21.0986 3.475 20.698 3.625 20.1572L4.295 17.9139C4.405 17.6034 4.385 17.2729 4.225 17.0125C3.365 15.4301 2.875 13.6975 2.875 12.015ZM11.575 12.015C11.575 12.7261 12.145 13.2969 12.855 13.307C13.565 13.307 14.135 12.7261 14.135 12.025C14.135 11.314 13.565 10.7431 12.855 10.7431C12.155 10.7331 11.575 11.314 11.575 12.015ZM16.185 12.025C16.185 12.7261 16.755 13.307 17.465 13.307C18.175 13.307 18.745 12.7261 18.745 12.025C18.745 11.314 18.175 10.7431 17.465 10.7431C16.755 10.7431 16.185 11.314 16.185 12.025ZM8.245 13.307C7.545 13.307 6.965 12.7261 6.965 12.025C6.965 11.314 7.535 10.7431 8.245 10.7431C8.955 10.7431 9.525 11.314 9.525 12.025C9.525 12.7261 8.955 13.2969 8.245 13.307Z" fill="#22BB9C"/>
</svg>
