<svg width="25" height="24" viewBox="0 0 25 24" fill="none" xmlns="http://www.w3.org/2000/svg">
<path fill-rule="evenodd" clip-rule="evenodd" d="M19.9464 19.0699C16.8902 22.1263 12.3648 22.7867 8.66142 21.074C8.11471 20.8539 7.66648 20.676 7.24037 20.676C6.05349 20.683 4.57617 21.8339 3.80836 21.067C3.04055 20.2991 4.19226 18.8206 4.19226 17.6266C4.19226 17.2004 4.02142 16.7602 3.80132 16.2124C2.08783 12.5096 2.74911 7.98269 5.80526 4.92721C9.7066 1.02443 16.045 1.02443 19.9464 4.9262C23.8547 8.83501 23.8477 15.1681 19.9464 19.0699Z" stroke="#9E9E9E" stroke-width="1.5" stroke-linecap="round" stroke-linejoin="round"/>
<path d="M16.8148 12.4131H16.8238" stroke="#9E9E9E" stroke-width="2" stroke-linecap="round" stroke-linejoin="round"/>
<path d="M12.8051 12.4131H12.8141" stroke="#9E9E9E" stroke-width="2" stroke-linecap="round" stroke-linejoin="round"/>
<path d="M8.79628 12.4131H8.80528" stroke="#9E9E9E" stroke-width="2" stroke-linecap="round" stroke-linejoin="round"/>
</svg>
