<svg width="36" height="37" viewBox="0 0 36 37" fill="none" xmlns="http://www.w3.org/2000/svg">
<path fill-rule="evenodd" clip-rule="evenodd" d="M5.25 15.8096C5.25 8.90984 11.0158 3.33301 17.9902 3.33301C24.9842 3.33301 30.75 8.90984 30.75 15.8096C30.75 19.2865 29.4855 22.5145 27.4042 25.2504C25.1082 28.2683 22.2782 30.8977 19.0928 32.9616C18.3638 33.4386 17.7058 33.4746 16.9057 32.9616C13.7021 30.8977 10.8721 28.2683 8.59575 25.2504C6.51298 22.5145 5.25 19.2865 5.25 15.8096ZM13.7913 16.1981C13.7913 18.5096 15.6775 20.3275 17.9902 20.3275C20.3044 20.3275 22.2087 18.5096 22.2087 16.1981C22.2087 13.9047 20.3044 11.9983 17.9902 11.9983C15.6775 11.9983 13.7913 13.9047 13.7913 16.1981Z" fill="#BDBDBD"/>
</svg>
