<svg width="60" height="60" viewBox="0 0 60 60" fill="none" xmlns="http://www.w3.org/2000/svg">
<rect width="60" height="60" rx="30" fill="#22BB9C" fill-opacity="0.08"/>
<path fill-rule="evenodd" clip-rule="evenodd" d="M35.4425 18.3453C37.1208 18.2404 38.7758 18.8231 40.0228 19.9653C41.165 21.2123 41.7477 22.8673 41.6545 24.5572V35.4426C41.7594 37.1325 41.165 38.7875 40.0345 40.0345C38.7874 41.1767 37.1208 41.7594 35.4425 41.6545H24.557C22.8671 41.7594 21.2121 41.1767 19.9651 40.0345C18.8229 38.7875 18.2402 37.1325 18.3451 35.4426V24.5572C18.2402 22.8673 18.8229 21.2123 19.9651 19.9653C21.2121 18.8231 22.8671 18.2404 24.557 18.3453H35.4425ZM28.811 35.6524L36.6546 27.7855C37.3655 27.063 37.3655 25.8975 36.6546 25.1866L35.1395 23.6715C34.4169 22.9489 33.2514 22.9489 32.5288 23.6715L31.748 24.464C31.6314 24.5805 31.6314 24.7787 31.748 24.8952C31.748 24.8952 33.6011 26.7366 33.636 26.7832C33.7642 26.9231 33.8458 27.1096 33.8458 27.3194C33.8458 27.7389 33.5078 28.0886 33.0766 28.0886C32.8785 28.0886 32.692 28.007 32.5638 27.8788L30.6175 25.9441C30.5242 25.8509 30.3611 25.8509 30.2678 25.9441L24.7085 31.5034C24.3239 31.888 24.1025 32.4008 24.0908 32.9485L24.0209 35.7107C24.0209 35.8622 24.0675 36.002 24.1724 36.1069C24.2773 36.2118 24.4172 36.2701 24.5687 36.2701H27.3075C27.867 36.2701 28.4031 36.0487 28.811 35.6524Z" fill="url(#paint0_linear_929_26135)"/>
<defs>
<linearGradient id="paint0_linear_929_26135" x1="41.6663" y1="41.6666" x2="13.9018" y2="33.6165" gradientUnits="userSpaceOnUse">
<stop stop-color="#22BB9C"/>
<stop offset="1" stop-color="#35DEBC"/>
</linearGradient>
</defs>
</svg>
