<svg width="340" height="250" viewBox="0 0 340 250" fill="none" xmlns="http://www.w3.org/2000/svg">
<g clip-path="url(#clip0_929_28387)">
<path opacity="0.1" d="M4.1875 119.859C9.5393 140.543 20.8591 158.422 38.7477 167.089C75.9361 185.101 159.806 175.811 222.4 165.148C254.779 159.633 283.239 144.412 303.913 122.993L4.1875 119.859Z" fill="#22BB9C"/>
<path opacity="0.1" d="M332.431 22.5011H298.086C296.456 22.5011 295.119 21.2933 295.119 19.8175C295.119 18.3417 296.456 17.1308 298.086 17.1308H304.027C302.394 17.1308 301.06 15.923 301.06 14.4441C301.06 12.9652 302.394 11.7605 304.027 11.7605H299.787C298.154 11.7605 296.817 10.5528 296.817 9.07385C296.817 7.59495 298.154 6.39025 299.787 6.39025H317.713C313.735 4.71724 309.086 3.52795 303.728 2.9025C254.847 -2.77589 237.396 0.979919 231.24 4.84048C223.567 9.71239 215.043 13.0929 206.117 14.8046C175.959 20.4337 119.561 27.2059 68.4428 12.6479C43.0365 5.39815 24.1527 17.633 12.8359 38.0851H338.396C337.971 32.1417 336.698 26.6513 334.363 21.8479C333.81 22.275 333.13 22.5049 332.431 22.5011Z" fill="#22BB9C"/>
<path opacity="0.1" d="M1.27525 76.6875C-0.0439134 88.7165 0.40451 100.874 2.60627 112.773L304.143 122.752C312.444 114.144 319.496 104.413 325.094 93.8459L1.27525 76.6875ZM120.537 102.43H114.6C116.233 102.43 117.57 103.641 117.57 105.116C117.57 106.592 116.233 107.8 114.6 107.8H80.2551C78.6252 107.8 77.288 106.592 77.288 105.116C77.288 103.641 78.6252 102.43 80.2551 102.43H86.1953C84.5624 102.43 83.2283 101.222 83.2283 99.7461C83.2283 98.2703 84.5624 97.0594 86.1953 97.0594H81.9527C80.3198 97.0594 78.9826 95.8517 78.9826 94.3758C78.9826 92.9 80.3198 91.6892 81.9527 91.6892H116.297C117.93 91.6892 119.264 92.8969 119.264 94.3758C119.264 95.8548 117.93 97.0594 116.297 97.0594H120.537C122.17 97.0594 123.504 98.2672 123.504 99.7461C123.504 101.225 122.17 102.43 120.537 102.43Z" fill="#22BB9C"/>
<path opacity="0.1" d="M338.408 38.27L9.20278 45.5105C5.19741 54.8245 2.54154 65.3556 1.31836 76.2687H332.64C334.796 69.8839 336.396 63.3245 337.422 56.6639C338.411 50.2522 338.805 44.0501 338.408 38.27ZM68.1588 62.0096H62.2216C63.8546 62.0096 65.1917 63.2204 65.1917 64.6962C65.1917 66.1721 63.8546 67.3829 62.2216 67.3829H27.8771C26.2472 67.3829 24.91 66.1721 24.91 64.6962C24.91 63.2204 26.2472 62.0096 27.8771 62.0096H33.8173C32.1844 62.0096 30.8503 60.8018 30.8503 59.326C30.8503 57.8501 32.1844 56.6393 33.8173 56.6393H29.5747C27.9418 56.6393 26.6046 55.4315 26.6046 53.9557C26.6046 52.4799 27.9418 51.269 29.5747 51.269H63.9193C65.5522 51.269 66.8863 52.4768 66.8863 53.9557C66.8863 55.4346 65.5522 56.6393 63.9193 56.6393H68.1588C69.7918 56.6393 71.1259 57.8501 71.1259 59.326C71.1259 60.8018 69.7918 62.0096 68.1588 62.0096Z" fill="#22BB9C"/>
<path opacity="0.1" d="M168.482 240.655C244.541 240.655 306.199 234.983 306.199 227.986C306.199 220.989 244.541 215.316 168.482 215.316C92.4227 215.316 30.7646 220.989 30.7646 227.986C30.7646 234.983 92.4227 240.655 168.482 240.655Z" fill="#22BB9C"/>
<path d="M308.842 123.341C308.841 123.319 308.841 123.298 308.842 123.276C308.842 123.242 308.842 123.211 308.842 123.18C308.781 122.828 308.647 122.491 308.451 122.191C307.746 121.063 306.764 120.134 305.598 119.492C303.564 118.377 300.77 117.9 299.957 115.771C299.707 115.111 299.701 114.393 299.578 113.703C299.362 112.628 298.867 111.628 298.143 110.805C297.419 109.981 296.491 109.362 295.452 109.011C294.485 108.687 293.44 108.598 292.5 108.197C290.399 107.304 289.29 105.101 288.35 103.064C287.134 100.435 285.918 97.8049 284.702 95.1737C283.778 95.6389 282.582 95.4201 281.717 94.8378C280.882 94.2167 280.218 93.3955 279.785 92.45C278.531 90.016 277.992 87.2584 276.519 84.9415C275.046 82.6245 272.104 80.7944 269.503 81.8019C268.996 82.0555 268.471 82.2728 267.932 82.452C265.704 82.9727 263.24 80.4277 261.332 81.6632C261.016 81.8664 260.757 82.1489 260.584 82.4828C260.582 82.4623 260.582 82.4417 260.584 82.4212C260.336 82.9223 260.197 83.4706 260.177 84.0295C260.177 84.1435 260.177 84.2544 260.177 84.3622C260.177 84.3807 260.177 84.3992 260.177 84.4177C260.177 84.8614 260.205 85.3112 260.211 85.761C260.218 86.1388 260.189 86.5164 260.125 86.8887V86.8579C260.089 87.0674 260.035 87.2735 259.964 87.4741C259.468 88.8051 258.094 89.6771 257.45 90.928V90.8663C257.378 91.0024 257.315 91.1435 257.262 91.2884C257.148 91.6163 257.088 91.961 257.087 92.3083C257.031 94.6591 259.524 96.8713 259.813 99.3947C260.02 101.182 260.43 101.755 261.949 102.765L262.281 102.987C262.149 102.987 262.013 103.006 261.862 103.009C261.803 103.01 261.745 103.016 261.687 103.027C261.419 102.953 261.138 102.94 260.864 102.988C260.59 103.036 260.33 103.144 260.103 103.305C258.938 104.229 256.184 103.517 254.961 103.305C253.738 103.092 249.547 103.665 248.962 105.988C248.377 108.311 247.372 113.105 247.372 113.105C247.372 113.105 247.372 116.146 246.999 116.713C246.985 116.753 246.985 116.797 246.999 116.837C246.999 117.69 247.03 122.82 246.204 124.142C246.001 124.45 246.016 125.131 246.167 125.969C245.299 127.087 244.482 128.394 244.627 129.25C244.892 131.003 248.447 136.515 253.543 133.564C253.543 133.564 256.443 128.261 252.795 125.442L252.952 124.826C254.055 126.181 254.871 127.155 254.871 127.155C254.871 127.155 254.915 127.269 254.982 127.463H254.871C255.348 128.759 255.636 130.116 255.728 131.493C255.714 131.998 255.623 132.498 255.457 132.975H255.552C255.525 133.08 255.494 133.185 255.457 133.283C255.278 133.804 254.943 134.256 254.499 134.58C251.951 136.386 249.033 149.28 249.033 149.28C249.033 149.28 243.253 170.123 242.097 171.31C241.142 172.283 247.144 175.025 251.649 174.699C252.277 174.661 252.899 174.543 253.497 174.348C253.525 174.656 253.556 174.964 253.587 175.244C253.682 176.168 253.781 177.025 253.842 177.293C254.003 177.965 254.32 184.823 254.32 184.823C254.32 184.823 253.67 189.278 253.827 192.378C253.827 192.59 253.855 192.794 253.873 192.994L253.312 193.08C252.462 194.991 255.965 210.929 256.443 212.269C256.759 213.325 256.937 214.418 256.973 215.52C256.973 215.52 256.665 216.654 256.92 217.273C257.08 217.651 257.183 218.051 257.228 218.459C257.228 218.459 257.019 219.488 257.336 220.16C257.654 220.831 257.284 222.008 257.284 222.008C257.284 222.008 257.179 226.652 256.224 229.178C255.964 229.858 255.888 230.594 256.005 231.313C256.121 232.032 256.425 232.707 256.886 233.27C256.953 233.357 257.025 233.441 257.102 233.519C257.102 233.519 262.371 233.562 263.298 233.519H263.418C263.791 233.467 264.746 229.289 263.896 227.277C263.045 225.265 263.791 222.788 263.791 222.788V219.128C263.791 219.128 264.746 218.246 263.791 216.355C262.836 214.463 262.993 213.89 262.993 213.89C262.993 213.89 264.056 210.846 262.941 209.866C261.825 208.886 263.153 205.17 263.153 205.17L263.529 192.785C263.332 192.721 263.132 192.669 262.928 192.631C262.907 192.427 262.885 192.218 262.864 191.996C262.645 189.753 262.457 186.703 262.944 185.834C263.431 184.965 263.665 177.379 263.742 172.108L268.598 172.293C268.699 174.757 268.807 177.007 268.875 177.293C269.035 177.965 269.355 184.823 269.355 184.823C269.355 184.823 268.702 189.278 268.859 192.378C268.859 192.59 268.887 192.794 268.906 192.994L268.345 193.08C267.495 194.991 270.998 210.929 271.475 212.269C271.792 213.325 271.971 214.418 272.008 215.52C272.008 215.52 271.7 216.654 271.953 217.273C272.112 217.651 272.216 218.051 272.261 218.459C272.261 218.459 272.051 219.488 272.369 220.16C272.686 220.831 272.316 222.008 272.316 222.008C272.316 222.008 272.212 226.652 271.256 229.178C271 229.859 270.929 230.595 271.049 231.313C271.169 232.03 271.477 232.703 271.94 233.264C272.007 233.351 272.079 233.435 272.156 233.513C272.156 233.513 277.425 233.556 278.352 233.513H278.472C278.845 233.461 279.8 229.283 278.95 227.271C278.1 225.259 278.845 222.782 278.845 222.782V219.128C278.845 219.128 279.8 218.246 278.845 216.355C277.89 214.463 278.047 213.89 278.047 213.89C278.047 213.89 279.11 210.846 277.995 209.866C276.879 208.886 278.207 205.17 278.207 205.17L278.589 192.785C278.388 192.72 278.182 192.668 277.973 192.631C277.952 192.427 277.93 192.218 277.908 191.996C277.69 189.753 277.502 186.703 277.989 185.834C278.38 185.122 278.605 180.537 278.706 176.061C278.706 175.753 278.706 175.444 278.731 175.136C280.962 175.043 283.184 174.794 285.38 174.391C285.38 174.391 282.783 165.206 283.578 163.712C283.92 163.068 283.427 159.639 282.752 155.944C283.693 156.706 284.863 157.129 286.073 157.146C287.235 159.38 290.769 164.519 292.759 165.311C295.095 166.235 293.342 158.04 292.229 156.853C291.703 156.206 291.26 155.495 290.911 154.737C290.941 154.7 290.975 154.669 291.006 154.635C291.037 154.601 291.062 145.916 290.528 146.073C289.995 146.23 289.361 144.782 289.361 144.782L287.715 130.341L287.025 124.296C287.601 124.721 288.285 124.992 288.874 125.414C290.476 126.588 291 128.649 291.702 130.473C292.282 131.974 293.095 133.462 294.429 134.405C295.763 135.348 297.72 135.597 299.051 134.642C300.283 133.745 300.647 132.128 300.918 130.652C303.155 131.438 305.869 129.336 305.579 127.041C305.509 126.474 305.299 125.855 305.595 125.359C306.186 124.379 308.06 124.949 308.676 123.982C308.78 123.814 308.833 123.621 308.83 123.424C308.839 123.381 308.842 123.362 308.842 123.341ZM278.922 131.284C278.888 131.835 279.646 136.266 280.262 139.772C279.757 137.587 278.743 135.255 276.747 133.656C276.747 133.656 276.747 133.545 276.722 133.348H276.747C276.747 133.348 276.664 132.467 276.651 131.213C276.655 130.101 276.737 128.991 276.898 127.891V127.864H276.858C276.858 127.771 276.882 127.676 276.898 127.583C277.02 126.655 277.272 125.749 277.647 124.89C277.812 124.554 278.003 124.231 278.217 123.923C278.546 126.902 278.953 130.726 278.922 131.284ZM280.58 141.55C280.851 143.063 281.045 144.125 281.045 144.125L282.681 155.359V155.411C281.8 150.67 280.675 145.672 280.675 145.672C280.79 144.299 280.758 142.917 280.58 141.55Z" fill="url(#paint0_linear_929_28387)"/>
<path d="M260.528 100.011C260.22 97.164 257.139 94.7084 258.063 92.0002C258.565 90.5244 260.136 89.6216 260.666 88.155C261.018 87.1876 260.861 86.1246 260.864 85.0955C260.867 84.0665 261.107 82.9172 261.964 82.3472C263.812 81.1148 266.191 83.6505 268.347 83.1329C268.869 82.9545 269.377 82.7383 269.866 82.4859C272.384 81.4845 275.231 83.3085 276.645 85.6131C278.059 87.9178 278.589 90.6661 279.803 93.0878C280.217 94.023 280.859 94.8396 281.67 95.4633C282.508 96.0425 283.654 96.2613 284.56 95.7991L288.088 103.656C289.012 105.68 290.072 107.874 292.093 108.764C292.999 109.162 294.01 109.251 294.946 109.575C295.964 109.934 296.87 110.554 297.573 111.373C298.276 112.192 298.751 113.182 298.952 114.242C299.072 114.932 299.075 115.647 299.318 116.304C300.104 118.423 302.806 118.898 304.775 120.001C305.914 120.643 306.869 121.567 307.548 122.684C307.856 123.217 308.121 123.917 307.791 124.441C307.197 125.402 305.388 124.835 304.815 125.812C304.525 126.305 304.729 126.921 304.815 127.488C305.095 129.771 302.467 131.863 300.304 131.08C300.042 132.55 299.688 134.161 298.499 135.052C297.22 136.007 295.325 135.754 294.034 134.818C292.743 133.881 291.961 132.399 291.4 130.905C290.719 129.087 290.211 127.035 288.661 125.867C288.1 125.448 287.428 125.177 286.88 124.755C285.648 123.812 285.031 122.256 284.591 120.75C284.021 118.87 283.568 116.938 282.742 115.164C281.916 113.389 280.61 111.737 278.82 110.927C277.141 110.172 275.206 110.222 273.471 109.608C270.486 108.555 268.277 106.044 265.306 104.861C264.357 104.461 263.457 103.953 262.626 103.345C261.132 102.362 260.725 101.792 260.528 100.011Z" fill="#3F3D56"/>
<g opacity="0.1">
<path opacity="0.1" d="M260.805 87.5514C260.868 87.4309 260.924 87.3064 260.971 87.1786C261.319 86.2111 261.165 85.1482 261.168 84.1191C261.168 83.7759 261.2 83.4334 261.264 83.0962C260.979 83.705 260.841 84.3718 260.86 85.0434C260.857 85.8722 260.956 86.7411 260.805 87.5514Z" fill="black"/>
<path opacity="0.1" d="M298.788 134.085C297.51 135.037 295.615 134.787 294.324 133.847C293.033 132.908 292.247 131.432 291.702 129.931C291.021 128.114 290.516 126.062 288.963 124.894C288.405 124.475 287.73 124.201 287.185 123.782C285.953 122.839 285.336 121.283 284.893 119.792C284.323 117.912 283.873 115.98 283.044 114.206C282.215 112.431 280.915 110.78 279.122 109.969C277.446 109.214 275.511 109.264 273.776 108.651C270.788 107.597 268.578 105.086 265.611 103.903C264.662 103.502 263.761 102.994 262.928 102.387C261.467 101.379 261.079 100.809 260.864 99.0315C260.555 96.3633 257.844 94.0371 258.266 91.5229C258.197 91.659 258.137 91.7989 258.084 91.942C257.16 94.6533 260.241 97.1089 260.549 99.9527C260.75 101.73 261.165 102.3 262.614 103.308C263.447 103.915 264.347 104.424 265.297 104.824C268.264 106.007 270.473 108.521 273.462 109.572C275.197 110.188 277.132 110.136 278.808 110.89C280.601 111.701 281.889 113.355 282.73 115.127C283.571 116.899 284.021 118.824 284.578 120.713C285.031 122.204 285.626 123.76 286.871 124.703C287.428 125.122 288.103 125.396 288.649 125.815C290.189 126.983 290.707 129.035 291.388 130.853C291.948 132.347 292.734 133.826 294.025 134.762C295.316 135.699 297.211 135.952 298.489 135C299.306 134.384 299.722 133.444 299.996 132.436C299.752 133.086 299.334 133.656 298.788 134.085Z" fill="black"/>
<path opacity="0.1" d="M305.119 124.845C305.002 125.066 304.95 125.316 304.972 125.566C305.668 124.879 307.239 125.282 307.788 124.398C307.915 124.179 307.965 123.924 307.929 123.674C307.215 124.352 305.643 123.948 305.119 124.845Z" fill="black"/>
<path opacity="0.1" d="M300.593 130.113C300.535 130.421 300.476 130.751 300.402 131.071C302.288 131.66 304.466 130.147 304.774 128.237C304.026 129.706 302.177 130.689 300.593 130.113Z" fill="black"/>
</g>
<path d="M264.508 101.493C264.508 101.493 265.534 103.564 262.505 103.607C259.477 103.65 264.456 117.052 264.456 117.052L269.49 123.461L275.754 120.072L276.114 110.724L276.577 105.076C276.577 105.076 270.723 103.175 271.801 100.661C272.879 98.1471 264.508 101.493 264.508 101.493Z" fill="#FBBEBE"/>
<path d="M282.689 156.139C282.689 156.139 286.387 159.778 290.7 154.95L287.388 151.434H283.198L282.689 156.139Z" fill="#575A89"/>
<path opacity="0.1" d="M283.09 151.434L282.582 156.139C282.582 156.139 286.279 159.778 290.593 154.95" fill="black"/>
<path d="M289.311 152.075C289.311 152.075 290.799 155.978 291.878 157.158C292.956 158.338 294.651 166.503 292.392 165.579C290.134 164.655 285.82 157.775 285.562 156.595C285.303 155.415 285.204 152.075 285.204 152.075H289.311Z" fill="#FBBEBE"/>
<path d="M257.013 172.102L276.935 172.872L274.624 164.448L264.589 164.245L257.013 172.102Z" fill="#575A89"/>
<path opacity="0.1" d="M259.782 172.102L279.707 172.872L277.397 164.448L267.359 164.245L259.782 172.102Z" fill="black"/>
<path d="M263.532 186.006C263.061 186.884 263.243 189.922 263.455 192.168C263.591 193.598 263.739 194.698 263.739 194.698C263.739 194.698 256.292 197.009 255.164 195.006C254.878 194.498 254.736 193.607 254.687 192.563C254.533 189.482 255.164 185.042 255.164 185.042C255.164 185.042 254.856 178.214 254.702 177.546C254.64 177.278 254.545 176.427 254.452 175.506C254.317 174.138 254.188 172.616 254.188 172.616L264.355 167.224C264.355 167.224 264.355 168.235 264.337 169.791C264.281 174.677 264.118 184.928 263.532 186.006Z" fill="#FBBEBE"/>
<path opacity="0.1" d="M263.739 194.698C263.739 194.698 256.292 197.009 255.164 195.006C254.878 194.498 254.736 193.608 254.687 192.563C256.227 192.329 260.916 191.682 263.455 192.169C263.591 193.598 263.739 194.698 263.739 194.698Z" fill="black"/>
<path d="M263.994 233.519H263.877C262.98 233.553 257.884 233.519 257.884 233.519C257.809 233.441 257.739 233.359 257.675 233.273C257.224 232.709 256.927 232.039 256.811 231.326C256.695 230.614 256.764 229.884 257.012 229.206C257.936 226.689 258.038 222.067 258.038 222.067C258.038 222.067 258.399 220.887 258.09 220.219C257.782 219.55 257.986 218.524 257.986 218.524C257.938 218.118 257.835 217.721 257.678 217.344C257.422 216.728 257.73 215.597 257.73 215.597C257.695 214.501 257.522 213.414 257.215 212.362C256.753 211.028 253.364 195.16 254.187 193.259C254.187 193.259 261.375 192.027 264.098 192.951L263.738 205.275C263.738 205.275 262.453 208.973 263.532 209.949C264.61 210.926 263.584 213.955 263.584 213.955C263.584 213.955 263.43 214.519 264.354 216.42C265.279 218.321 264.354 219.193 264.354 219.193V222.837C264.354 222.837 263.636 225.302 264.456 227.305C265.275 229.308 264.354 233.455 263.994 233.519Z" fill="#3F3D56"/>
<path d="M278.103 186.006C277.631 186.884 277.813 189.922 278.026 192.168C278.161 193.598 278.309 194.698 278.309 194.698C278.309 194.698 270.862 197.009 269.735 195.006C269.448 194.498 269.306 193.607 269.257 192.563C269.103 189.482 269.735 185.042 269.735 185.042C269.735 185.042 269.426 178.214 269.272 177.546C269.189 177.185 269.044 173.747 268.93 170.663C268.835 168.031 268.758 165.653 268.758 165.653L278.925 167.224C278.925 167.224 278.925 171.695 278.799 176.289C278.688 180.744 278.482 185.31 278.103 186.006Z" fill="#FBBEBE"/>
<path opacity="0.1" d="M278.309 194.698C278.309 194.698 270.862 197.009 269.734 195.006C269.448 194.498 269.306 193.608 269.257 192.563C270.797 192.329 275.487 191.682 278.026 192.169C278.161 193.598 278.309 194.698 278.309 194.698Z" fill="black"/>
<path d="M278.565 233.52H278.447C277.551 233.553 272.455 233.52 272.455 233.52C272.38 233.442 272.31 233.359 272.245 233.273C271.795 232.709 271.497 232.039 271.381 231.326C271.265 230.614 271.335 229.884 271.583 229.206C272.507 226.677 272.6 222.055 272.6 222.055C272.6 222.055 272.96 220.875 272.652 220.206C272.344 219.538 272.547 218.512 272.547 218.512C272.5 218.106 272.396 217.709 272.239 217.332C271.983 216.715 272.291 215.585 272.291 215.585C272.256 214.489 272.083 213.402 271.777 212.35C271.315 211.016 267.926 195.148 268.748 193.247C268.748 193.247 275.936 192.015 278.66 192.939L278.3 205.263C278.3 205.263 277.015 208.96 278.093 209.937C279.171 210.914 278.145 213.943 278.145 213.943C278.145 213.943 277.991 214.506 278.916 216.407C279.84 218.308 278.916 219.18 278.916 219.18V222.825C278.916 222.825 278.198 225.29 279.017 227.293C279.837 229.295 278.925 233.455 278.565 233.52Z" fill="#3F3D56"/>
<path opacity="0.1" d="M268.514 103.915C272.513 103.915 275.754 100.673 275.754 96.6741C275.754 92.6753 272.513 89.4336 268.514 89.4336C264.515 89.4336 261.273 92.6753 261.273 96.6741C261.273 100.673 264.515 103.915 268.514 103.915Z" fill="black"/>
<path d="M268.514 103.606C272.513 103.606 275.754 100.365 275.754 96.366C275.754 92.3672 272.513 89.1255 268.514 89.1255C264.515 89.1255 261.273 92.3672 261.273 96.366C261.273 100.365 264.515 103.606 268.514 103.606Z" fill="#FBBEBE"/>
<path opacity="0.1" d="M254.188 172.616L264.355 167.224C264.355 167.224 264.355 168.235 264.337 169.791C262.851 170.678 260.611 172.012 258.458 173.272C257.287 173.959 256.144 174.625 255.164 175.182C254.937 175.306 254.698 175.409 254.452 175.491C254.317 174.138 254.188 172.616 254.188 172.616Z" fill="black"/>
<path opacity="0.1" d="M278.925 167.212C278.925 167.212 278.925 171.683 278.798 176.276H278.761C278.002 176.303 277.241 176.28 276.484 176.206C275.157 176.064 274.094 175.713 273.712 175.016C272.938 173.661 270.772 171.935 268.942 170.65C268.847 168.019 268.77 165.641 268.77 165.641L278.925 167.212Z" fill="black"/>
<path d="M277.033 128.055C276.776 130.061 276.726 132.087 276.885 134.103C281.556 137.954 280.684 146.067 280.684 146.067C280.684 146.067 284.28 162.501 283.51 163.989C282.739 165.478 285.253 174.619 285.253 174.619C283.111 175.025 280.941 175.274 278.762 175.365C278.002 175.392 277.241 175.368 276.485 175.294C275.157 175.152 274.094 174.801 273.712 174.104C272.276 171.59 266.062 167.841 266.062 167.841C266.062 167.841 262.124 170.201 258.458 172.348C257.287 173.035 256.144 173.701 255.164 174.259C254.369 174.68 253.49 174.921 252.591 174.964C248.231 175.288 242.424 172.558 243.348 171.59C244.479 170.407 250.077 149.662 250.077 149.662C250.077 149.662 252.899 136.824 255.364 135.027C255.796 134.701 256.119 134.251 256.288 133.736C257.133 131.392 255.722 127.633 255.722 127.633C255.722 127.633 247.763 117.826 248.121 117.259C248.478 116.692 248.481 113.666 248.481 113.666C248.481 113.666 249.458 108.891 250.022 106.58C250.585 104.269 254.643 103.702 255.823 103.909C257.003 104.115 259.671 104.833 260.799 103.909C261.927 102.984 263.831 104.269 263.831 104.269L268.508 105.557L272.714 103.092C272.714 103.092 276.928 103.308 277.289 103.872C277.649 104.436 283.195 105.517 283.195 105.517C286.018 107.415 285.916 116.455 285.916 116.455C285.916 116.455 279.138 122.358 277.751 125.39C277.392 126.242 277.15 127.138 277.033 128.055Z" fill="#575A89"/>
<path d="M284.382 115.204L285.922 116.436L287.515 130.763L289.105 145.142C289.105 145.142 289.721 146.581 290.236 146.427C290.75 146.273 290.698 154.949 290.698 154.949C290.698 154.949 284.801 151.323 282.687 156.139L281.042 144.526C281.042 144.526 278.934 132.664 278.987 131.74C279.039 130.815 277.908 120.802 277.908 120.802L284.382 115.204Z" fill="#575A89"/>
<path d="M249.257 115.873L248.126 117.259C248.126 117.259 248.231 123.215 247.356 124.654C246.481 126.092 249.772 134.513 251.004 133.998C252.236 133.484 255.009 120.34 255.009 120.186C255.009 120.032 249.257 115.873 249.257 115.873Z" fill="#575A89"/>
<path d="M249.156 124.345C249.156 124.345 245.56 127.99 245.816 129.737C246.071 131.484 249.513 136.971 254.443 134.023C254.443 134.023 259.015 125.424 249.156 124.345Z" fill="#575A89"/>
<path opacity="0.1" d="M263.877 233.529C262.98 233.563 257.884 233.529 257.884 233.529C257.81 233.451 257.74 233.369 257.675 233.282C258.978 232.839 261.794 232.173 263.877 233.529Z" fill="black"/>
<path opacity="0.1" d="M278.453 233.529C277.557 233.563 272.46 233.529 272.46 233.529C272.386 233.451 272.316 233.369 272.251 233.282C273.548 232.839 276.364 232.173 278.453 233.529Z" fill="black"/>
<path opacity="0.1" d="M258.821 143.214C258.035 150.75 258.294 165.706 258.457 172.348C257.287 173.035 256.143 173.701 255.164 174.259C254.369 174.68 253.49 174.921 252.591 174.964C252.264 172.955 256.787 152.321 258.821 143.214Z" fill="black"/>
<path opacity="0.1" d="M259.783 138.937C259.761 139.045 259.388 140.684 258.821 143.214C259.043 141.054 259.351 139.504 259.783 138.937Z" fill="black"/>
<path opacity="0.1" d="M272.292 138.124C272.292 138.124 276.658 165.545 263.729 168.934C263.726 168.922 272.674 167.563 272.292 138.124Z" fill="black"/>
<path opacity="0.1" d="M278.762 175.365C278.002 175.392 277.241 175.368 276.485 175.294L272.997 137.8C275.222 139.255 277.884 165.863 278.762 175.365Z" fill="black"/>
<path opacity="0.1" d="M263.122 92.108C263.353 92.0896 263.586 92.1136 263.809 92.1788C264.136 92.3418 264.43 92.5632 264.678 92.832C265.079 93.1678 265.56 93.3962 266.074 93.4959C266.588 93.5956 267.119 93.5633 267.617 93.402C267.968 93.245 268.341 93.1411 268.723 93.0939C269.312 93.0939 269.82 93.5253 270.125 94.0182C270.43 94.5112 270.587 95.0966 270.849 95.6235C271.111 96.1503 271.53 96.6495 272.106 96.7789C272.382 96.7896 272.654 96.8523 272.907 96.9637C273.062 97.0897 273.181 97.2545 273.252 97.4413C273.733 98.4796 274.115 99.7059 275.141 100.214C275.518 100.389 275.93 100.479 276.346 100.476C276.769 100.507 277.193 100.431 277.578 100.254C277.957 100.042 278.271 99.7301 278.484 99.3515C279.125 98.2917 279.199 96.9791 279.048 95.7498C278.86 94.199 278.307 92.7146 277.436 91.4178C276.519 90.1063 275.269 89.0618 273.816 88.3911C272.363 87.7205 270.757 87.4476 269.164 87.6004C268.608 87.6629 268.057 87.7659 267.515 87.9085C265.556 88.4323 263.633 89.4121 262.444 91.0543C262.156 91.4642 261.84 91.8534 261.498 92.2189C262.037 92.1665 262.58 92.1203 263.122 92.108Z" fill="black"/>
<path d="M263.122 91.7999C263.353 91.7815 263.586 91.8055 263.809 91.8707C264.136 92.0337 264.43 92.2551 264.678 92.5239C265.079 92.8597 265.56 93.0881 266.074 93.1878C266.588 93.2875 267.119 93.2552 267.617 93.0939C267.968 92.9369 268.341 92.833 268.723 92.7858C269.312 92.7858 269.82 93.2172 270.125 93.7101C270.43 94.2031 270.587 94.7885 270.849 95.3154C271.111 95.8422 271.53 96.3413 272.106 96.4708C272.382 96.4815 272.654 96.5442 272.907 96.6556C273.062 96.7816 273.181 96.9464 273.252 97.1332C273.733 98.1715 274.115 99.3978 275.141 99.9061C275.518 100.081 275.93 100.17 276.346 100.168C276.769 100.199 277.193 100.123 277.578 99.9462C277.957 99.7344 278.271 99.422 278.484 99.0434C279.125 97.9836 279.199 96.671 279.048 95.4417C278.86 93.8909 278.307 92.4065 277.436 91.1097C276.519 89.7982 275.269 88.7537 273.816 88.083C272.363 87.4123 270.757 87.1395 269.164 87.2923C268.608 87.3548 268.057 87.4578 267.515 87.6004C265.556 88.1242 263.633 89.1039 262.444 90.7462C262.156 91.1561 261.84 91.5452 261.498 91.9108C262.037 91.8584 262.58 91.8122 263.122 91.7999Z" fill="#3F3D56"/>
<path opacity="0.1" d="M255.266 109.042C255.266 109.042 255.626 111.919 254.394 112.637C253.162 113.355 255.266 109.042 255.266 109.042Z" fill="black"/>
<path opacity="0.1" d="M281.402 131.33C281.402 131.33 284.329 127.016 284.742 128.249C285.155 129.481 281.402 131.33 281.402 131.33Z" fill="black"/>
<path opacity="0.1" d="M281.608 132.766C281.608 132.766 284.495 129.222 284.773 130.609C285.05 131.995 281.608 132.766 281.608 132.766Z" fill="black"/>
<path opacity="0.1" d="M273.129 128.548C272.082 128.563 271.061 128.227 270.227 127.593H269.974C269.11 128.383 267.975 128.81 266.804 128.785C266.195 128.799 265.59 128.69 265.025 128.463C264.46 128.236 263.947 127.897 263.516 127.467H263.181C262.294 128.189 261.179 128.574 260.036 128.553C258.892 128.532 257.792 128.107 256.932 127.353L255.728 127.331C255.728 127.331 257.139 131.09 256.294 133.435L276.885 133.801C276.726 131.786 276.775 129.759 277.033 127.753V127.725L275.902 127.704C275.089 128.268 274.119 128.563 273.129 128.548Z" fill="black"/>
<path opacity="0.1" d="M273.129 129.164C272.082 129.179 271.061 128.843 270.227 128.209H269.974C269.11 128.999 267.975 129.426 266.804 129.402C266.195 129.416 265.59 129.306 265.025 129.079C264.46 128.853 263.947 128.514 263.516 128.083H263.181C262.294 128.805 261.179 129.19 260.036 129.169C258.892 129.148 257.792 128.723 256.932 127.969L255.728 127.947C255.728 127.947 257.139 131.706 256.294 134.051L276.885 134.417C276.726 132.402 276.775 130.375 277.033 128.369V128.342L275.902 128.32C275.089 128.884 274.119 129.179 273.129 129.164Z" fill="black"/>
<path d="M273.129 128.856C272.082 128.871 271.061 128.535 270.227 127.901H269.974C269.11 128.691 267.975 129.118 266.804 129.093C266.195 129.108 265.59 128.998 265.025 128.771C264.46 128.545 263.947 128.206 263.516 127.775H263.181C262.294 128.497 261.179 128.882 260.036 128.861C258.892 128.84 257.792 128.415 256.932 127.661L255.728 127.639C255.728 127.639 257.139 131.398 256.294 133.743L276.885 134.109C276.726 132.094 276.775 130.067 277.033 128.061V128.034L275.902 128.012C275.089 128.576 274.119 128.871 273.129 128.856Z" fill="#3F3D56"/>
<path opacity="0.1" d="M272.214 108.312C272.214 108.312 276.549 108.589 276.577 109.205C276.604 109.821 272.214 108.312 272.214 108.312Z" fill="black"/>
<path opacity="0.1" d="M261.683 105.683C261.683 105.683 257.348 105.96 257.32 106.577C257.293 107.193 261.683 105.683 261.683 105.683Z" fill="black"/>
<path opacity="0.1" d="M278.25 118.282C278.207 118.251 278.164 118.226 278.121 118.199C279.23 119.197 279.045 121.378 277.683 123.178C276.322 124.977 274.254 125.726 272.997 124.919C273.037 124.952 273.071 124.989 273.114 125.023C274.347 125.966 276.503 125.227 277.927 123.366C279.35 121.505 279.489 119.228 278.25 118.282Z" fill="black"/>
<path opacity="0.1" d="M254.437 122.946C253.34 120.968 253.482 118.784 254.724 117.955C254.677 117.977 254.628 117.995 254.582 118.02C253.22 118.778 253.041 121.048 254.169 123.094C255.297 125.14 257.33 126.175 258.692 125.43C258.737 125.404 258.78 125.375 258.821 125.343C257.463 125.96 255.534 124.924 254.437 122.946Z" fill="black"/>
<path opacity="0.1" d="M255.903 106.265L255.506 106.882L254.492 106.343L255.025 105.523C255.378 105.69 255.68 105.946 255.903 106.265Z" fill="black"/>
<path d="M249.463 129.068C249.463 129.068 250.366 124.823 249.155 123.473C247.944 122.124 248.333 115.05 250.181 115.204C252.03 115.358 254.803 120.953 254.341 122.136C253.879 123.319 252.132 129.377 252.132 129.377L249.463 129.068Z" fill="#FBBEBE"/>
<path opacity="0.1" d="M278.454 98.4369C278.241 98.8154 277.927 99.1278 277.548 99.3396C277.162 99.5162 276.738 99.5925 276.315 99.5615C275.899 99.5639 275.488 99.4745 275.111 99.2996C274.085 98.7881 273.703 97.5618 273.222 96.5266C273.161 96.3399 273.053 96.1721 272.908 96.0398C272.658 95.9263 272.39 95.8605 272.116 95.8457C271.54 95.7163 271.124 95.2141 270.859 94.6903C270.594 94.1665 270.437 93.5873 270.135 93.0851C269.833 92.5829 269.321 92.1423 268.733 92.1608C268.35 92.2115 267.977 92.3206 267.627 92.4843C267.128 92.6443 266.597 92.6756 266.083 92.5754C265.57 92.4752 265.089 92.2467 264.687 91.9112C264.44 91.6423 264.146 91.421 263.819 91.258C263.596 91.1928 263.363 91.1688 263.132 91.1871C262.777 91.1871 262.426 91.221 262.072 91.2488C261.896 91.4789 261.708 91.699 261.508 91.9081C262.047 91.8619 262.589 91.8157 263.132 91.8034C263.363 91.785 263.596 91.809 263.819 91.8742C264.146 92.0372 264.44 92.2586 264.687 92.5274C265.089 92.8629 265.57 93.0914 266.083 93.1916C266.597 93.2918 267.128 93.2605 267.627 93.1005C267.977 92.9368 268.35 92.8277 268.733 92.777C269.321 92.777 269.83 93.2083 270.135 93.7013C270.44 94.1943 270.597 94.7797 270.859 95.3065C271.121 95.8334 271.54 96.3325 272.116 96.4619C272.39 96.4767 272.658 96.5425 272.908 96.656C273.063 96.782 273.182 96.9468 273.253 97.1336C273.733 98.1719 274.115 99.3982 275.141 99.9065C275.519 100.081 275.93 100.171 276.346 100.168C276.769 100.199 277.193 100.123 277.579 99.9466C277.958 99.7348 278.271 99.4224 278.484 99.0438C278.963 98.1729 279.177 97.1815 279.101 96.1908C279.077 96.982 278.855 97.7545 278.454 98.4369Z" fill="black"/>
<path d="M250.829 132.436C252.36 132.436 253.602 131.595 253.602 130.557C253.602 129.519 252.36 128.677 250.829 128.677C249.297 128.677 248.056 129.519 248.056 130.557C248.056 131.595 249.297 132.436 250.829 132.436Z" fill="#575A89"/>
<path d="M160.443 235.174C212.938 235.174 255.494 192.618 255.494 140.123C255.494 87.6284 212.938 45.0728 160.443 45.0728C107.948 45.0728 65.3926 87.6284 65.3926 140.123C65.3926 192.618 107.948 235.174 160.443 235.174Z" fill="#22BB9C"/>
<path d="M210.315 187.889C210.315 202.894 186.727 189.171 161.438 189.171C136.148 189.171 110.569 202.327 110.569 187.322C110.569 178.766 118.722 166.867 130.418 158.224C139.229 151.711 150.05 147.046 160.92 147.046C172.098 147.046 183.048 152.096 191.783 159.029C202.807 167.77 210.315 179.515 210.315 187.889Z" fill="#444053"/>
<path d="M191.78 159.023C178.338 156.998 154.025 154.531 130.418 158.219C139.23 151.705 150.05 147.041 160.92 147.041C172.095 147.041 183.045 152.09 191.78 159.023Z" fill="#F6F8FB"/>
<path opacity="0.05" d="M110.569 73.0273C110.569 73.0273 81.9372 91.3319 82.1714 119.964C82.4055 148.596 110.569 73.0273 110.569 73.0273Z" fill="black"/>
<path d="M255.456 21.33C255.456 21.33 229.514 19.7679 232.573 37.9461C232.573 37.9461 231.957 41.1566 234.878 42.617C234.878 42.617 234.924 41.2706 237.537 41.7266C238.468 41.8824 239.414 41.9279 240.356 41.8621C241.628 41.7756 242.838 41.2758 243.8 40.4387C243.8 40.4387 251.093 37.4285 253.931 25.5079C253.931 25.5079 256.029 22.9075 255.946 22.242L251.568 24.1091C251.568 24.1091 253.062 27.2672 251.876 29.8922C251.876 29.8922 251.734 24.2262 250.893 24.3463C250.724 24.3741 248.619 25.4401 248.619 25.4401C248.619 25.4401 251.192 30.9429 249.235 34.939C249.235 34.939 249.972 28.1607 247.8 25.8376L244.719 27.6369C244.719 27.6369 247.726 33.3184 245.686 37.9554C245.686 37.9554 246.21 30.8443 244.072 28.0744L241.277 30.2527C241.277 30.2527 244.102 35.8541 242.38 39.6992C242.38 39.6992 242.155 31.4204 240.673 30.795C240.673 30.795 238.23 32.9517 237.857 33.836C237.857 33.836 239.792 37.8999 238.593 40.0443C238.593 40.0443 237.857 34.5292 237.253 34.4984C237.253 34.4984 234.819 38.1526 234.563 40.6605C234.563 40.6605 234.671 36.9325 236.662 34.1503C236.662 34.1503 234.308 34.5539 232.937 36.0821C232.937 36.0821 233.316 33.4971 237.25 33.2722C237.25 33.2722 239.262 30.4992 239.801 30.3328C239.801 30.3328 235.873 30.0032 233.491 31.06C233.491 31.06 235.586 28.6228 240.519 29.7289L243.292 27.4798C243.292 27.4798 238.122 26.7711 235.928 27.5537C235.928 27.5537 238.452 25.397 244.035 26.9683L247.039 25.1721C247.039 25.1721 242.63 24.2231 240.001 24.5559C240.001 24.5559 242.774 23.0615 247.917 24.6822L250.073 23.7178C250.073 23.7178 246.841 23.0831 245.896 22.9845C244.95 22.8859 244.9 22.6209 244.9 22.6209C246.953 22.2872 249.058 22.5315 250.979 23.3265C250.979 23.3265 255.533 21.6165 255.456 21.33Z" fill="#22BB9C"/>
<path d="M228.849 13.2487C228.849 13.2487 217.141 12.5401 218.509 20.7542C218.509 20.7542 218.234 22.2054 219.55 22.8647C219.55 22.8647 219.569 22.2485 220.752 22.4642C221.172 22.5334 221.599 22.554 222.024 22.5258C222.6 22.4847 223.146 22.2589 223.583 21.8819C223.583 21.8819 226.877 20.52 228.159 15.1344C228.159 15.1344 229.107 13.9605 229.083 13.6585L227.105 14.5027C227.105 14.5027 227.783 15.9293 227.25 17.1155C227.25 17.1155 227.185 14.5551 226.806 14.6167C226.729 14.6167 225.777 15.1097 225.777 15.1097C225.777 15.1097 226.941 17.5961 226.063 19.4016C226.063 19.4016 226.396 16.339 225.416 15.2884L224.024 16.1018C224.024 16.1018 225.382 18.6714 224.461 20.7665C224.461 20.7665 224.695 17.553 223.731 16.3021L222.468 17.2849C222.468 17.2849 223.743 19.8145 222.967 21.5522C222.967 21.5522 222.865 17.8118 222.194 17.5283C222.194 17.5283 221.091 18.5019 220.921 18.9025C220.921 18.9025 221.796 20.7511 221.254 21.7093C221.254 21.7093 220.921 19.2167 220.638 19.2075C220.638 19.2075 219.538 20.8559 219.424 21.9805C219.477 20.9339 219.803 19.9195 220.37 19.038C219.736 19.158 219.151 19.4611 218.687 19.91C218.687 19.91 218.857 18.7423 220.641 18.6406C220.641 18.6406 221.55 17.3897 221.793 17.3127C221.793 17.3127 220.018 17.1648 218.943 17.6423C218.943 17.6423 219.889 16.5393 222.12 17.0261L223.352 16.0125C223.352 16.0125 221.017 15.7043 220.025 16.0433C220.025 16.0433 221.165 15.0696 223.688 15.7814L225.044 14.968C225.044 14.968 223.053 14.5397 221.864 14.6938C221.864 14.6938 223.118 14.019 225.441 14.7523L226.412 14.3148C226.412 14.3148 224.951 14.0283 224.526 13.9851C224.101 13.942 224.073 13.8218 224.073 13.8218C224.998 13.668 225.947 13.7746 226.815 14.1299C226.815 14.1299 228.883 13.3781 228.849 13.2487Z" fill="#22BB9C"/>
<path opacity="0.1" d="M331.164 224.92C335.747 224.92 339.462 224.292 339.462 223.518C339.462 222.744 335.747 222.116 331.164 222.116C326.582 222.116 322.867 222.744 322.867 223.518C322.867 224.292 326.582 224.92 331.164 224.92Z" fill="#22BB9C"/>
<path opacity="0.1" d="M14.9496 248.241C19.5321 248.241 23.2469 247.613 23.2469 246.839C23.2469 246.065 19.5321 245.437 14.9496 245.437C10.3672 245.437 6.65234 246.065 6.65234 246.839C6.65234 247.613 10.3672 248.241 14.9496 248.241Z" fill="#22BB9C"/>
<path opacity="0.1" d="M63.1156 250C67.6981 250 71.4129 249.372 71.4129 248.598C71.4129 247.824 67.6981 247.196 63.1156 247.196C58.5332 247.196 54.8184 247.824 54.8184 248.598C54.8184 249.372 58.5332 250 63.1156 250Z" fill="#22BB9C"/>
<path d="M313.004 240.637C319.846 240.637 325.393 239.699 325.393 238.541C325.393 237.384 319.846 236.446 313.004 236.446C306.162 236.446 300.615 237.384 300.615 238.541C300.615 239.699 306.162 240.637 313.004 240.637Z" fill="#22BB9C"/>
<path d="M318.126 235.119C318.691 234.657 319.104 234.035 319.309 233.335C319.46 232.629 319.158 231.779 318.483 231.52C317.725 231.23 316.915 231.757 316.302 232.287C315.688 232.817 314.983 233.421 314.179 233.31C314.592 232.936 314.902 232.46 315.077 231.93C315.252 231.401 315.286 230.835 315.177 230.287C315.142 230.061 315.046 229.848 314.9 229.671C314.478 229.221 313.717 229.412 313.211 229.767C311.609 230.894 311.162 233.07 311.153 235.029C310.993 234.324 311.129 233.587 311.125 232.872C311.122 232.158 310.922 231.332 310.312 230.953C309.933 230.751 309.509 230.651 309.08 230.663C308.359 230.636 307.558 230.706 307.065 231.233C306.448 231.89 306.612 232.986 307.145 233.698C307.678 234.41 308.485 234.872 309.228 235.368C309.825 235.723 310.335 236.209 310.719 236.789C310.764 236.87 310.801 236.956 310.83 237.044H315.343C316.353 236.531 317.289 235.883 318.126 235.119Z" fill="#22BB9C"/>
<path d="M18.8219 209.284C18.8219 209.284 20.5134 211.496 18.0393 214.83C15.5652 218.163 13.5256 220.992 14.342 223.075C14.342 223.075 18.0732 216.869 21.1204 216.78C24.1675 216.691 22.1618 213.015 18.8219 209.284Z" fill="#22BB9C"/>
<path opacity="0.1" d="M18.8218 209.284C18.9687 209.497 19.0849 209.731 19.1669 209.977C22.1309 213.459 23.7084 216.709 20.8615 216.789C18.2056 216.866 15.0075 221.611 14.2588 222.81C14.285 222.902 14.3158 222.994 14.3512 223.084C14.3512 223.084 18.0824 216.878 21.1295 216.789C24.1767 216.7 22.1617 213.015 18.8218 209.284Z" fill="black"/>
<path d="M21.9675 212.103C21.9675 212.883 21.8781 213.514 21.7703 213.514C21.6624 213.514 21.5762 212.898 21.5762 212.103C21.5762 211.308 21.684 211.69 21.7949 211.69C21.9058 211.69 21.9675 211.324 21.9675 212.103Z" fill="#FFD037"/>
<path d="M23.0339 213.034C22.3499 213.406 21.7553 213.631 21.7029 213.536C21.6505 213.44 22.165 213.064 22.849 212.692C23.533 212.319 23.2619 212.59 23.3143 212.692C23.3667 212.793 23.7302 212.661 23.0339 213.034Z" fill="#FFD037"/>
<path d="M9.88043 209.284C9.88043 209.284 8.18893 211.496 10.6599 214.83C13.1309 218.163 15.1737 220.992 14.3572 223.075C14.3572 223.075 10.623 216.869 7.57888 216.78C4.5348 216.691 6.53748 213.015 9.88043 209.284Z" fill="#22BB9C"/>
<path opacity="0.1" d="M9.88099 209.284C9.73275 209.497 9.61649 209.73 9.53591 209.977C6.57194 213.459 4.99135 216.709 7.84133 216.789C10.4941 216.866 13.6953 221.611 14.441 222.81C14.4158 222.902 14.386 222.994 14.3516 223.084C14.3516 223.084 10.6174 216.878 7.57328 216.789C4.52919 216.7 6.53804 213.015 9.88099 209.284Z" fill="black"/>
<path d="M6.73535 212.103C6.73535 212.883 6.82162 213.514 6.92946 213.514C7.0373 213.514 7.12357 212.898 7.12357 212.103C7.12357 211.308 7.01573 211.69 6.90789 211.69C6.80006 211.69 6.73535 211.324 6.73535 212.103Z" fill="#FFD037"/>
<path d="M5.65368 213.034C6.33768 213.406 6.9354 213.631 6.98778 213.536C7.04016 213.44 6.52562 213.064 5.84163 212.692C5.15763 212.319 5.42569 212.59 5.37639 212.692C5.32709 212.793 4.96969 212.661 5.65368 213.034Z" fill="#FFD037"/>
<path d="M7.27441 222.794C7.27441 222.794 12.0069 222.65 13.4365 221.633C14.8661 220.616 20.7171 219.405 21.0714 221.017C21.4257 222.628 28.1825 229.12 22.8399 229.163C17.4974 229.206 10.4263 228.328 9.00289 227.462C7.57944 226.596 7.27441 222.794 7.27441 222.794Z" fill="#A8A8A8"/>
<path opacity="0.2" d="M22.9293 228.611C17.5867 228.654 10.5157 227.776 9.09224 226.911C8.00771 226.251 7.57636 223.882 7.43155 222.788H7.27441C7.27441 222.788 7.58252 226.606 8.99673 227.471C10.4109 228.337 17.4912 229.215 22.8337 229.172C24.3743 229.172 24.9073 228.608 24.8796 227.798C24.6639 228.294 24.0785 228.602 22.9293 228.611Z" fill="black"/>
<path d="M126.65 127.661C128.458 127.559 136.971 126.918 142.378 123.834C143.247 123.323 144.228 123.034 145.235 122.993C146.954 122.944 148.932 123.661 147.666 127.679C145.614 134.251 133.699 141.646 126.305 141.236C119.194 140.841 110.758 137.976 105.187 127.901C104.653 126.932 104.39 125.836 104.426 124.731C104.491 122.697 105.23 120.149 109.048 122.99C114.205 126.826 123.991 127.553 125.953 127.661C126.185 127.673 126.418 127.673 126.65 127.661Z" fill="#444053"/>
<path d="M195.049 127.661C196.858 127.559 205.371 126.918 210.778 123.834C211.646 123.323 212.627 123.034 213.634 122.993C215.353 122.944 217.331 123.661 216.065 127.679C214.013 134.251 202.099 141.646 194.704 141.236C187.593 140.841 179.157 137.976 173.586 127.901C173.053 126.932 172.79 125.836 172.825 124.731C172.89 122.697 173.63 120.149 177.447 122.99C182.605 126.826 192.39 127.553 194.353 127.661C194.585 127.673 194.817 127.673 195.049 127.661Z" fill="#444053"/>
</g>
<defs>
<linearGradient id="paint0_linear_929_28387" x1="275.413" y1="233.541" x2="275.413" y2="81.3243" gradientUnits="userSpaceOnUse">
<stop stop-color="#808080" stop-opacity="0.25"/>
<stop offset="0.54" stop-color="#808080" stop-opacity="0.12"/>
<stop offset="1" stop-color="#808080" stop-opacity="0.1"/>
</linearGradient>
<clipPath id="clip0_929_28387">
<rect width="338.922" height="250" fill="white" transform="translate(0.539062)"/>
</clipPath>
</defs>
</svg>
