<svg width="365" height="230" viewBox="0 0 365 230" fill="none" xmlns="http://www.w3.org/2000/svg">
<path d="M324.741 219.278C325.215 222.993 326.959 226.393 328.819 229.667C328.88 229.779 328.944 229.888 329.008 230H348.342C348.733 229.898 349.119 229.787 349.503 229.667C351.687 229.002 353.749 227.988 355.608 226.664C362.721 221.539 365.458 211.856 364.222 203.179C363.453 197.788 361.087 192.284 356.48 189.381C353.978 187.857 350.993 187.334 348.122 187.917C348.049 187.93 347.976 187.947 347.901 187.962C346.706 188.193 345.574 188.674 344.578 189.374C343.582 190.074 342.746 190.977 342.124 192.023C339.928 195.925 341.236 200.758 342.316 205.101C343.392 209.443 343.976 214.641 340.852 217.844C341.31 216.504 341.403 215.067 341.121 213.68C340.84 212.293 340.194 211.005 339.25 209.95C338.306 208.895 337.098 208.111 335.751 207.677C334.403 207.244 332.964 207.177 331.582 207.483C331.356 207.532 331.133 207.586 330.914 207.653C330.383 207.808 329.871 208.023 329.388 208.292C325.702 210.35 324.21 215.09 324.741 219.278Z" fill="#35383F"/>
<path d="M336.204 229.667C335.668 229.792 335.131 229.902 334.59 230H337.513C337.896 229.897 338.277 229.787 338.655 229.667C339.485 229.408 340.302 229.11 341.107 228.774C344.371 227.449 347.269 225.359 349.558 222.681C350.658 221.37 351.556 219.902 352.223 218.326C352.946 216.545 353.406 214.668 353.587 212.754C353.919 208.798 353.654 204.814 352.802 200.936C352 196.939 350.706 193.056 348.949 189.378C348.737 188.937 348.519 188.499 348.293 188.063C348.278 188.027 348.254 187.996 348.224 187.97C348.195 187.945 348.16 187.927 348.122 187.917C348.045 187.902 347.965 187.918 347.9 187.962C347.823 188.006 347.765 188.079 347.739 188.165C347.713 188.251 347.722 188.344 347.762 188.424C349.574 191.958 350.948 195.699 351.852 199.565C352.784 203.357 353.193 207.259 353.068 211.162C353.002 214.792 351.869 218.322 349.811 221.313C347.809 224.007 345.176 226.167 342.144 227.604C340.247 228.511 338.255 229.204 336.204 229.667Z" fill="#1F222A"/>
<path d="M329.789 230H330.651C330.747 229.89 330.841 229.779 330.932 229.667C332.895 227.282 334.225 224.44 334.799 221.405C335.496 217.616 334.954 213.705 333.253 210.249C332.779 209.28 332.22 208.354 331.583 207.483C331.356 207.532 331.133 207.587 330.914 207.653C332.59 209.873 333.717 212.458 334.203 215.197C334.637 217.763 334.493 220.394 333.781 222.897C333.069 225.401 331.807 227.714 330.087 229.667C329.99 229.779 329.891 229.89 329.789 230Z" fill="#1F222A"/>
<path d="M3.55326 219.278C4.02747 222.993 5.77115 226.393 7.63133 229.667C7.69283 229.779 7.75612 229.888 7.82095 230H27.1546C27.5456 229.898 27.9316 229.787 28.316 229.667C30.4997 229.002 32.5612 227.988 34.4205 226.664C41.5334 221.539 44.2704 211.856 43.0341 203.179C42.2654 197.788 39.8995 192.284 35.2924 189.381C32.7906 187.857 29.8058 187.334 26.935 187.917C26.8617 187.93 26.7885 187.947 26.7137 187.962C25.5188 188.193 24.3862 188.674 23.3905 189.374C22.3949 190.074 21.5587 190.977 20.9369 192.023C18.7407 195.925 20.0484 200.758 21.1282 205.101C22.2047 209.443 22.7888 214.641 19.6641 217.844C20.1221 216.504 20.215 215.067 19.9335 213.68C19.652 212.293 19.0061 211.005 18.0623 209.95C17.1184 208.895 15.9107 208.111 14.5631 207.677C13.2156 207.244 11.7769 207.177 10.3949 207.483C10.1687 207.532 9.94565 207.586 9.72602 207.653C9.19523 207.808 8.68348 208.023 8.20031 208.292C4.515 210.35 3.02251 215.09 3.55326 219.278Z" fill="#35383F"/>
<path d="M15.0162 229.667C14.4805 229.792 13.9431 229.902 13.4023 230H16.3256C16.7084 229.897 17.0894 229.787 17.467 229.667C18.2973 229.408 19.1148 229.11 19.9195 228.774C23.1835 227.449 26.0816 225.359 28.3701 222.681C29.4702 221.37 30.3687 219.902 31.0356 218.326C31.7588 216.545 32.2183 214.668 32.3998 212.754C32.7316 208.798 32.4668 204.814 31.6145 200.936C30.8127 196.939 29.5183 193.056 27.7611 189.378C27.5498 188.937 27.3313 188.499 27.1055 188.063C27.09 188.027 27.0665 187.996 27.0368 187.97C27.0071 187.945 26.9721 187.927 26.9342 187.917C26.8574 187.902 26.7779 187.918 26.7129 187.962C26.635 188.006 26.5772 188.079 26.5515 188.165C26.5258 188.251 26.5342 188.344 26.5748 188.424C28.3866 191.958 29.76 195.699 30.6645 199.565C31.5961 203.357 32.0053 207.259 31.8808 211.162C31.8143 214.792 30.6813 218.322 28.623 221.313C26.6214 224.007 23.9885 226.167 20.9561 227.604C19.0594 228.511 17.067 229.204 15.0162 229.667Z" fill="#1F222A"/>
<path d="M8.60156 230H9.46344C9.55996 229.89 9.65313 229.779 9.7446 229.667C11.7077 227.282 13.0377 224.44 13.6114 221.405C14.3081 217.616 13.7661 213.705 12.0657 210.249C11.5913 209.28 11.0323 208.354 10.3952 207.483C10.1689 207.532 9.94591 207.587 9.72629 207.653C11.402 209.873 12.5291 212.458 13.0157 215.197C13.4497 217.763 13.3054 220.394 12.5933 222.897C11.8811 225.401 10.6191 227.714 8.89935 229.667C8.80295 229.779 8.70311 229.89 8.60156 230Z" fill="#1F222A"/>
<path d="M274.513 140.479C260.844 140.479 249.705 150.415 249.164 162.859H299.862C299.322 150.415 288.182 140.479 274.513 140.479Z" fill="#3F3D56"/>
<path d="M150.477 133.972H89.9671L89.3256 115.367C89.2978 114.561 89.4452 113.758 89.7574 113.014C90.0697 112.27 90.5395 111.602 91.1345 111.057C91.7295 110.512 92.4356 110.102 93.2041 109.856C93.9726 109.61 94.7853 109.533 95.5863 109.631L130.799 113.943H130.803C136.023 113.957 141.025 116.04 144.713 119.735C148.401 123.43 150.473 128.436 150.477 133.657V133.972Z" fill="#22BB9C"/>
<path d="M233.693 92.8809L212.889 102.337L215.62 112.62C220.895 132.477 222.294 153.165 219.743 173.551L234.954 176.728L247.562 144.576L243.149 108.011L233.693 92.8809Z" fill="#22BB9C"/>
<path d="M123.507 67.9788H81.3049C80.7436 67.9786 80.1879 68.0891 79.6693 68.3038C79.1507 68.5185 78.6795 68.8333 78.2826 69.2302C77.8858 69.627 77.571 70.0982 77.3563 70.6168C77.1415 71.1354 77.0311 71.6912 77.0313 72.2524V114.455C77.0311 115.016 77.1415 115.572 77.3563 116.09C77.571 116.609 77.8858 117.08 78.2826 117.477C78.6795 117.874 79.1507 118.189 79.6693 118.404C80.1879 118.618 80.7436 118.729 81.3049 118.729H123.507C124.069 118.729 124.624 118.618 125.143 118.404C125.662 118.189 126.133 117.874 126.53 117.477C126.927 117.08 127.241 116.609 127.456 116.091C127.671 115.572 127.781 115.016 127.781 114.455V72.2524C127.781 71.6912 127.671 71.1354 127.456 70.6168C127.241 70.0982 126.927 69.627 126.53 69.2301C126.133 68.8333 125.662 68.5185 125.143 68.3038C124.624 68.0891 124.069 67.9786 123.507 67.9788Z" fill="#757575"/>
<path d="M114.004 99.5362L94.0782 103.416C92.8963 103.645 91.6719 103.396 90.6736 102.723C89.6753 102.05 88.9847 101.009 88.7532 99.8273L87.2215 91.9619C86.9927 90.78 87.2421 89.5556 87.915 88.5573C88.5878 87.559 89.6292 86.8684 90.8106 86.6369L110.736 82.7567C111.918 82.5279 113.143 82.7773 114.141 83.4502C115.139 84.123 115.83 85.1644 116.061 86.3458L117.593 94.2112C117.822 95.3931 117.572 96.6175 116.899 97.6158C116.227 98.6141 115.185 99.3047 114.004 99.5362Z" fill="#3F3D56"/>
<path d="M110.016 90.2441L94.8098 93.2053C94.5316 93.2595 94.2434 93.201 94.0084 93.0426C93.7734 92.8842 93.611 92.639 93.5568 92.3609C93.5026 92.0827 93.5612 91.7944 93.7196 91.5595C93.878 91.3245 94.1232 91.1621 94.4013 91.1079L109.608 88.1467C109.886 88.0925 110.174 88.151 110.409 88.3094C110.644 88.4678 110.806 88.713 110.861 88.9912C110.915 89.2693 110.856 89.5576 110.698 89.7925C110.54 90.0275 110.294 90.1899 110.016 90.2441Z" fill="#1F222A"/>
<path d="M107.062 94.6296L99.1965 96.1613C98.9183 96.2154 98.6301 96.1569 98.3951 95.9985C98.1601 95.8401 97.9977 95.5949 97.9435 95.3168C97.8894 95.0386 97.9479 94.7504 98.1063 94.5154C98.2647 94.2804 98.5099 94.118 98.788 94.0638L106.653 92.5322C106.791 92.5053 106.933 92.5059 107.07 92.5338C107.208 92.5618 107.338 92.6165 107.455 92.6949C107.571 92.7733 107.671 92.8739 107.748 92.9909C107.826 93.1078 107.88 93.2389 107.906 93.3766C107.933 93.5144 107.933 93.656 107.905 93.7935C107.877 93.931 107.822 94.0617 107.744 94.178C107.665 94.2944 107.565 94.3941 107.448 94.4716C107.331 94.5491 107.2 94.6028 107.062 94.6296Z" fill="#1F222A"/>
<path d="M263.873 142.623C263.161 86.4524 231.171 91.6199 231.171 91.6199C231.171 91.6199 231.769 109.104 232.057 109.648C252.442 148.217 218.799 193.434 175.974 185.116C175.166 184.959 174.391 184.8 173.647 184.639C168.22 183.506 163.429 180.348 160.248 175.809C157.067 171.269 155.735 165.688 156.522 160.201C160.741 126.325 139.758 126.924 139.758 126.924H109.078L93.1444 112.584C92.582 112.078 91.9041 111.718 91.1701 111.534C90.4361 111.35 89.6683 111.349 88.9338 111.531C88.1993 111.713 87.5205 112.071 86.9567 112.576C86.393 113.081 85.9614 113.716 85.6998 114.426L83.65 119.989C83.65 119.989 53.3893 123.142 55.911 152.772H65.2665C65.2439 153.614 65.2777 154.456 65.3675 155.294L135.188 154.726C139.281 154.693 142.894 158.009 142.911 162.102C142.915 163.098 142.718 164.085 142.332 165.004C141.946 165.922 141.378 166.754 140.664 167.448C139.949 168.142 139.101 168.685 138.172 169.044C137.243 169.403 136.25 169.571 135.254 169.538L123.998 169.163C120.53 184.609 129.041 195.011 138.419 201.551C147.248 207.62 157.725 210.838 168.438 210.772H199.019C238.736 210.772 245.671 177.359 245.671 177.359C266.475 168.533 263.873 142.623 263.873 142.623Z" fill="#3F3D56"/>
<path d="M272.624 229.054C292.209 229.054 308.086 213.177 308.086 193.592C308.086 174.007 292.209 158.131 272.624 158.131C253.039 158.131 237.162 174.007 237.162 193.592C237.162 213.177 253.039 229.054 272.624 229.054Z" fill="#3F3D56"/>
<path d="M272.623 202.284C277.423 202.284 281.315 198.393 281.315 193.592C281.315 188.792 277.423 184.901 272.623 184.901C267.823 184.901 263.932 188.792 263.932 193.592C263.932 198.393 267.823 202.284 272.623 202.284Z" fill="#1F222A"/>
<path d="M93.5802 229.054C116.125 229.054 134.401 210.778 134.401 188.234C134.401 165.689 116.125 147.413 93.5802 147.413C71.0357 147.413 52.7598 165.689 52.7598 188.234C52.7598 210.778 71.0357 229.054 93.5802 229.054Z" fill="#3F3D56"/>
<path d="M363.4 229.425C363.399 229.577 363.353 229.723 363.271 229.831C363.189 229.939 363.078 229.999 362.961 230H0.438359C0.322099 230 0.2106 229.939 0.128392 229.831C0.0461838 229.724 0 229.577 0 229.425C0 229.272 0.0461838 229.126 0.128392 229.018C0.2106 228.91 0.322099 228.85 0.438359 228.85H362.961C363.078 228.85 363.189 228.911 363.271 229.019C363.353 229.127 363.399 229.272 363.4 229.425Z" fill="#3F3D56"/>
<path d="M93.5792 198.239C99.1048 198.239 103.584 193.759 103.584 188.234C103.584 182.708 99.1048 178.229 93.5792 178.229C88.0536 178.229 83.5742 182.708 83.5742 188.234C83.5742 193.759 88.0536 198.239 93.5792 198.239Z" fill="#1F222A"/>
<path d="M177.939 184.089H185.668L189.345 164.043L177.938 164.044L177.939 184.089Z" fill="#FFB8B8"/>
<path d="M175.969 181.566L191.19 181.565H191.19C192.464 181.565 193.726 181.816 194.902 182.304C196.079 182.791 197.149 183.506 198.049 184.406C198.95 185.307 199.665 186.376 200.152 187.553C200.64 188.73 200.891 189.992 200.891 191.265V191.581L175.969 191.582L175.969 181.566Z" fill="#2F2E41"/>
<path d="M61.2714 156.87C66.1458 156.87 70.0974 152.071 70.0974 146.152C70.0974 140.233 66.1458 135.435 61.2714 135.435C56.3969 135.435 52.4453 140.233 52.4453 146.152C52.4453 152.071 56.3969 156.87 61.2714 156.87Z" fill="#22BB9C"/>
<path d="M127.781 72.2524V77.8616H77.0313V72.2524C77.0311 71.6912 77.1415 71.1354 77.3563 70.6168C77.571 70.0982 77.8858 69.627 78.2826 69.2302C78.6795 68.8333 79.1507 68.5185 79.6693 68.3038C80.1879 68.0891 80.7436 67.9786 81.3049 67.9788H123.507C124.069 67.9786 124.624 68.0891 125.143 68.3038C125.662 68.5185 126.133 68.8333 126.53 69.2302C126.926 69.627 127.241 70.0982 127.456 70.6168C127.671 71.1354 127.781 71.6912 127.781 72.2524Z" fill="#616161"/>
<path d="M229.124 79.6182C228.831 78.6724 228.334 77.8024 227.669 77.0694C227.003 76.3364 226.185 75.7583 225.272 75.3757C224.358 74.9932 223.372 74.8155 222.383 74.8552C221.394 74.8949 220.425 75.1511 219.546 75.6056L161.485 54.7744L158.928 69.2789L216.804 85.1944C217.665 86.6215 219.02 87.6829 220.612 88.1776C222.204 88.6724 223.922 88.566 225.441 87.8786C226.959 87.1913 228.173 85.9707 228.852 84.4483C229.531 82.9258 229.627 81.2072 229.124 79.6182Z" fill="#FFB8B8"/>
<path opacity="0.2" d="M229.124 79.6182C228.831 78.6724 228.334 77.8024 227.669 77.0694C227.003 76.3364 226.185 75.7583 225.272 75.3757C224.358 74.9932 223.372 74.8155 222.383 74.8552C221.394 74.8949 220.425 75.1511 219.546 75.6056L161.485 54.7744L158.928 69.2789L216.804 85.1944C217.665 86.6215 219.02 87.6829 220.612 88.1776C222.204 88.6724 223.922 88.566 225.441 87.8786C226.959 87.1913 228.173 85.9707 228.852 84.4483C229.531 82.9258 229.627 81.2072 229.124 79.6182Z" fill="black"/>
<path d="M212.949 105.131L205.463 84.8004C205.073 83.7408 204.895 82.6147 204.94 81.4864C204.986 80.3582 205.252 79.2499 205.726 78.2248C206.199 77.1997 206.87 76.2779 207.7 75.512C208.529 74.7461 209.502 74.1511 210.561 73.761L232.021 65.8609C233.886 65.1744 235.867 64.8618 237.852 64.941C239.837 65.0202 241.787 65.4896 243.591 66.3225C245.395 67.1553 247.017 68.3353 248.365 69.7951C249.713 71.2548 250.76 72.9657 251.446 74.8301C252.065 76.5035 252.381 78.2738 252.38 80.058C252.372 82.3235 251.859 84.5587 250.879 86.6013C249.899 88.6438 248.476 90.4423 246.714 91.866C245.441 92.8872 244.01 93.694 242.477 94.2547L212.949 105.131Z" fill="#3F3D56"/>
<path d="M186.911 175.862C186.821 175.862 186.73 175.858 186.64 175.849L175.943 175.07C175.511 175.03 175.093 174.891 174.723 174.664C174.352 174.437 174.039 174.128 173.807 173.761C173.575 173.393 173.43 172.978 173.384 172.546C173.338 172.114 173.392 171.677 173.542 171.269L187.857 139.108C187.959 138.821 188.001 138.516 187.98 138.213C187.958 137.909 187.874 137.613 187.733 137.343C187.592 137.071 187.395 136.831 187.155 136.639C186.915 136.448 186.637 136.31 186.339 136.234C179.608 134.474 162.337 129.789 147.387 124.307C140.982 121.959 136.948 118.565 135.397 114.219C133.352 108.491 136.377 103.266 136.507 103.047L136.608 102.875L150.676 104.154L165.927 105.451L199.348 123.373C202.149 124.887 204.276 127.401 205.306 130.413C206.337 133.426 206.194 136.716 204.908 139.628L189.499 174.181C189.277 174.681 188.913 175.106 188.454 175.404C187.995 175.703 187.459 175.862 186.911 175.862Z" fill="#2F2E41"/>
<path d="M173.527 185.98H181.256L184.933 165.935L173.525 165.935L173.527 185.98Z" fill="#FFB8B8"/>
<path d="M171.555 183.457L186.776 183.457H186.776C188.05 183.457 189.312 183.707 190.488 184.195C191.665 184.682 192.735 185.397 193.635 186.298C194.536 187.198 195.251 188.268 195.738 189.444C196.226 190.621 196.476 191.883 196.476 193.157V193.472L171.555 193.473L171.555 183.457Z" fill="#2F2E41"/>
<path d="M182.497 177.753C182.407 177.753 182.316 177.749 182.226 177.74L171.529 176.961C171.097 176.921 170.679 176.782 170.309 176.555C169.938 176.328 169.625 176.019 169.393 175.652C169.161 175.284 169.016 174.869 168.97 174.437C168.924 174.005 168.978 173.568 169.128 173.16L183.443 140.999C183.545 140.712 183.587 140.407 183.565 140.104C183.544 139.8 183.46 139.504 183.319 139.234C183.178 138.962 182.981 138.722 182.741 138.531C182.5 138.339 182.222 138.201 181.925 138.125C175.194 136.366 157.923 131.68 142.973 126.199C136.568 123.85 132.534 120.456 130.983 116.11C128.938 110.382 131.963 105.157 132.093 104.938L132.194 104.766L146.262 106.045L161.513 107.342L194.934 125.264C197.735 126.778 199.862 129.292 200.892 132.305C201.922 135.317 201.78 138.607 200.494 141.519L185.085 176.072C184.863 176.572 184.499 176.997 184.04 177.296C183.581 177.594 183.045 177.753 182.497 177.753Z" fill="#2F2E41"/>
<path d="M252.063 80.058C252.062 82.2774 251.562 84.4681 250.602 86.469C249.642 88.4699 248.246 90.2301 246.515 91.6201C243.861 90.92 241.391 89.6501 239.277 87.8988C237.163 86.1476 235.455 83.9569 234.273 81.4791C233.092 79.0013 232.463 76.2958 232.433 73.5507C232.402 70.8057 232.97 68.0869 234.096 65.5833C236.258 65.1131 238.499 65.1331 240.652 65.6419C242.806 66.1507 244.818 67.1354 246.541 68.5237C248.265 69.912 249.655 71.6686 250.611 73.6645C251.566 75.6605 252.063 77.8451 252.063 80.058Z" fill="#22BB9C"/>
<path d="M171.789 57.4174L166.307 71.741C166.151 72.1485 165.909 72.5176 165.597 72.8232C165.286 73.1288 164.912 73.3636 164.502 73.5118C164.091 73.6599 163.653 73.7178 163.219 73.6816C162.784 73.6453 162.362 73.5158 161.981 73.3018L148.657 65.802C146.576 64.9919 144.902 63.3899 144.001 61.3473C143.1 59.3047 143.045 56.9881 143.849 54.9054C144.654 52.8227 146.251 51.1439 148.291 50.237C150.331 49.33 152.647 49.269 154.732 50.0673L169.612 53.3674C170.038 53.462 170.438 53.6474 170.786 53.9108C171.134 54.1742 171.421 54.5094 171.628 54.8938C171.835 55.2781 171.956 55.7025 171.984 56.138C172.012 56.5735 171.945 57.0099 171.789 57.4174Z" fill="#22BB9C"/>
<path d="M157.898 49.305L141.506 43.6311C141.506 43.6311 131.217 51.5367 136.16 71.1485C138.74 81.269 137.989 91.9518 134.016 101.611C133.538 102.806 132.987 103.971 132.365 105.098C132.365 105.098 150.648 127.163 167.669 110.772L161.05 78.9353C161.05 78.9353 171.452 57.8158 157.898 49.305Z" fill="#22BB9C"/>
<path d="M228.353 78.9877C227.946 78.0853 227.346 77.2832 226.595 76.6379C225.844 75.9927 224.96 75.5199 224.007 75.253C223.054 74.986 222.053 74.9313 221.076 75.0928C220.1 75.2543 219.17 75.628 218.353 76.1876L158.166 62.6792L157.418 77.3884L216.815 86.0414C217.846 87.3513 219.322 88.2374 220.963 88.532C222.603 88.8265 224.295 88.5089 225.717 87.6395C227.14 86.77 228.194 85.409 228.679 83.8145C229.165 82.2199 229.049 80.5025 228.353 78.9877Z" fill="#FFB8B8"/>
<path d="M221.399 90.6744C223.837 90.6744 225.812 88.6987 225.812 86.2614C225.812 83.8242 223.837 81.8484 221.399 81.8484C218.962 81.8484 216.986 83.8242 216.986 86.2614C216.986 88.6987 218.962 90.6744 221.399 90.6744Z" fill="#22BB9C"/>
<path d="M168.718 64.0303L165.044 78.9209C164.94 79.3445 164.745 79.7407 164.474 80.0824C164.202 80.4241 163.86 80.7033 163.471 80.9009C163.082 81.0985 162.655 81.21 162.219 81.2277C161.783 81.2454 161.348 81.1689 160.945 81.0034L146.796 75.205C144.63 74.6591 142.769 73.2763 141.622 71.3599C140.474 69.4436 140.134 67.1503 140.675 64.9833C141.217 62.8163 142.596 60.9525 144.509 59.801C146.423 58.6494 148.716 58.3042 150.884 58.8409L166.057 60.2799C166.491 60.3212 166.912 60.4557 167.29 60.6742C167.667 60.8926 167.994 61.1899 168.246 61.5458C168.499 61.9017 168.671 62.3079 168.753 62.7366C168.834 63.1654 168.822 63.6066 168.718 64.0303V64.0303Z" fill="#22BB9C"/>
<path d="M153.121 40.525C161.672 40.525 168.605 33.5925 168.605 25.0409C168.605 16.4893 161.672 9.55688 153.121 9.55688C144.569 9.55688 137.637 16.4893 137.637 25.0409C137.637 33.5925 144.569 40.525 153.121 40.525Z" fill="#FFB8B8"/>
<path d="M155.045 41.0515C152.842 37.7529 151.103 33.179 153.529 30.0405C155.924 26.9424 160.648 27.3989 164.316 26.028C169.425 24.1186 172.388 18.1165 171.464 12.7412C170.54 7.36596 166.225 2.91002 161.084 1.08679C155.944 -0.73644 150.147 -0.143484 145.114 1.95607C138.917 4.54066 133.601 9.54035 131.372 15.8737C129.143 22.207 130.335 29.8113 134.959 34.6792C139.916 39.8981 147.697 41.289 154.895 41.2046" fill="#2F2E41"/>
<path d="M140.641 12.9137C137.864 15.1743 133.627 14.1702 130.646 12.1862C127.665 10.2022 125.246 7.37712 122.021 5.82159C116.335 3.07924 109.461 4.90227 103.927 7.93991C98.3929 10.9775 93.4874 15.1741 87.6419 17.5579C81.7965 19.9416 74.3373 20.0595 69.9111 15.5584C68.8219 18.7142 68.7329 22.1293 69.6562 25.3376C70.5795 28.5459 72.4702 31.3912 75.0702 33.4853C77.6703 35.5794 80.8532 36.8203 84.1846 37.0387C87.516 37.257 90.8336 36.4423 93.6848 34.7055C100.09 30.8042 103.627 22.6241 110.811 20.4708C114.786 19.2792 119.055 20.2389 123.072 21.2784C127.09 22.3179 131.279 23.4411 135.334 22.5561C139.388 21.6712 143.181 18.0277 142.665 13.9099L140.641 12.9137Z" fill="#2F2E41"/>
</svg>
