<svg width="265" height="300" viewBox="0 0 265 300" fill="none" xmlns="http://www.w3.org/2000/svg">
<g clip-path="url(#clip0_938_26534)">
<path d="M128.392 199.488C127.962 200.006 127.383 200.379 126.735 200.556C126.086 200.734 125.398 200.708 124.765 200.481C124.131 200.255 123.583 199.839 123.193 199.291C122.804 198.742 122.593 198.087 122.588 197.415C122.401 197.132 122.266 196.929 122.079 196.647C120.439 196.021 118.649 195.9 116.939 196.299C115.229 196.697 113.678 197.597 112.483 198.883C111.288 200.169 110.504 201.783 110.232 203.517C109.961 205.252 110.213 207.028 110.957 208.618C115.063 217.622 118.635 227.688 127.729 232.591C90.7034 221.205 62.2868 187.693 56.6042 149.457C58.4045 141.961 57.2078 133.464 52.497 127.242C51.0825 130.474 46.2666 131.722 45.358 127.494C45.0976 125.782 44.852 124.071 44.5914 122.359C26.0485 122.633 31.5607 148.125 54.4588 150.092C55.6144 157.33 57.5237 164.428 60.1554 171.27C55.523 166.021 49.7107 161.947 43.1965 159.383C36.9887 157.143 30.0031 157.184 23.298 156.716C15.1354 156.138 10.2925 165.848 15.8552 171.842C20.1454 169.42 25.5515 173.526 22.6282 178.106C34.7766 187.283 51.7453 189.35 65.849 183.748C72.9007 196.993 82.6945 208.583 94.5778 217.746C80.0396 207.751 64.266 218.758 50.2983 223.769C49.3405 224.025 48.4779 224.554 47.8159 225.292C47.1538 226.03 46.7209 226.945 46.5698 227.925C46.4188 228.905 46.5561 229.908 46.9652 230.811C47.3743 231.714 48.0374 232.478 48.8735 233.011C50.6367 232.17 52.4791 231.505 54.3736 231.028C55.2672 230.809 56.2065 230.873 57.0627 231.209C57.9189 231.545 58.6501 232.138 59.156 232.907C59.662 233.675 59.918 234.581 59.8889 235.5C59.8598 236.42 59.547 237.308 58.9935 238.042C75.5358 244.179 95.1668 238.951 106.945 225.938C113.498 229.63 120.417 232.63 127.59 234.891L145.14 215.64C144.989 215.376 144.825 215.113 144.668 214.856C143.155 216.74 141.418 218.431 139.494 219.893C138.21 210.09 138.686 203.848 128.392 199.488L128.392 199.488Z" fill="#35383F"/>
<path d="M169.942 222.111C170.535 222.428 171.212 222.555 171.88 222.474C172.547 222.394 173.174 222.111 173.676 221.662C174.177 221.214 174.528 220.622 174.682 219.967C174.836 219.312 174.784 218.626 174.535 218.001C174.602 217.669 174.65 217.43 174.717 217.098C176 215.9 177.612 215.112 179.346 214.837C181.079 214.561 182.856 214.809 184.448 215.549C186.04 216.29 187.374 217.489 188.28 218.992C189.186 220.496 189.622 222.236 189.533 223.989C189.126 233.877 189.615 244.547 183.043 252.518C213.038 228.007 226.715 186.252 217.555 148.696C213.06 142.433 210.963 134.113 212.979 126.573C215.508 129.033 220.439 128.372 219.686 124.114C219.281 122.43 218.863 120.752 218.459 119.069C235.735 112.328 240.246 138.016 219.781 148.475C221.441 155.615 222.35 162.909 222.494 170.238C224.804 163.629 228.65 157.664 233.716 152.832C238.62 148.416 245.106 145.819 251.139 142.856C258.48 139.242 266.628 146.408 263.738 154.058C258.85 153.433 255.392 159.274 259.827 162.413C252.038 175.495 237.102 183.81 221.927 183.942C220.393 198.868 215.694 213.297 208.145 226.265C217.839 211.524 236.599 215.768 251.425 215.14C252.409 215.016 253.408 215.181 254.299 215.615C255.191 216.049 255.937 216.733 256.446 217.583C256.956 218.434 257.207 219.414 257.169 220.405C257.13 221.396 256.805 222.354 256.231 223.163C254.281 223.048 252.324 223.128 250.389 223.4C249.479 223.535 248.633 223.948 247.967 224.583C247.301 225.217 246.848 226.042 246.669 226.944C246.49 227.847 246.595 228.782 246.968 229.623C247.342 230.463 247.967 231.168 248.757 231.639C235.751 243.562 215.598 246.125 199.781 238.517C195.105 244.408 189.829 249.796 184.038 254.596L160.523 243.387C160.564 243.085 160.616 242.779 160.665 242.482C162.776 243.656 165.024 244.568 167.357 245.196C164.848 235.633 162.053 230.031 169.941 222.111H169.942Z" fill="#35383F"/>
<path d="M191.106 300H157.518L151.885 272.151L150.058 300H118.857C118.869 278.13 120.009 256.275 122.271 234.522L122.657 233.205L123.268 231.098L123.655 229.775L130.111 207.603L130.621 205.844H169.5C171.737 207.945 173.801 210.224 175.671 212.659C176.304 213.466 176.965 214.34 177.644 215.282C178.114 215.948 178.602 216.649 179.09 217.383C183.422 223.833 186.66 230.953 188.673 238.456V238.462C189.015 239.745 189.318 241.059 189.581 242.402V242.408C189.817 243.601 190.024 244.812 190.187 246.051C190.31 246.953 190.416 247.866 190.495 248.791C190.962 253.914 190.798 259.076 190.007 264.159L191.106 300Z" fill="#2F2E41"/>
<path d="M34.6332 161.861C35.6878 160.622 35.0989 158.389 33.3178 156.873C31.5367 155.357 29.2378 155.132 28.1831 156.371C27.1284 157.61 27.7173 159.844 29.4985 161.36C31.2796 162.876 33.5785 163.1 34.6332 161.861Z" fill="#424242"/>
<path d="M43.086 155.312C44.1889 154.328 44.5278 152.908 43.8431 152.14C43.1583 151.373 41.7091 151.549 40.6063 152.534C39.5034 153.518 39.1645 154.938 39.8493 155.705C40.534 156.472 41.9832 156.296 43.086 155.312Z" fill="#FF6584"/>
<path d="M67.172 153.047C68.2748 152.063 68.6138 150.643 67.929 149.876C67.2442 149.109 65.7951 149.285 64.6922 150.269C63.5894 151.253 63.2504 152.673 63.9352 153.44C64.62 154.208 66.0691 154.032 67.172 153.047Z" fill="#424242"/>
<path d="M56.3714 152.799C57.4261 151.56 56.8372 149.327 55.0561 147.81C53.275 146.294 50.9761 146.07 49.9214 147.309C48.8667 148.548 49.4556 150.781 51.2367 152.297C53.0179 153.814 55.3168 154.038 56.3714 152.799Z" fill="#FF6584"/>
<path d="M21.6173 149.502C22.7202 148.518 23.0591 147.098 22.3743 146.331C21.6895 145.564 20.2404 145.74 19.1375 146.724C18.0347 147.708 17.6957 149.128 18.3805 149.895C19.0653 150.663 20.5144 150.487 21.6173 149.502Z" fill="#3F3D56"/>
<path d="M18.4574 139.388C19.5121 138.149 18.9232 135.915 17.142 134.399C15.3609 132.883 13.062 132.658 12.0073 133.897C10.9526 135.136 11.5416 137.37 13.3227 138.886C15.1038 140.402 17.4027 140.627 18.4574 139.388Z" fill="#3F3D56"/>
<path d="M132.908 118.143C133.577 118.075 134.209 117.803 134.719 117.364C135.228 116.925 135.591 116.34 135.757 115.688C135.923 115.037 135.885 114.35 135.647 113.72C135.41 113.091 134.984 112.55 134.429 112.17C134.299 111.857 134.206 111.632 134.076 111.319C134.474 109.609 135.373 108.057 136.658 106.861C137.944 105.665 139.557 104.881 141.291 104.608C143.025 104.335 144.801 104.586 146.392 105.33C147.982 106.073 149.315 107.274 150.218 108.779C155.394 117.214 161.748 125.799 160.737 136.081C171.971 99.0093 160.044 56.7209 131.501 30.6519C124.277 27.9586 117.898 22.2206 115.367 14.8376C118.839 15.4695 122.563 12.1718 119.563 9.05653C118.289 7.8847 117.007 6.72495 115.733 5.55306C126.316 -9.67573 144.383 9.13422 133.225 29.2267C138.584 34.2282 143.406 39.7763 147.611 45.7805C145.845 39.0064 145.711 31.9096 147.222 25.0739C148.832 18.6736 152.768 12.9022 156.124 7.07894C160.203 -0.0149358 170.963 1.39103 172.828 9.35327C168.423 11.559 168.809 18.3363 174.241 18.4695C175.068 33.6722 167.305 48.902 154.782 57.4723C161.83 70.7194 165.974 85.3166 166.938 100.291C166.767 82.6494 184.707 75.7128 196.664 66.9251C197.412 66.2737 198.332 65.8539 199.314 65.7169C200.296 65.5799 201.297 65.7317 202.194 66.1537C203.091 66.5757 203.846 67.2496 204.367 68.0934C204.888 68.9371 205.152 69.9142 205.126 70.9053C203.444 71.8978 201.863 73.0549 200.409 74.3597C199.729 74.979 199.257 75.7935 199.058 76.6916C198.859 77.5897 198.942 78.5274 199.297 79.3762C199.651 80.225 200.26 80.9433 201.039 81.4327C201.818 81.9221 202.729 82.1585 203.648 82.1097C199.499 99.2588 184.198 112.623 166.826 115.126C166.228 122.623 164.852 130.038 162.722 137.251L136.951 141.056C136.817 140.784 136.69 140.5 136.564 140.226C138.972 140.024 141.346 139.528 143.632 138.748C136.218 132.208 130.774 129.117 132.907 118.143L132.908 118.143Z" fill="#35383F"/>
<path d="M158.827 109.879C147.095 109.879 140.731 108.446 138.509 105.385C136.548 102.685 137.863 99.1225 139.385 94.9973C140.479 92.0322 141.719 88.6717 141.719 85.3456C141.719 69.1685 149.922 60.9658 166.099 60.9658C174.148 60.9658 182.79 65.2415 189.217 72.4034C195.059 78.9143 197.97 86.7068 197.202 93.7825C196.573 99.5855 193.872 103.402 188.702 105.793L188.4 105.933L188.314 105.611C187.867 103.945 187.112 102.379 186.086 100.992C185.987 103.169 185.438 105.301 184.475 107.255L184.42 107.366L184.301 107.4C178.45 109.067 171.505 109.518 166.109 109.725C163.483 109.827 161.056 109.879 158.827 109.879Z" fill="#2F2E41"/>
<path d="M162.024 132.419C161.574 131.097 160.816 129.902 159.811 128.932C158.807 127.962 157.586 127.245 156.249 126.842C154.913 126.438 153.499 126.359 152.126 126.611C150.753 126.863 149.459 127.439 148.353 128.291L109.762 151.364L97.6865 121.899C98.7066 120.402 99.2266 118.621 99.1718 116.811C99.1171 115.001 98.4904 113.254 97.3817 111.822C96.273 110.39 94.7392 109.346 93.0003 108.839C91.2615 108.332 89.4068 108.39 87.7025 109.002C85.9981 109.615 84.5315 110.752 83.5131 112.249C82.4946 113.747 81.9767 115.529 82.0335 117.339C82.0903 119.149 82.719 120.895 83.8293 122.326C84.9396 123.757 86.4746 124.799 88.214 125.304C88.9583 133.801 93.0947 171.777 107.484 170.397C119.579 169.237 149.617 149.232 158.946 142.296C160.439 141.188 161.541 139.634 162.094 137.859C162.647 136.084 162.623 134.179 162.024 132.419Z" fill="#FFB6B6"/>
<path d="M82.6368 144.859C83.7397 143.874 84.0786 142.454 83.3939 141.687C82.7091 140.92 81.2599 141.096 80.1571 142.08C79.0542 143.065 78.7153 144.485 79.4 145.252C80.0848 146.019 81.534 145.843 82.6368 144.859Z" fill="#3F3D56"/>
<path d="M39.2892 140.92C40.392 139.935 40.731 138.515 40.0462 137.748C39.3614 136.981 37.9123 137.157 36.8094 138.141C35.7065 139.126 35.3676 140.546 36.0524 141.313C36.7371 142.08 38.1863 141.904 39.2892 140.92Z" fill="#424242"/>
<path d="M153.152 114.383L171.656 113.43L180.25 127.01C180.25 127.01 196.421 129.714 195.3 148.769C194.179 167.825 175.625 184.546 175.625 184.546L176.418 194.469L175.041 198.405L175.217 200.615L177.097 202.956L177.29 205.377L175.625 209.206L177.889 212.873L130.288 208.261L128.547 201.92L131.086 198.515L129.668 194.074L131.8 189.802L132.912 176.233C132.912 176.233 120.748 157.958 134.712 144.193L140.316 134.666L146.587 127.015L153.152 114.383Z" fill="#22BB9C"/>
<path d="M2.53127 96.6186C3.53197 96.3817 4.06718 95.0236 3.7267 93.5851C3.38622 92.1465 2.29897 91.1724 1.29826 91.4093C0.297558 91.6461 -0.237654 93.0043 0.10283 94.4428C0.443314 95.8813 1.53056 96.8555 2.53127 96.6186Z" fill="#3F3D56"/>
<path d="M2.69338 79.1198C3.69408 78.883 4.22931 77.5248 3.88883 76.0863C3.54834 74.6478 2.46108 73.6736 1.46037 73.9105C0.459667 74.1473 -0.0755446 75.5055 0.26494 76.944C0.605424 78.3825 1.69267 79.3567 2.69338 79.1198Z" fill="#424242"/>
<path d="M162.351 110.548C173.18 110.548 181.958 101.77 181.958 90.9413C181.958 80.1126 173.18 71.3342 162.351 71.3342C151.523 71.3342 142.744 80.1126 142.744 90.9413C142.744 101.77 151.523 110.548 162.351 110.548Z" fill="#FFB6B6"/>
<path d="M159.726 89.753C158.036 89.753 156.348 89.7054 154.66 89.6102L154.358 89.5932L154.398 89.2938C154.647 87.4223 154.507 85.5196 153.987 83.7046C153.104 85.7713 151.791 87.626 150.135 89.145L150.042 89.2306L149.916 89.2169C145.332 88.7155 140.79 87.8872 136.324 86.7381L136.153 86.6944L136.119 86.5214C135.786 84.8836 135.613 83.2171 135.604 81.5457C135.604 76.3246 137.496 71.9301 140.934 69.1719C144.675 66.1696 150.038 65.2463 156.04 66.5705H175.233C177.343 66.5729 179.366 67.4121 180.858 68.9041C182.35 70.3962 183.189 72.4191 183.192 74.5291V86.6831L182.982 86.7379C175.391 88.7329 167.575 89.7463 159.726 89.753Z" fill="#2F2E41"/>
<path d="M10.6392 68.7841C12.8205 67.9397 14.1126 66.0251 13.5252 64.5076C12.9378 62.9902 10.6934 62.4446 8.51209 63.289C6.33079 64.1334 5.03867 66.048 5.62607 67.5654C6.21346 69.0828 8.45793 69.6284 10.6392 68.7841Z" fill="#FF6584"/>
<path d="M26.6348 60.3744C27.6355 60.1376 28.1707 58.7794 27.8302 57.3409C27.4897 55.9024 26.4025 54.9283 25.4018 55.1651C24.4011 55.402 23.8659 56.7601 24.2063 58.1986C24.5468 59.6372 25.6341 60.6113 26.6348 60.3744Z" fill="#424242"/>
<path d="M12.1699 56.862C13.1706 56.6251 13.7059 55.267 13.3654 53.8285C13.0249 52.39 11.9376 51.4158 10.9369 51.6527C9.93623 51.8895 9.40102 53.2477 9.7415 54.6862C10.082 56.1247 11.1692 57.0989 12.1699 56.862Z" fill="#FF6584"/>
<path d="M13.022 45.3524C15.2033 44.508 16.4954 42.5934 15.908 41.076C15.3206 39.5586 13.0762 39.013 10.8949 39.8574C8.71359 40.7017 7.42149 42.6163 8.00888 44.1338C8.59627 45.6512 10.8407 46.1968 13.022 45.3524Z" fill="#424242"/>
<path d="M149.214 44.7733C150.674 44.0552 151.021 41.7716 149.989 39.6727C148.956 37.5737 146.936 36.4544 145.476 37.1725C144.016 37.8905 143.669 40.1742 144.701 42.2731C145.733 44.372 147.754 45.4914 149.214 44.7733Z" fill="#3F3D56"/>
<path d="M27.502 40.7485C28.5027 40.5116 29.0379 39.1534 28.6974 37.7149C28.3569 36.2764 27.2697 35.3023 26.269 35.5391C25.2683 35.776 24.733 37.1342 25.0735 38.5727C25.414 40.0112 26.5013 40.9853 27.502 40.7485Z" fill="#3F3D56"/>
<path d="M40.4869 41.8292C42.6682 40.9848 43.9603 39.0702 43.3729 37.5528C42.7855 36.0354 40.541 35.4898 38.3597 36.3342C36.1784 37.1785 34.8863 39.0932 35.4737 40.6106C36.0611 42.128 38.3056 42.6736 40.4869 41.8292Z" fill="#3F3D56"/>
<path d="M25.9378 67.9433C25.0787 68.2576 24.3792 68.8998 23.9929 69.7291C23.6067 70.5584 23.5651 71.5071 23.8774 72.3669L44.5825 129.18C44.8967 130.039 45.5389 130.738 46.3682 131.125C47.1975 131.511 48.1461 131.552 49.006 131.24L129.366 101.954C130.225 101.639 130.924 100.997 131.311 100.168C131.697 99.3385 131.738 98.3898 131.426 97.53L110.721 40.7173C110.407 39.8581 109.765 39.1586 108.935 38.7723C108.106 38.386 107.158 38.3444 106.298 38.6567L25.9378 67.9433Z" fill="#757575"/>
<path d="M99.4579 109.721L50.2695 127.648C49.344 127.984 48.323 127.939 47.4304 127.523C46.5379 127.108 45.8467 126.355 45.5085 125.43L26.7292 73.9015C26.3931 72.976 26.4378 71.955 26.8535 71.0624C27.2693 70.1699 28.0221 69.4786 28.9468 69.1405L104.766 41.5087C105.691 41.1726 106.712 41.2173 107.605 41.6331C108.497 42.0489 109.189 42.8017 109.527 43.7265L118.601 68.6246C121.502 76.6133 121.116 85.4267 117.527 93.1312C113.938 100.836 107.44 106.802 99.4579 109.721Z" fill="#1F222A"/>
<path d="M64.0649 72.4962L52.3761 76.7561C52.2295 76.8095 52.0739 76.8336 51.918 76.8268C51.7621 76.8201 51.6091 76.7827 51.4677 76.7168C51.3262 76.651 51.1992 76.5579 51.0937 76.4429C50.9883 76.3279 50.9065 76.1933 50.8531 76.0467C50.7996 75.9001 50.7756 75.7444 50.7824 75.5886C50.7891 75.4327 50.8265 75.2797 50.8924 75.1382C50.9582 74.9968 51.0513 74.8698 51.1663 74.7643C51.2813 74.6589 51.4159 74.5771 51.5625 74.5237L63.2513 70.2637C63.5474 70.1558 63.8742 70.17 64.1598 70.303C64.4454 70.436 64.6665 70.6771 64.7744 70.9731C64.8823 71.2692 64.8681 71.596 64.7351 71.8816C64.6021 72.1672 64.361 72.3883 64.065 72.4962H64.0649Z" fill="#22BB9C"/>
<path d="M91.931 67.5123L54.0396 81.3216C53.8929 81.3752 53.7372 81.3995 53.5812 81.3929C53.4252 81.3863 53.272 81.349 53.1304 81.2831C52.9889 81.2173 52.8616 81.1242 52.7561 81.0091C52.6505 80.8941 52.5686 80.7594 52.5152 80.6127C52.4617 80.466 52.4377 80.3102 52.4445 80.1542C52.4513 79.9982 52.4888 79.8451 52.5548 79.7036C52.6208 79.5621 52.714 79.435 52.8292 79.3295C52.9444 79.2241 53.0792 79.1424 53.226 79.0891L91.1174 65.2798C91.264 65.2264 91.4196 65.2024 91.5755 65.2091C91.7314 65.2159 91.8844 65.2532 92.0258 65.3191C92.1672 65.385 92.2943 65.4781 92.3998 65.5931C92.5052 65.708 92.587 65.8427 92.6404 65.9893C92.6938 66.1358 92.7179 66.2915 92.7111 66.4474C92.7044 66.6033 92.667 66.7563 92.6012 66.8977C92.5353 67.0391 92.4422 67.1662 92.3272 67.2717C92.2122 67.3771 92.0776 67.4589 91.931 67.5123Z" fill="#22BB9C"/>
<path d="M93.8398 72.7528L55.9484 86.5621C55.8018 86.6155 55.6461 86.6395 55.4902 86.6328C55.3344 86.626 55.1813 86.5887 55.0399 86.5228C54.8985 86.4569 54.7714 86.3638 54.666 86.2488C54.5605 86.1339 54.4788 85.9992 54.4253 85.8526C54.3719 85.7061 54.3479 85.5504 54.3546 85.3945C54.3614 85.2386 54.3987 85.0856 54.4646 84.9442C54.5305 84.8028 54.6236 84.6757 54.7386 84.5702C54.8536 84.4648 54.9882 84.383 55.1348 84.3296L93.0262 70.5203C93.3221 70.4129 93.6486 70.4273 93.9339 70.5604C94.2192 70.6935 94.44 70.9344 94.5478 71.2302C94.6557 71.526 94.6416 71.8525 94.5089 72.138C94.3761 72.4235 94.1355 72.6446 93.8398 72.7528Z" fill="#22BB9C"/>
<path d="M95.7494 77.9935L57.858 91.8028C57.7113 91.8565 57.5555 91.8807 57.3995 91.8741C57.2435 91.8675 57.0904 91.8302 56.9488 91.7643C56.8072 91.6985 56.68 91.6054 56.5744 91.4904C56.4689 91.3753 56.387 91.2406 56.3335 91.0939C56.2801 90.9472 56.2561 90.7914 56.2628 90.6354C56.2696 90.4794 56.3071 90.3263 56.3731 90.1848C56.4391 90.0433 56.5324 89.9162 56.6476 89.8107C56.7627 89.7053 56.8976 89.6236 57.0443 89.5703L94.9357 75.761C95.0823 75.7076 95.238 75.6836 95.3939 75.6903C95.5497 75.6971 95.7028 75.7344 95.8442 75.8003C95.9856 75.8662 96.1127 75.9593 96.2181 76.0743C96.3236 76.1892 96.4054 76.3239 96.4588 76.4705C96.5122 76.6171 96.5362 76.7727 96.5295 76.9286C96.5228 77.0845 96.4854 77.2375 96.4195 77.3789C96.3536 77.5203 96.2605 77.6474 96.1455 77.7529C96.0306 77.8583 95.8959 77.9401 95.7494 77.9935Z" fill="#22BB9C"/>
<path d="M97.6601 83.234L59.7687 97.0433C59.4727 97.1512 59.1459 97.137 58.8602 97.004C58.5746 96.871 58.3535 96.6299 58.2456 96.3339C58.1378 96.0378 58.1519 95.711 58.2849 95.4254C58.418 95.1398 58.659 94.9187 58.9551 94.8108L96.8465 81.0015C96.9931 80.9481 97.1488 80.9241 97.3046 80.9308C97.4605 80.9375 97.6135 80.9749 97.7549 81.0408C97.8964 81.1067 98.0234 81.1998 98.1289 81.3147C98.2344 81.4297 98.3161 81.5644 98.3696 81.7109C98.423 81.8575 98.447 82.0132 98.4403 82.1691C98.4335 82.3249 98.3961 82.478 98.3302 82.6194C98.2644 82.7608 98.1713 82.8879 98.0563 82.9933C97.9413 83.0988 97.8067 83.1806 97.6601 83.234H97.6601Z" fill="#22BB9C"/>
<path d="M217.889 97.788L197.143 147.433C196.258 149.534 194.582 151.202 192.478 152.078C190.373 152.955 188.009 152.968 185.894 152.116C184.801 151.676 183.808 151.017 182.977 150.18C182.146 149.343 181.494 148.346 181.061 147.249C180.628 146.152 180.424 144.978 180.459 143.8C180.494 142.621 180.77 141.462 181.268 140.393L204.399 89.4842L217.15 57.9579C216.048 56.8589 215.311 55.4474 215.039 53.9151C214.768 52.3828 214.974 50.804 215.631 49.3932C216.288 47.9824 217.363 46.808 218.711 46.0295C220.058 45.2511 221.613 44.9063 223.163 45.0421C224.713 45.1779 226.184 45.7876 227.376 46.7884C228.567 47.7893 229.422 49.1327 229.824 50.6362C230.225 52.1397 230.154 53.7304 229.62 55.1921C229.086 56.6539 228.115 57.9158 226.839 58.8065L217.889 97.788Z" fill="#FFB6B6"/>
<path d="M128.138 31.0259C129.542 30.5607 130.417 29.3923 130.093 28.4162C129.769 27.4401 128.37 27.0259 126.966 27.4911C125.563 27.9564 124.688 29.1248 125.012 30.1009C125.335 31.077 126.735 31.4911 128.138 31.0259Z" fill="#424242"/>
<path d="M147.767 30.17C149.17 29.7048 150.046 28.5363 149.722 27.5602C149.398 26.5841 147.998 26.17 146.595 26.6352C145.192 27.1004 144.317 28.2688 144.641 29.2449C144.964 30.221 146.364 30.6352 147.767 30.17Z" fill="#3F3D56"/>
<path d="M130.373 16.3091C131.776 15.8439 132.651 14.6755 132.327 13.6994C132.004 12.7233 130.604 12.3091 129.201 12.7744C127.798 13.2396 126.923 14.408 127.246 15.3841C127.57 16.3602 128.97 16.7743 130.373 16.3091Z" fill="#FF6584"/>
<path d="M143.298 17.7233C144.758 17.0052 145.105 14.7215 144.073 12.6226C143.04 10.5237 141.02 9.40432 139.56 10.1224C138.1 10.8405 137.753 13.1241 138.785 15.223C139.817 17.322 141.838 18.4414 143.298 17.7233Z" fill="#424242"/>
<path d="M119.747 17.4037C121.207 16.6856 121.554 14.402 120.522 12.303C119.49 10.2041 117.469 9.08472 116.009 9.80281C114.549 10.5209 114.202 12.8045 115.234 14.9035C116.267 17.0024 118.287 18.1218 119.747 17.4037Z" fill="#FF6584"/>
<path d="M89.9235 10.1898C91.3266 9.72454 92.2018 8.55612 91.8781 7.58002C91.5545 6.60391 90.1547 6.18976 88.7515 6.65498C87.3484 7.12019 86.4733 8.2886 86.7969 9.2647C87.1205 10.2408 88.5203 10.655 89.9235 10.1898Z" fill="#3F3D56"/>
<path d="M107.369 8.81939C108.772 8.35418 109.647 7.18577 109.323 6.20966C109 5.23356 107.6 4.81939 106.197 5.2846C104.794 5.74982 103.919 6.91825 104.242 7.89435C104.566 8.87045 105.966 9.28461 107.369 8.81939Z" fill="#424242"/>
</g>
<defs>
<clipPath id="clip0_938_26534">
<rect width="264.335" height="300" fill="white"/>
</clipPath>
</defs>
</svg>
