<svg width="265" height="300" viewBox="0 0 265 300" fill="none" xmlns="http://www.w3.org/2000/svg">
<g clip-path="url(#clip0_929_19572)">
<path d="M128.391 199.488C127.961 200.006 127.382 200.379 126.734 200.556C126.085 200.734 125.397 200.708 124.764 200.481C124.13 200.255 123.582 199.839 123.192 199.291C122.803 198.742 122.592 198.087 122.587 197.415C122.4 197.132 122.265 196.929 122.078 196.647C120.438 196.021 118.648 195.9 116.938 196.299C115.228 196.697 113.677 197.597 112.482 198.883C111.287 200.169 110.503 201.783 110.231 203.517C109.96 205.252 110.212 207.028 110.956 208.618C115.062 217.622 118.634 227.688 127.728 232.591C90.7024 221.205 62.2858 187.693 56.6033 149.457C58.4035 141.961 57.2069 133.464 52.4961 127.242C51.0815 130.474 46.2657 131.722 45.3571 127.494C45.0966 125.782 44.8511 124.071 44.5905 122.359C26.0475 122.633 31.5598 148.125 54.4578 150.092C55.6135 157.33 57.5227 164.428 60.1544 171.27C55.522 166.021 49.7097 161.947 43.1956 159.383C36.9877 157.143 30.0021 157.184 23.297 156.716C15.1344 156.138 10.2916 165.848 15.8542 171.842C20.1444 169.42 25.5505 173.526 22.6273 178.106C34.7756 187.283 51.7443 189.35 65.848 183.748C72.8997 196.993 82.6936 208.583 94.5768 217.746C80.0387 207.751 64.265 218.758 50.2973 223.769C49.3395 224.025 48.477 224.554 47.8149 225.292C47.1529 226.03 46.7199 226.945 46.5688 227.925C46.4178 228.905 46.5552 229.908 46.9642 230.811C47.3733 231.714 48.0364 232.478 48.8726 233.011C50.6357 232.17 52.4781 231.505 54.3726 231.028C55.2662 230.809 56.2055 230.873 57.0617 231.209C57.9179 231.545 58.6491 232.138 59.1551 232.907C59.661 233.675 59.917 234.581 59.8879 235.5C59.8588 236.42 59.546 237.308 58.9925 238.042C75.5348 244.179 95.1658 238.951 106.945 225.938C113.497 229.63 120.416 232.63 127.589 234.891L145.139 215.64C144.988 215.376 144.824 215.113 144.667 214.856C143.154 216.74 141.417 218.431 139.493 219.893C138.209 210.09 138.685 203.848 128.391 199.488L128.391 199.488Z" fill="#F2F2F2"/>
<path d="M169.942 222.111C170.535 222.428 171.212 222.555 171.88 222.474C172.547 222.394 173.174 222.111 173.676 221.662C174.177 221.214 174.528 220.622 174.682 219.967C174.836 219.312 174.784 218.626 174.535 218.001C174.602 217.669 174.65 217.43 174.717 217.098C176 215.9 177.612 215.112 179.346 214.837C181.079 214.561 182.856 214.809 184.448 215.549C186.04 216.29 187.374 217.489 188.28 218.992C189.186 220.496 189.622 222.236 189.533 223.989C189.126 233.877 189.615 244.547 183.043 252.518C213.038 228.007 226.715 186.252 217.555 148.696C213.06 142.433 210.963 134.113 212.979 126.573C215.508 129.033 220.439 128.372 219.686 124.114C219.281 122.43 218.863 120.752 218.459 119.069C235.735 112.328 240.246 138.016 219.781 148.475C221.441 155.615 222.35 162.909 222.494 170.238C224.804 163.629 228.65 157.664 233.716 152.832C238.62 148.416 245.106 145.819 251.139 142.856C258.48 139.242 266.628 146.408 263.738 154.058C258.85 153.433 255.392 159.274 259.827 162.413C252.038 175.495 237.102 183.81 221.927 183.942C220.393 198.868 215.694 213.297 208.145 226.265C217.839 211.524 236.599 215.768 251.425 215.14C252.409 215.016 253.408 215.181 254.299 215.615C255.191 216.049 255.937 216.733 256.446 217.583C256.956 218.434 257.207 219.414 257.169 220.405C257.13 221.396 256.805 222.354 256.231 223.163C254.281 223.048 252.324 223.128 250.389 223.4C249.479 223.535 248.633 223.948 247.967 224.583C247.301 225.217 246.848 226.042 246.669 226.944C246.49 227.847 246.595 228.782 246.968 229.623C247.342 230.463 247.967 231.168 248.757 231.639C235.751 243.562 215.598 246.125 199.781 238.517C195.105 244.408 189.829 249.796 184.038 254.596L160.523 243.387C160.564 243.085 160.616 242.779 160.665 242.482C162.776 243.656 165.024 244.568 167.357 245.196C164.848 235.633 162.053 230.031 169.941 222.111H169.942Z" fill="#F2F2F2"/>
<path d="M191.106 300H157.518L151.885 272.151L150.058 300H118.857C118.869 278.13 120.009 256.275 122.271 234.522L122.657 233.205L123.268 231.098L123.655 229.775L130.111 207.603L130.621 205.844H169.5C171.737 207.945 173.801 210.224 175.671 212.659C176.304 213.466 176.965 214.34 177.644 215.282C178.114 215.948 178.602 216.649 179.09 217.383C183.422 223.833 186.66 230.953 188.673 238.456V238.462C189.015 239.745 189.318 241.059 189.581 242.402V242.408C189.817 243.601 190.024 244.812 190.187 246.051C190.31 246.953 190.416 247.866 190.495 248.791C190.962 253.914 190.798 259.076 190.007 264.159L191.106 300Z" fill="#2F2E41"/>
<path d="M34.6332 161.861C35.6878 160.622 35.0989 158.389 33.3178 156.873C31.5367 155.357 29.2378 155.132 28.1831 156.371C27.1284 157.61 27.7173 159.844 29.4985 161.36C31.2796 162.876 33.5785 163.1 34.6332 161.861Z" fill="#E6E6E6"/>
<path d="M43.086 155.312C44.1889 154.328 44.5278 152.908 43.8431 152.14C43.1583 151.373 41.7091 151.549 40.6063 152.534C39.5034 153.518 39.1645 154.938 39.8493 155.705C40.534 156.472 41.9832 156.296 43.086 155.312Z" fill="#FF6584"/>
<path d="M67.172 153.047C68.2748 152.063 68.6138 150.643 67.929 149.876C67.2442 149.109 65.7951 149.285 64.6922 150.269C63.5894 151.253 63.2504 152.673 63.9352 153.44C64.62 154.208 66.0691 154.032 67.172 153.047Z" fill="#E6E6E6"/>
<path d="M56.3714 152.799C57.4261 151.56 56.8372 149.327 55.0561 147.81C53.275 146.294 50.9761 146.07 49.9214 147.309C48.8667 148.548 49.4556 150.781 51.2367 152.297C53.0179 153.814 55.3168 154.038 56.3714 152.799Z" fill="#FF6584"/>
<path d="M21.6163 149.502C22.7192 148.518 23.0581 147.098 22.3733 146.331C21.6886 145.564 20.2394 145.74 19.1366 146.724C18.0337 147.708 17.6948 149.128 18.3795 149.895C19.0643 150.663 20.5135 150.487 21.6163 149.502Z" fill="#3F3D56"/>
<path d="M18.4574 139.388C19.5121 138.149 18.9232 135.915 17.142 134.399C15.3609 132.883 13.062 132.658 12.0073 133.897C10.9526 135.136 11.5416 137.37 13.3227 138.886C15.1038 140.402 17.4027 140.627 18.4574 139.388Z" fill="#3F3D56"/>
<path d="M132.908 118.143C133.577 118.075 134.209 117.803 134.719 117.364C135.228 116.925 135.591 116.34 135.757 115.688C135.923 115.037 135.885 114.35 135.647 113.72C135.41 113.091 134.984 112.55 134.429 112.17C134.299 111.857 134.206 111.632 134.076 111.319C134.474 109.609 135.373 108.057 136.658 106.861C137.944 105.665 139.557 104.881 141.291 104.608C143.025 104.335 144.801 104.586 146.392 105.33C147.982 106.073 149.315 107.274 150.218 108.779C155.394 117.214 161.748 125.799 160.737 136.081C171.971 99.0093 160.044 56.7209 131.501 30.6519C124.277 27.9586 117.898 22.2206 115.367 14.8376C118.839 15.4695 122.563 12.1718 119.563 9.05653C118.289 7.8847 117.007 6.72495 115.733 5.55306C126.316 -9.67573 144.383 9.13422 133.225 29.2267C138.584 34.2282 143.406 39.7763 147.611 45.7805C145.845 39.0064 145.711 31.9096 147.222 25.0739C148.832 18.6736 152.768 12.9022 156.124 7.07894C160.203 -0.0149358 170.963 1.39103 172.828 9.35327C168.423 11.559 168.809 18.3363 174.241 18.4695C175.068 33.6722 167.305 48.902 154.782 57.4723C161.83 70.7194 165.974 85.3166 166.938 100.291C166.767 82.6494 184.707 75.7128 196.664 66.9251C197.412 66.2737 198.332 65.8539 199.314 65.7169C200.296 65.5799 201.297 65.7317 202.194 66.1537C203.091 66.5757 203.846 67.2496 204.367 68.0934C204.888 68.9371 205.152 69.9142 205.126 70.9053C203.444 71.8978 201.863 73.0549 200.409 74.3597C199.729 74.979 199.257 75.7935 199.058 76.6916C198.859 77.5897 198.942 78.5274 199.297 79.3762C199.651 80.225 200.26 80.9433 201.039 81.4327C201.818 81.9221 202.729 82.1585 203.648 82.1097C199.499 99.2588 184.198 112.623 166.826 115.126C166.228 122.623 164.852 130.038 162.722 137.251L136.951 141.056C136.817 140.784 136.69 140.5 136.564 140.226C138.972 140.024 141.346 139.528 143.632 138.748C136.218 132.208 130.774 129.117 132.907 118.143L132.908 118.143Z" fill="#F2F2F2"/>
<path d="M158.826 109.879C147.094 109.879 140.73 108.446 138.508 105.385C136.547 102.685 137.862 99.1225 139.384 94.9973C140.478 92.0322 141.718 88.6717 141.718 85.3456C141.718 69.1685 149.921 60.9658 166.098 60.9658C174.147 60.9658 182.789 65.2415 189.216 72.4034C195.058 78.9143 197.969 86.7068 197.201 93.7825C196.572 99.5855 193.871 103.402 188.701 105.793L188.399 105.933L188.313 105.611C187.866 103.945 187.111 102.379 186.085 100.992C185.986 103.169 185.437 105.301 184.474 107.255L184.419 107.366L184.3 107.4C178.449 109.067 171.504 109.518 166.108 109.725C163.482 109.827 161.055 109.879 158.826 109.879Z" fill="#2F2E41"/>
<path d="M162.024 132.419C161.574 131.097 160.816 129.902 159.811 128.932C158.807 127.962 157.586 127.245 156.249 126.842C154.913 126.438 153.499 126.359 152.126 126.611C150.753 126.863 149.459 127.439 148.353 128.291L109.762 151.364L97.6865 121.899C98.7066 120.402 99.2266 118.621 99.1718 116.811C99.1171 115.001 98.4904 113.254 97.3817 111.822C96.273 110.39 94.7392 109.346 93.0003 108.839C91.2615 108.332 89.4068 108.39 87.7025 109.002C85.9981 109.615 84.5315 110.752 83.5131 112.249C82.4946 113.747 81.9767 115.529 82.0335 117.339C82.0903 119.149 82.719 120.895 83.8293 122.326C84.9396 123.757 86.4746 124.799 88.214 125.304C88.9583 133.801 93.0947 171.777 107.484 170.397C119.579 169.237 149.617 149.232 158.946 142.296C160.439 141.188 161.541 139.634 162.094 137.859C162.647 136.084 162.623 134.179 162.024 132.419Z" fill="#FFB6B6"/>
<path d="M82.6368 144.859C83.7397 143.874 84.0786 142.454 83.3939 141.687C82.7091 140.92 81.2599 141.096 80.1571 142.08C79.0542 143.065 78.7153 144.485 79.4 145.252C80.0848 146.019 81.534 145.843 82.6368 144.859Z" fill="#3F3D56"/>
<path d="M39.2882 140.92C40.3911 139.935 40.73 138.515 40.0452 137.748C39.3605 136.981 37.9113 137.157 36.8084 138.141C35.7056 139.126 35.3666 140.546 36.0514 141.313C36.7362 142.08 38.1853 141.904 39.2882 140.92Z" fill="#E6E6E6"/>
<path d="M153.153 114.383L171.657 113.43L180.251 127.01C180.251 127.01 196.422 129.714 195.301 148.769C194.18 167.825 175.626 184.546 175.626 184.546L176.419 194.469L175.042 198.405L175.218 200.615L177.098 202.956L177.291 205.377L175.626 209.206L177.89 212.873L130.289 208.261L128.548 201.92L131.087 198.515L129.669 194.074L131.801 189.802L132.913 176.233C132.913 176.233 120.749 157.958 134.713 144.193L140.317 134.666L146.588 127.015L153.153 114.383Z" fill="#22BB9C"/>
<path d="M2.53127 96.6186C3.53197 96.3817 4.06718 95.0236 3.7267 93.5851C3.38622 92.1465 2.29897 91.1724 1.29826 91.4093C0.297558 91.6461 -0.237654 93.0043 0.10283 94.4428C0.443314 95.8813 1.53056 96.8555 2.53127 96.6186Z" fill="#3F3D56"/>
<path d="M2.69435 79.1198C3.69506 78.883 4.23029 77.5248 3.8898 76.0863C3.54932 74.6478 2.46205 73.6736 1.46135 73.9105C0.460644 74.1473 -0.074568 75.5055 0.265916 76.944C0.6064 78.3825 1.69365 79.3567 2.69435 79.1198Z" fill="#E6E6E6"/>
<path d="M162.351 110.548C173.18 110.548 181.958 101.77 181.958 90.9413C181.958 80.1126 173.18 71.3342 162.351 71.3342C151.523 71.3342 142.744 80.1126 142.744 90.9413C142.744 101.77 151.523 110.548 162.351 110.548Z" fill="#FFB6B6"/>
<path d="M159.726 89.753C158.036 89.753 156.348 89.7054 154.66 89.6102L154.358 89.5932L154.398 89.2938C154.647 87.4223 154.507 85.5196 153.987 83.7046C153.104 85.7713 151.791 87.626 150.135 89.145L150.042 89.2306L149.916 89.2169C145.332 88.7155 140.79 87.8872 136.324 86.7381L136.153 86.6944L136.119 86.5214C135.786 84.8836 135.613 83.2171 135.604 81.5457C135.604 76.3246 137.496 71.9301 140.934 69.1719C144.675 66.1696 150.038 65.2463 156.04 66.5705H175.233C177.343 66.5729 179.366 67.4121 180.858 68.9041C182.35 70.3962 183.189 72.4191 183.192 74.5291V86.6831L182.982 86.7379C175.391 88.7329 167.575 89.7463 159.726 89.753Z" fill="#2F2E41"/>
<path d="M10.6392 68.7841C12.8205 67.9397 14.1126 66.0251 13.5252 64.5076C12.9378 62.9902 10.6934 62.4446 8.51209 63.289C6.33079 64.1334 5.03867 66.048 5.62607 67.5654C6.21346 69.0828 8.45793 69.6284 10.6392 68.7841Z" fill="#FF6584"/>
<path d="M26.6358 60.3744C27.6365 60.1376 28.1717 58.7794 27.8312 57.3409C27.4907 55.9024 26.4035 54.9283 25.4028 55.1651C24.402 55.402 23.8668 56.7601 24.2073 58.1986C24.5478 59.6372 25.6351 60.6113 26.6358 60.3744Z" fill="#E6E6E6"/>
<path d="M12.1709 56.862C13.1716 56.6251 13.7068 55.267 13.3663 53.8285C13.0259 52.39 11.9386 51.4158 10.9379 51.6527C9.93721 51.8895 9.40199 53.2477 9.74248 54.6862C10.083 56.1247 11.1702 57.0989 12.1709 56.862Z" fill="#FF6584"/>
<path d="M13.021 45.3524C15.2023 44.508 16.4945 42.5934 15.9071 41.076C15.3197 39.5586 13.0752 39.013 10.8939 39.8574C8.71261 40.7017 7.42051 42.6163 8.0079 44.1338C8.5953 45.6512 10.8397 46.1968 13.021 45.3524Z" fill="#E6E6E6"/>
<path d="M149.213 44.7733C150.673 44.0552 151.02 41.7716 149.988 39.6727C148.955 37.5737 146.935 36.4544 145.475 37.1725C144.015 37.8905 143.668 40.1742 144.7 42.2731C145.732 44.372 147.753 45.4914 149.213 44.7733Z" fill="#3F3D56"/>
<path d="M27.502 40.7485C28.5027 40.5116 29.0379 39.1534 28.6974 37.7149C28.3569 36.2764 27.2697 35.3023 26.269 35.5391C25.2683 35.776 24.733 37.1342 25.0735 38.5727C25.414 40.0112 26.5013 40.9853 27.502 40.7485Z" fill="#3F3D56"/>
<path d="M40.4859 41.8292C42.6672 40.9848 43.9593 39.0702 43.3719 37.5528C42.7845 36.0354 40.54 35.4898 38.3587 36.3342C36.1775 37.1785 34.8854 39.0932 35.4727 40.6106C36.0601 42.128 38.3046 42.6736 40.4859 41.8292Z" fill="#3F3D56"/>
<path d="M25.9378 67.9433C25.0787 68.2576 24.3792 68.8998 23.9929 69.7291C23.6067 70.5584 23.5651 71.5071 23.8774 72.3669L44.5825 129.18C44.8967 130.039 45.5389 130.738 46.3682 131.125C47.1975 131.511 48.1461 131.552 49.006 131.24L129.366 101.954C130.225 101.639 130.924 100.997 131.311 100.168C131.697 99.3385 131.738 98.3898 131.426 97.53L110.721 40.7173C110.407 39.8581 109.765 39.1586 108.935 38.7723C108.106 38.386 107.158 38.3444 106.298 38.6567L25.9378 67.9433Z" fill="#CCCCCC"/>
<path d="M99.4579 109.721L50.2695 127.648C49.344 127.984 48.323 127.939 47.4304 127.523C46.5379 127.108 45.8467 126.355 45.5085 125.43L26.7292 73.9015C26.3931 72.976 26.4378 71.955 26.8535 71.0624C27.2693 70.1699 28.0221 69.4786 28.9468 69.1405L104.766 41.5087C105.691 41.1726 106.712 41.2173 107.605 41.6331C108.497 42.0489 109.189 42.8017 109.527 43.7265L118.601 68.6246C121.502 76.6133 121.116 85.4267 117.527 93.1312C113.938 100.836 107.44 106.802 99.4579 109.721Z" fill="white"/>
<path d="M64.064 72.4962L52.3751 76.7561C52.2285 76.8095 52.0729 76.8336 51.917 76.8268C51.7611 76.8201 51.6081 76.7827 51.4667 76.7168C51.3253 76.651 51.1982 76.5579 51.0927 76.4429C50.9873 76.3279 50.9055 76.1933 50.8521 76.0467C50.7987 75.9001 50.7746 75.7444 50.7814 75.5886C50.7881 75.4327 50.8255 75.2797 50.8914 75.1382C50.9573 74.9968 51.0503 74.8698 51.1653 74.7643C51.2803 74.6589 51.4149 74.5771 51.5615 74.5237L63.2504 70.2637C63.5464 70.1558 63.8732 70.17 64.1588 70.303C64.4444 70.436 64.6655 70.6771 64.7734 70.9731C64.8813 71.2692 64.8672 71.596 64.7341 71.8816C64.6011 72.1672 64.36 72.3883 64.064 72.4962H64.064Z" fill="#22BB9C"/>
<path d="M91.93 67.5123L54.0386 81.3216C53.892 81.3752 53.7362 81.3995 53.5802 81.3929C53.4242 81.3863 53.271 81.349 53.1295 81.2831C52.9879 81.2173 52.8607 81.1242 52.7551 81.0091C52.6495 80.8941 52.5677 80.7594 52.5142 80.6127C52.4607 80.466 52.4367 80.3102 52.4435 80.1542C52.4503 79.9982 52.4878 79.8451 52.5538 79.7036C52.6198 79.5621 52.7131 79.435 52.8282 79.3295C52.9434 79.2241 53.0782 79.1424 53.225 79.0891L91.1164 65.2798C91.263 65.2264 91.4187 65.2024 91.5745 65.2091C91.7304 65.2159 91.8834 65.2532 92.0248 65.3191C92.1663 65.385 92.2933 65.4781 92.3988 65.5931C92.5043 65.708 92.586 65.8427 92.6395 65.9893C92.6929 66.1358 92.7169 66.2915 92.7102 66.4474C92.7034 66.6033 92.6661 66.7563 92.6002 66.8977C92.5343 67.0391 92.4412 67.1662 92.3262 67.2717C92.2112 67.3771 92.0766 67.4589 91.93 67.5123Z" fill="#22BB9C"/>
<path d="M93.8408 72.7528L55.9494 86.5621C55.8028 86.6155 55.6471 86.6395 55.4912 86.6328C55.3353 86.626 55.1823 86.5887 55.0409 86.5228C54.8995 86.4569 54.7724 86.3638 54.667 86.2488C54.5615 86.1339 54.4797 85.9992 54.4263 85.8526C54.3729 85.7061 54.3489 85.5504 54.3556 85.3945C54.3623 85.2386 54.3997 85.0856 54.4656 84.9442C54.5315 84.8028 54.6246 84.6757 54.7395 84.5702C54.8545 84.4648 54.9892 84.383 55.1357 84.3296L93.0271 70.5203C93.3231 70.4129 93.6496 70.4273 93.9349 70.5604C94.2202 70.6935 94.441 70.9344 94.5488 71.2302C94.6566 71.526 94.6426 71.8525 94.5099 72.138C94.3771 72.4235 94.1364 72.6446 93.8408 72.7528Z" fill="#22BB9C"/>
<path d="M95.7503 77.9935L57.8589 91.8028C57.7123 91.8565 57.5565 91.8807 57.4005 91.8741C57.2445 91.8675 57.0913 91.8302 56.9498 91.7643C56.8082 91.6985 56.681 91.6054 56.5754 91.4904C56.4698 91.3753 56.388 91.2406 56.3345 91.0939C56.281 90.9472 56.257 90.7914 56.2638 90.6354C56.2706 90.4794 56.3081 90.3263 56.3741 90.1848C56.4401 90.0433 56.5334 89.9162 56.6486 89.8107C56.7637 89.7053 56.8985 89.6236 57.0453 89.5703L94.9367 75.761C95.0833 75.7076 95.239 75.6836 95.3948 75.6903C95.5507 75.6971 95.7037 75.7344 95.8452 75.8003C95.9866 75.8662 96.1137 75.9593 96.2191 76.0743C96.3246 76.1892 96.4063 76.3239 96.4598 76.4705C96.5132 76.6171 96.5372 76.7727 96.5305 76.9286C96.5237 77.0845 96.4864 77.2375 96.4205 77.3789C96.3546 77.5203 96.2615 77.6474 96.1465 77.7529C96.0315 77.8583 95.8969 77.9401 95.7503 77.9935Z" fill="#22BB9C"/>
<path d="M97.6601 83.234L59.7687 97.0433C59.4727 97.1512 59.1459 97.137 58.8602 97.004C58.5746 96.871 58.3535 96.6299 58.2456 96.3339C58.1378 96.0378 58.1519 95.711 58.2849 95.4254C58.418 95.1398 58.659 94.9187 58.9551 94.8108L96.8465 81.0015C96.9931 80.9481 97.1488 80.9241 97.3046 80.9308C97.4605 80.9375 97.6135 80.9749 97.7549 81.0408C97.8964 81.1067 98.0234 81.1998 98.1289 81.3147C98.2344 81.4297 98.3161 81.5644 98.3696 81.7109C98.423 81.8575 98.447 82.0132 98.4403 82.1691C98.4335 82.3249 98.3961 82.478 98.3302 82.6194C98.2644 82.7608 98.1713 82.8879 98.0563 82.9933C97.9413 83.0988 97.8067 83.1806 97.6601 83.234H97.6601Z" fill="#22BB9C"/>
<path d="M217.89 97.788L197.144 147.433C196.259 149.534 194.583 151.202 192.479 152.078C190.374 152.955 188.01 152.968 185.895 152.116C184.802 151.676 183.809 151.017 182.978 150.18C182.147 149.343 181.495 148.346 181.062 147.249C180.629 146.152 180.425 144.978 180.46 143.8C180.495 142.621 180.771 141.462 181.269 140.393L204.4 89.4842L217.151 57.9579C216.049 56.8589 215.312 55.4474 215.04 53.9151C214.769 52.3828 214.975 50.804 215.632 49.3932C216.289 47.9824 217.364 46.808 218.712 46.0295C220.059 45.2511 221.614 44.9063 223.164 45.0421C224.714 45.1779 226.185 45.7876 227.377 46.7884C228.568 47.7893 229.423 49.1327 229.825 50.6362C230.226 52.1397 230.155 53.7304 229.621 55.1921C229.087 56.6539 228.116 57.9158 226.84 58.8065L217.89 97.788Z" fill="#FFB6B6"/>
<path d="M128.139 31.0259C129.542 30.5607 130.418 29.3923 130.094 28.4162C129.77 27.4401 128.371 27.0259 126.967 27.4911C125.564 27.9564 124.689 29.1248 125.013 30.1009C125.336 31.077 126.736 31.4911 128.139 31.0259Z" fill="#E6E6E6"/>
<path d="M147.766 30.17C149.169 29.7048 150.045 28.5363 149.721 27.5602C149.397 26.5841 147.997 26.17 146.594 26.6352C145.191 27.1004 144.316 28.2688 144.64 29.2449C144.963 30.221 146.363 30.6352 147.766 30.17Z" fill="#3F3D56"/>
<path d="M130.372 16.3091C131.775 15.8439 132.65 14.6755 132.326 13.6994C132.003 12.7233 130.603 12.3091 129.2 12.7744C127.797 13.2396 126.922 14.408 127.245 15.3841C127.569 16.3602 128.969 16.7743 130.372 16.3091Z" fill="#FF6584"/>
<path d="M143.298 17.7233C144.758 17.0052 145.105 14.7215 144.073 12.6226C143.04 10.5237 141.02 9.40432 139.56 10.1224C138.1 10.8405 137.753 13.1241 138.785 15.223C139.817 17.322 141.838 18.4414 143.298 17.7233Z" fill="#E6E6E6"/>
<path d="M119.747 17.4037C121.207 16.6856 121.554 14.402 120.522 12.303C119.49 10.2041 117.469 9.08472 116.009 9.80281C114.549 10.5209 114.202 12.8045 115.234 14.9035C116.267 17.0024 118.287 18.1218 119.747 17.4037Z" fill="#FF6584"/>
<path d="M89.9225 10.1898C91.3257 9.72454 92.2008 8.55612 91.8772 7.58002C91.5535 6.60391 90.1537 6.18976 88.7506 6.65498C87.3474 7.12019 86.4723 8.2886 86.7959 9.2647C87.1196 10.2408 88.5194 10.655 89.9225 10.1898Z" fill="#3F3D56"/>
<path d="M107.369 8.81939C108.772 8.35418 109.647 7.18577 109.323 6.20966C109 5.23356 107.6 4.81939 106.197 5.2846C104.794 5.74982 103.919 6.91825 104.242 7.89435C104.566 8.87045 105.966 9.28461 107.369 8.81939Z" fill="#E6E6E6"/>
</g>
<defs>
<clipPath id="clip0_929_19572">
<rect width="264.335" height="300" fill="white"/>
</clipPath>
</defs>
</svg>
