<svg width="373" height="238" viewBox="0 0 373 238" fill="none" xmlns="http://www.w3.org/2000/svg">
<g filter="url(#filter0_d_929_19686)">
<path d="M328.741 219.278C329.215 222.993 330.959 226.393 332.819 229.667C332.88 229.779 332.944 229.888 333.008 230H352.342C352.733 229.898 353.119 229.787 353.503 229.667C355.687 229.002 357.749 227.988 359.608 226.664C366.721 221.539 369.458 211.856 368.222 203.179C367.453 197.788 365.087 192.284 360.48 189.381C357.978 187.857 354.993 187.334 352.122 187.917C352.049 187.93 351.976 187.947 351.901 187.962C350.706 188.193 349.574 188.674 348.578 189.374C347.582 190.074 346.746 190.977 346.124 192.023C343.928 195.925 345.236 200.758 346.316 205.101C347.392 209.443 347.976 214.641 344.852 217.844C345.31 216.504 345.403 215.067 345.121 213.68C344.84 212.293 344.194 211.005 343.25 209.95C342.306 208.895 341.098 208.111 339.751 207.677C338.403 207.244 336.964 207.177 335.582 207.483C335.356 207.532 335.133 207.586 334.914 207.653C334.383 207.808 333.871 208.023 333.388 208.292C329.702 210.35 328.21 215.09 328.741 219.278Z" fill="#F2F2F2"/>
<path d="M340.204 229.667C339.668 229.792 339.131 229.902 338.59 230H341.513C341.896 229.897 342.277 229.787 342.655 229.667C343.485 229.408 344.302 229.11 345.107 228.774C348.371 227.449 351.269 225.359 353.558 222.681C354.658 221.37 355.556 219.902 356.223 218.326C356.946 216.545 357.406 214.668 357.587 212.754C357.919 208.798 357.654 204.814 356.802 200.936C356 196.939 354.706 193.056 352.949 189.378C352.737 188.937 352.519 188.499 352.293 188.063C352.278 188.027 352.254 187.996 352.224 187.97C352.195 187.945 352.16 187.927 352.122 187.917C352.045 187.902 351.965 187.918 351.9 187.962C351.823 188.006 351.765 188.079 351.739 188.165C351.713 188.251 351.722 188.344 351.762 188.424C353.574 191.958 354.948 195.699 355.852 199.565C356.784 203.357 357.193 207.259 357.068 211.162C357.002 214.792 355.869 218.322 353.811 221.313C351.809 224.007 349.176 226.167 346.144 227.604C344.247 228.511 342.255 229.204 340.204 229.667Z" fill="white"/>
<path d="M333.788 230H334.65C334.746 229.89 334.84 229.779 334.931 229.667C336.894 227.282 338.224 224.44 338.798 221.405C339.495 217.616 338.953 213.705 337.252 210.249C336.778 209.28 336.219 208.354 335.582 207.483C335.355 207.532 335.132 207.587 334.913 207.653C336.589 209.873 337.716 212.458 338.202 215.197C338.636 217.763 338.492 220.394 337.78 222.897C337.068 225.401 335.806 227.714 334.086 229.667C333.989 229.779 333.89 229.89 333.788 230Z" fill="white"/>
<path d="M7.55424 219.278C8.02844 222.993 9.77212 226.393 11.6323 229.667C11.6938 229.779 11.7571 229.888 11.8219 230H31.1556C31.5466 229.898 31.9326 229.787 32.317 229.667C34.5006 229.002 36.5622 227.988 38.4215 226.664C45.5343 221.539 48.2714 211.856 47.0351 203.179C46.2664 197.788 43.9005 192.284 39.2934 189.381C36.7916 187.857 33.8067 187.334 30.936 187.917C30.8627 187.93 30.7895 187.947 30.7147 187.962C29.5197 188.193 28.3872 188.674 27.3915 189.374C26.3959 190.074 25.5597 190.977 24.9379 192.023C22.7417 195.925 24.0494 200.758 25.1292 205.101C26.2057 209.443 26.7898 214.641 23.6651 217.844C24.123 216.504 24.216 215.067 23.9345 213.68C23.653 212.293 23.0071 211.005 22.0633 209.95C21.1194 208.895 19.9116 208.111 18.5641 207.677C17.2166 207.244 15.7779 207.177 14.3959 207.483C14.1697 207.532 13.9466 207.586 13.727 207.653C13.1962 207.808 12.6845 208.023 12.2013 208.292C8.51597 210.35 7.02349 215.09 7.55424 219.278Z" fill="#F2F2F2"/>
<path d="M19.0172 229.667C18.4815 229.792 17.9441 229.902 17.4033 230H20.3266C20.7093 229.897 21.0904 229.787 21.468 229.667C22.2983 229.408 23.1158 229.11 23.9205 228.774C27.1845 227.449 30.0826 225.359 32.3711 222.681C33.4712 221.37 34.3696 219.902 35.0366 218.326C35.7597 216.545 36.2193 214.668 36.4008 212.754C36.7326 208.798 36.4678 204.814 35.6155 200.936C34.8137 196.939 33.5193 193.056 31.7621 189.378C31.5508 188.937 31.3322 188.499 31.1065 188.063C31.091 188.027 31.0675 187.996 31.0378 187.97C31.0081 187.945 30.973 187.927 30.9352 187.917C30.8584 187.902 30.7788 187.918 30.7139 187.962C30.636 188.006 30.5782 188.079 30.5525 188.165C30.5268 188.251 30.5351 188.344 30.5758 188.424C32.3876 191.958 33.761 195.699 34.6655 199.565C35.597 203.357 36.0062 207.259 35.8818 211.162C35.8152 214.792 34.6823 218.322 32.624 221.313C30.6223 224.007 27.9895 226.167 24.9571 227.604C23.0604 228.511 21.068 229.204 19.0172 229.667Z" fill="white"/>
<path d="M12.6016 230H13.4634C13.56 229.89 13.6531 229.779 13.7446 229.667C15.7077 227.282 17.0377 224.44 17.6114 221.405C18.3081 217.616 17.7661 213.705 16.0657 210.249C15.5913 209.28 15.0323 208.354 14.3952 207.483C14.1689 207.532 13.9459 207.587 13.7263 207.653C15.402 209.873 16.5291 212.458 17.0157 215.197C17.4497 217.763 17.3054 220.394 16.5933 222.897C15.8811 225.401 14.6191 227.714 12.8993 229.667C12.8029 229.779 12.7031 229.89 12.6016 230Z" fill="white"/>
<path d="M278.514 140.479C264.845 140.479 253.706 150.415 253.165 162.859H303.863C303.323 150.415 292.183 140.479 278.514 140.479Z" fill="#3F3D56"/>
<path d="M154.477 133.972H93.9671L93.3256 115.367C93.2978 114.561 93.4452 113.758 93.7574 113.014C94.0697 112.27 94.5395 111.602 95.1345 111.057C95.7295 110.512 96.4356 110.102 97.2041 109.856C97.9726 109.61 98.7853 109.533 99.5863 109.631L134.799 113.943H134.803C140.023 113.957 145.025 116.04 148.713 119.735C152.401 123.43 154.473 128.436 154.477 133.657V133.972Z" fill="#22BB9C"/>
<path d="M237.693 92.8809L216.889 102.337L219.62 112.62C224.895 132.477 226.294 153.165 223.743 173.551L238.954 176.728L251.562 144.576L247.149 108.011L237.693 92.8809Z" fill="#22BB9C"/>
<path d="M127.508 67.9788H85.3059C84.7446 67.9786 84.1888 68.0891 83.6703 68.3038C83.1517 68.5185 82.6805 68.8333 82.2836 69.2302C81.8867 69.627 81.572 70.0982 81.3572 70.6168C81.1425 71.1354 81.0321 71.6912 81.0322 72.2524V114.455C81.0321 115.016 81.1425 115.572 81.3572 116.09C81.572 116.609 81.8867 117.08 82.2836 117.477C82.6805 117.874 83.1517 118.189 83.6703 118.404C84.1888 118.618 84.7446 118.729 85.3059 118.729H127.508C128.07 118.729 128.625 118.618 129.144 118.404C129.663 118.189 130.134 117.874 130.531 117.477C130.928 117.08 131.242 116.609 131.457 116.091C131.672 115.572 131.782 115.016 131.782 114.455V72.2524C131.782 71.6912 131.672 71.1354 131.457 70.6168C131.242 70.0982 130.928 69.627 130.531 69.2301C130.134 68.8333 129.663 68.5185 129.144 68.3038C128.625 68.0891 128.07 67.9786 127.508 67.9788Z" fill="#CCCCCC"/>
<path d="M118.004 99.5362L98.0782 103.416C96.8963 103.645 95.6719 103.396 94.6736 102.723C93.6753 102.05 92.9847 101.009 92.7532 99.8273L91.2215 91.9619C90.9927 90.78 91.2421 89.5556 91.915 88.5573C92.5878 87.559 93.6292 86.8684 94.8106 86.6369L114.736 82.7567C115.918 82.5279 117.143 82.7773 118.141 83.4502C119.139 84.123 119.83 85.1644 120.061 86.3458L121.593 94.2112C121.822 95.3931 121.572 96.6175 120.899 97.6158C120.227 98.6141 119.185 99.3047 118.004 99.5362Z" fill="#3F3D56"/>
<path d="M114.016 90.2441L98.8098 93.2053C98.5316 93.2595 98.2434 93.201 98.0084 93.0426C97.7734 92.8842 97.611 92.639 97.5568 92.3609C97.5026 92.0827 97.5612 91.7944 97.7196 91.5595C97.878 91.3245 98.1232 91.1621 98.4013 91.1079L113.608 88.1467C113.886 88.0925 114.174 88.151 114.409 88.3094C114.644 88.4678 114.806 88.713 114.861 88.9912C114.915 89.2693 114.856 89.5576 114.698 89.7925C114.54 90.0275 114.294 90.1899 114.016 90.2441Z" fill="white"/>
<path d="M111.061 94.6296L103.196 96.1613C102.917 96.2154 102.629 96.1569 102.394 95.9985C102.159 95.8401 101.997 95.5949 101.943 95.3168C101.888 95.0386 101.947 94.7504 102.105 94.5154C102.264 94.2804 102.509 94.118 102.787 94.0638L110.652 92.5322C110.79 92.5053 110.932 92.5059 111.069 92.5338C111.207 92.5618 111.337 92.6165 111.454 92.6949C111.57 92.7733 111.67 92.8739 111.747 92.9909C111.825 93.1078 111.879 93.2389 111.905 93.3766C111.932 93.5144 111.932 93.656 111.904 93.7935C111.876 93.931 111.821 94.0617 111.743 94.178C111.664 94.2944 111.564 94.3941 111.447 94.4716C111.33 94.5491 111.199 94.6028 111.061 94.6296Z" fill="white"/>
<path d="M267.874 142.623C267.162 86.4524 235.172 91.6199 235.172 91.6199C235.172 91.6199 235.77 109.104 236.058 109.648C256.443 148.217 222.8 193.434 179.975 185.116C179.167 184.959 178.392 184.8 177.648 184.639C172.221 183.506 167.43 180.348 164.249 175.809C161.068 171.269 159.736 165.688 160.523 160.201C164.742 126.325 143.759 126.924 143.759 126.924H113.078L97.1454 112.584C96.583 112.078 95.9051 111.718 95.1711 111.534C94.4371 111.35 93.6693 111.349 92.9348 111.531C92.2002 111.713 91.5214 112.071 90.9577 112.576C90.3939 113.081 89.9624 113.716 89.7008 114.426L87.651 119.989C87.651 119.989 57.3903 123.142 59.912 152.772H69.2675C69.2449 153.614 69.2786 154.456 69.3685 155.294L139.189 154.726C143.282 154.693 146.895 158.009 146.912 162.102C146.916 163.098 146.719 164.085 146.333 165.004C145.947 165.922 145.379 166.754 144.665 167.448C143.95 168.142 143.102 168.685 142.173 169.044C141.243 169.403 140.251 169.571 139.255 169.538L127.999 169.163C124.531 184.609 133.042 195.011 142.42 201.551C151.249 207.62 161.726 210.838 172.439 210.772H203.02C242.737 210.772 249.672 177.359 249.672 177.359C270.476 168.533 267.874 142.623 267.874 142.623Z" fill="#3F3D56"/>
<path d="M276.623 229.054C296.208 229.054 312.085 213.177 312.085 193.592C312.085 174.007 296.208 158.131 276.623 158.131C257.038 158.131 241.161 174.007 241.161 193.592C241.161 213.177 257.038 229.054 276.623 229.054Z" fill="#3F3D56"/>
<path d="M276.623 202.284C281.423 202.284 285.315 198.393 285.315 193.592C285.315 188.792 281.423 184.901 276.623 184.901C271.823 184.901 267.932 188.792 267.932 193.592C267.932 198.393 271.823 202.284 276.623 202.284Z" fill="white"/>
<path d="M97.5802 229.054C120.125 229.054 138.401 210.778 138.401 188.234C138.401 165.689 120.125 147.413 97.5802 147.413C75.0357 147.413 56.7598 165.689 56.7598 188.234C56.7598 210.778 75.0357 229.054 97.5802 229.054Z" fill="#3F3D56"/>
<path d="M367.4 229.425C367.399 229.577 367.353 229.723 367.271 229.831C367.189 229.939 367.078 229.999 366.961 230H4.43836C4.3221 230 4.2106 229.939 4.12839 229.831C4.04618 229.724 4 229.577 4 229.425C4 229.272 4.04618 229.126 4.12839 229.018C4.2106 228.91 4.3221 228.85 4.43836 228.85H366.961C367.078 228.85 367.189 228.911 367.271 229.019C367.353 229.127 367.399 229.272 367.4 229.425Z" fill="#3F3D56"/>
<path d="M97.5802 198.239C103.106 198.239 107.585 193.759 107.585 188.234C107.585 182.708 103.106 178.229 97.5802 178.229C92.0546 178.229 87.5752 182.708 87.5752 188.234C87.5752 193.759 92.0546 198.239 97.5802 198.239Z" fill="white"/>
<path d="M181.939 184.089H189.668L193.345 164.043L181.938 164.044L181.939 184.089Z" fill="#FFB8B8"/>
<path d="M179.968 181.566L195.189 181.565H195.189C196.463 181.565 197.725 181.816 198.902 182.304C200.078 182.791 201.148 183.506 202.048 184.406C202.949 185.307 203.664 186.376 204.151 187.553C204.639 188.73 204.89 189.992 204.89 191.265V191.581L179.968 191.582L179.968 181.566Z" fill="#2F2E41"/>
<path d="M65.2714 156.87C70.1458 156.87 74.0974 152.071 74.0974 146.152C74.0974 140.233 70.1458 135.435 65.2714 135.435C60.3969 135.435 56.4453 140.233 56.4453 146.152C56.4453 152.071 60.3969 156.87 65.2714 156.87Z" fill="#22BB9C"/>
<path d="M131.782 72.2524V77.8616H81.0322V72.2524C81.0321 71.6912 81.1425 71.1354 81.3572 70.6168C81.572 70.0982 81.8867 69.627 82.2836 69.2302C82.6805 68.8333 83.1517 68.5185 83.6703 68.3038C84.1888 68.0891 84.7446 67.9786 85.3059 67.9788H127.508C128.07 67.9786 128.625 68.0891 129.144 68.3038C129.663 68.5185 130.134 68.8333 130.531 69.2302C130.927 69.627 131.242 70.0982 131.457 70.6168C131.672 71.1354 131.782 71.6912 131.782 72.2524Z" fill="#B3B3B3"/>
<path d="M233.124 79.6182C232.831 78.6724 232.334 77.8024 231.669 77.0694C231.003 76.3364 230.185 75.7583 229.272 75.3757C228.358 74.9932 227.372 74.8155 226.383 74.8552C225.394 74.8949 224.425 75.1511 223.546 75.6056L165.485 54.7744L162.928 69.2789L220.804 85.1944C221.665 86.6215 223.02 87.6829 224.612 88.1776C226.204 88.6724 227.922 88.566 229.441 87.8786C230.959 87.1913 232.173 85.9707 232.852 84.4483C233.531 82.9258 233.627 81.2072 233.124 79.6182Z" fill="#FFB8B8"/>
<path opacity="0.2" d="M233.124 79.6182C232.831 78.6724 232.334 77.8024 231.669 77.0694C231.003 76.3364 230.185 75.7583 229.272 75.3757C228.358 74.9932 227.372 74.8155 226.383 74.8552C225.394 74.8949 224.425 75.1511 223.546 75.6056L165.485 54.7744L162.928 69.2789L220.804 85.1944C221.665 86.6215 223.02 87.6829 224.612 88.1776C226.204 88.6724 227.922 88.566 229.441 87.8786C230.959 87.1913 232.173 85.9707 232.852 84.4483C233.531 82.9258 233.627 81.2072 233.124 79.6182Z" fill="black"/>
<path d="M216.949 105.131L209.463 84.8004C209.073 83.7408 208.895 82.6147 208.94 81.4864C208.986 80.3582 209.252 79.2499 209.726 78.2248C210.199 77.1997 210.87 76.2779 211.7 75.512C212.529 74.7461 213.502 74.1511 214.561 73.761L236.021 65.8609C237.886 65.1744 239.867 64.8618 241.852 64.941C243.837 65.0202 245.787 65.4896 247.591 66.3225C249.395 67.1553 251.017 68.3353 252.365 69.7951C253.713 71.2548 254.76 72.9657 255.446 74.8301C256.065 76.5035 256.381 78.2738 256.38 80.058C256.372 82.3235 255.859 84.5587 254.879 86.6013C253.899 88.6438 252.476 90.4423 250.714 91.866C249.441 92.8872 248.01 93.694 246.477 94.2547L216.949 105.131Z" fill="#3F3D56"/>
<path d="M190.911 175.862C190.821 175.862 190.73 175.858 190.64 175.849L179.943 175.07C179.511 175.03 179.093 174.891 178.723 174.664C178.352 174.437 178.039 174.128 177.807 173.761C177.575 173.393 177.43 172.978 177.384 172.546C177.338 172.114 177.392 171.677 177.542 171.269L191.857 139.108C191.959 138.821 192.001 138.516 191.98 138.213C191.958 137.909 191.874 137.613 191.733 137.343C191.592 137.071 191.395 136.831 191.155 136.639C190.915 136.448 190.637 136.31 190.339 136.234C183.608 134.474 166.337 129.789 151.387 124.307C144.982 121.959 140.948 118.565 139.397 114.219C137.352 108.491 140.377 103.266 140.507 103.047L140.608 102.875L154.676 104.154L169.927 105.451L203.348 123.373C206.149 124.887 208.276 127.401 209.306 130.413C210.337 133.426 210.194 136.716 208.908 139.628L193.499 174.181C193.277 174.681 192.913 175.106 192.454 175.404C191.995 175.703 191.459 175.862 190.911 175.862Z" fill="#2F2E41"/>
<path d="M177.527 185.98H185.256L188.933 165.935L177.525 165.935L177.527 185.98Z" fill="#FFB8B8"/>
<path d="M175.555 183.457L190.776 183.457H190.776C192.05 183.457 193.312 183.707 194.488 184.195C195.665 184.682 196.735 185.397 197.635 186.298C198.536 187.198 199.251 188.268 199.738 189.444C200.226 190.621 200.476 191.883 200.476 193.157V193.472L175.555 193.473L175.555 183.457Z" fill="#2F2E41"/>
<path d="M186.497 177.753C186.407 177.753 186.316 177.749 186.226 177.74L175.529 176.961C175.097 176.921 174.679 176.782 174.309 176.555C173.938 176.328 173.625 176.019 173.393 175.652C173.161 175.284 173.016 174.869 172.97 174.437C172.924 174.005 172.978 173.568 173.128 173.16L187.443 140.999C187.545 140.712 187.587 140.407 187.565 140.104C187.544 139.8 187.46 139.504 187.319 139.234C187.178 138.962 186.981 138.722 186.741 138.531C186.5 138.339 186.222 138.201 185.925 138.125C179.194 136.366 161.923 131.68 146.973 126.199C140.568 123.85 136.534 120.456 134.983 116.11C132.938 110.382 135.963 105.157 136.093 104.938L136.194 104.766L150.262 106.045L165.513 107.342L198.934 125.264C201.735 126.778 203.862 129.292 204.892 132.305C205.922 135.317 205.78 138.607 204.494 141.519L189.085 176.072C188.863 176.572 188.499 176.997 188.04 177.296C187.581 177.594 187.045 177.753 186.497 177.753Z" fill="#2F2E41"/>
<path d="M256.064 80.058C256.063 82.2774 255.563 84.4681 254.603 86.469C253.643 88.4699 252.247 90.2301 250.516 91.6201C247.862 90.92 245.392 89.6501 243.278 87.8988C241.164 86.1476 239.456 83.9569 238.274 81.4791C237.092 79.0013 236.464 76.2958 236.434 73.5507C236.403 70.8057 236.971 68.0869 238.097 65.5833C240.259 65.1131 242.5 65.1331 244.653 65.6419C246.807 66.1507 248.819 67.1354 250.542 68.5237C252.266 69.912 253.656 71.6686 254.612 73.6645C255.567 75.6605 256.064 77.8451 256.064 80.058Z" fill="#22BB9C"/>
<path d="M175.79 57.4174L170.308 71.741C170.152 72.1485 169.91 72.5176 169.598 72.8232C169.287 73.1288 168.913 73.3636 168.502 73.5118C168.092 73.6599 167.654 73.7178 167.22 73.6816C166.785 73.6453 166.363 73.5158 165.982 73.3018L152.657 65.802C150.577 64.9919 148.903 63.3899 148.002 61.3473C147.101 59.3047 147.046 56.9881 147.85 54.9054C148.655 52.8227 150.252 51.1439 152.292 50.237C154.332 49.33 156.648 49.269 158.733 50.0673L173.613 53.3674C174.039 53.462 174.439 53.6474 174.787 53.9108C175.135 54.1742 175.422 54.5094 175.629 54.8938C175.836 55.2781 175.957 55.7025 175.985 56.138C176.013 56.5735 175.946 57.0099 175.79 57.4174Z" fill="#22BB9C"/>
<path d="M161.897 49.305L145.505 43.6311C145.505 43.6311 135.216 51.5367 140.159 71.1485C142.739 81.269 141.988 91.9518 138.015 101.611C137.537 102.806 136.986 103.971 136.364 105.098C136.364 105.098 154.647 127.163 171.668 110.772L165.049 78.9353C165.049 78.9353 175.451 57.8158 161.897 49.305Z" fill="#22BB9C"/>
<path d="M232.353 78.9877C231.945 78.0853 231.345 77.2832 230.594 76.6379C229.843 75.9927 228.96 75.5199 228.006 75.253C227.053 74.986 226.052 74.9313 225.075 75.0928C224.099 75.2543 223.169 75.628 222.352 76.1876L162.165 62.6792L161.417 77.3884L220.814 86.0414C221.845 87.3513 223.321 88.2374 224.962 88.532C226.602 88.8265 228.294 88.5089 229.716 87.6395C231.139 86.77 232.193 85.409 232.678 83.8145C233.164 82.2199 233.048 80.5025 232.353 78.9877Z" fill="#FFB8B8"/>
<path d="M225.4 90.6744C227.838 90.6744 229.813 88.6987 229.813 86.2614C229.813 83.8242 227.838 81.8484 225.4 81.8484C222.963 81.8484 220.987 83.8242 220.987 86.2614C220.987 88.6987 222.963 90.6744 225.4 90.6744Z" fill="#22BB9C"/>
<path d="M172.719 64.0303L169.045 78.9209C168.941 79.3445 168.746 79.7407 168.475 80.0824C168.203 80.4241 167.861 80.7033 167.472 80.9009C167.083 81.0985 166.656 81.21 166.22 81.2277C165.784 81.2454 165.349 81.1689 164.946 81.0034L150.797 75.205C148.631 74.6591 146.77 73.2763 145.623 71.3599C144.475 69.4436 144.135 67.1503 144.676 64.9833C145.218 62.8163 146.597 60.9525 148.51 59.801C150.424 58.6494 152.717 58.3042 154.885 58.8409L170.058 60.2799C170.492 60.3212 170.913 60.4557 171.291 60.6742C171.668 60.8926 171.995 61.1899 172.247 61.5458C172.5 61.9017 172.672 62.3079 172.754 62.7366C172.835 63.1654 172.823 63.6066 172.719 64.0303V64.0303Z" fill="#22BB9C"/>
<path d="M157.121 40.525C165.672 40.525 172.605 33.5925 172.605 25.0409C172.605 16.4893 165.672 9.55688 157.121 9.55688C148.569 9.55688 141.637 16.4893 141.637 25.0409C141.637 33.5925 148.569 40.525 157.121 40.525Z" fill="#FFB8B8"/>
<path d="M159.044 41.0515C156.841 37.7529 155.102 33.179 157.528 30.0405C159.923 26.9424 164.647 27.3989 168.315 26.028C173.424 24.1186 176.387 18.1165 175.463 12.7412C174.539 7.36596 170.224 2.91002 165.083 1.08679C159.943 -0.73644 154.146 -0.143484 149.113 1.95607C142.916 4.54066 137.6 9.54035 135.371 15.8737C133.142 22.207 134.334 29.8113 138.958 34.6792C143.916 39.8981 151.696 41.289 158.894 41.2046" fill="#2F2E41"/>
<path d="M144.641 12.9137C141.864 15.1743 137.627 14.1702 134.646 12.1862C131.665 10.2022 129.246 7.37712 126.021 5.82159C120.335 3.07924 113.461 4.90227 107.927 7.93991C102.393 10.9775 97.4874 15.1741 91.6419 17.5579C85.7965 19.9416 78.3373 20.0595 73.9111 15.5584C72.8219 18.7142 72.7329 22.1293 73.6562 25.3376C74.5795 28.5459 76.4702 31.3912 79.0702 33.4853C81.6703 35.5794 84.8532 36.8203 88.1846 37.0387C91.516 37.257 94.8336 36.4423 97.6848 34.7055C104.09 30.8042 107.627 22.6241 114.811 20.4708C118.786 19.2792 123.055 20.2389 127.072 21.2784C131.09 22.3179 135.279 23.4411 139.334 22.5561C143.388 21.6712 147.181 18.0277 146.665 13.9099L144.641 12.9137Z" fill="#2F2E41"/>
</g>
<defs>
<filter id="filter0_d_929_19686" x="0" y="0" width="372.509" height="238" filterUnits="userSpaceOnUse" color-interpolation-filters="sRGB">
<feFlood flood-opacity="0" result="BackgroundImageFix"/>
<feColorMatrix in="SourceAlpha" type="matrix" values="0 0 0 0 0 0 0 0 0 0 0 0 0 0 0 0 0 0 127 0" result="hardAlpha"/>
<feOffset dy="4"/>
<feGaussianBlur stdDeviation="2"/>
<feComposite in2="hardAlpha" operator="out"/>
<feColorMatrix type="matrix" values="0 0 0 0 0 0 0 0 0 0 0 0 0 0 0 0 0 0 0.25 0"/>
<feBlend mode="normal" in2="BackgroundImageFix" result="effect1_dropShadow_929_19686"/>
<feBlend mode="normal" in="SourceGraphic" in2="effect1_dropShadow_929_19686" result="shape"/>
</filter>
</defs>
</svg>
