<svg width="76" height="76" viewBox="0 0 76 76" fill="none" xmlns="http://www.w3.org/2000/svg">
<rect width="76" height="76" rx="28" fill="#22BB9C" fill-opacity="0.08"/>
<path d="M39.6434 26.9319C38.5892 26.5045 37.41 26.5045 36.3558 26.9319L33.8008 27.9679L44.9914 32.3196L48.9278 30.7994C48.7665 30.6655 48.5854 30.5573 48.3911 30.4786L39.6434 26.9319Z" fill="#22BB9C"/>
<path d="M49.6667 32.3896L38.875 36.5593V49.3028C39.1363 49.2503 39.393 49.1721 39.6438 49.0706L48.3915 45.524C48.7683 45.3714 49.0909 45.1097 49.3181 44.7726C49.5453 44.4355 49.6667 44.0382 49.6667 43.6316V32.3908V32.3896Z" fill="#22BB9C"/>
<path d="M37.1247 49.3028V36.5593L26.333 32.3896V43.6328C26.3332 44.0391 26.4547 44.4362 26.6819 44.7731C26.909 45.11 27.2316 45.3714 27.6082 45.524L36.3558 49.0707C36.6067 49.1721 36.8633 49.2491 37.1247 49.304V49.3028Z" fill="#22BB9C"/>
<path d="M27.0723 30.7993L38.0004 35.0214L42.5703 33.2551L31.4368 28.9268L27.6089 30.4784C27.4106 30.5589 27.2309 30.6674 27.0723 30.7993Z" fill="#22BB9C"/>
</svg>
