<svg width="20" height="21" viewBox="0 0 20 21" fill="none" xmlns="http://www.w3.org/2000/svg">
<path fill-rule="evenodd" clip-rule="evenodd" d="M14.6026 6.66336V7.94114C16.0379 8.38915 17.0837 9.68847 17.0837 11.2404V15.3544C17.0837 17.2757 15.4909 18.8334 13.5272 18.8334H6.47432C4.50979 18.8334 2.91699 17.2757 2.91699 15.3544V11.2404C2.91699 9.68847 3.96362 8.38915 5.39806 7.94114V6.66336C5.40653 4.17901 7.46421 2.16669 9.98763 2.16669C12.5449 2.16669 14.6026 4.17901 14.6026 6.66336ZM10.0046 3.61589C11.7235 3.61589 13.1207 4.98228 13.1207 6.66336V7.76144H6.87993V6.6468C6.8884 4.974 8.28559 3.61589 10.0046 3.61589ZM10.7413 14.2125C10.7413 14.6182 10.411 14.9412 9.99609 14.9412C9.58964 14.9412 9.25939 14.6182 9.25939 14.2125V12.374C9.25939 11.9766 9.58964 11.6536 9.99609 11.6536C10.411 11.6536 10.7413 11.9766 10.7413 12.374V14.2125Z" fill="#9E9E9E"/>
</svg>
