<svg width="76" height="76" viewBox="0 0 76 76" fill="none" xmlns="http://www.w3.org/2000/svg">
<rect width="76" height="76" rx="38" fill="#22BB9C" fill-opacity="0.08"/>
<path fill-rule="evenodd" clip-rule="evenodd" d="M33.8765 30.1091C33.6162 30.4606 33.6461 30.962 33.9749 31.2802C34.3249 31.6302 34.8966 31.6302 35.2466 31.2802L37.1016 29.4135V34.2435H38.8982V29.4135L40.7532 31.2802L40.8539 31.3669C41.2053 31.6273 41.7067 31.5983 42.0249 31.2802C42.1999 31.1052 42.2932 30.8718 42.2932 30.6385C42.2932 30.4168 42.1999 30.1835 42.0249 30.0085L38.6299 26.6018L38.5241 26.5067C38.3732 26.3932 38.1866 26.3335 37.9999 26.3335C37.7549 26.3335 37.5332 26.4268 37.3582 26.6018L33.9632 30.0085L33.8765 30.1091ZM31.2694 34.2495C28.5239 34.3791 26.333 36.6886 26.333 39.5022V45.2948L26.3387 45.5428C26.4661 48.3368 28.7367 50.5771 31.5247 50.5771H44.4863L44.73 50.5713C47.4754 50.4416 49.6663 48.1318 49.6663 45.3067V39.5259L49.6607 39.2771C49.5326 36.4728 47.2513 34.2437 44.4747 34.2437H38.898V41.3658L38.8897 41.491C38.8294 41.9407 38.4488 42.2798 37.9997 42.2798C37.498 42.2798 37.1013 41.8762 37.1013 41.3658V34.2437H31.513L31.2694 34.2495Z" fill="#22BB9C"/>
</svg>
