<svg width="20" height="20" viewBox="0 0 20 20" fill="none" xmlns="http://www.w3.org/2000/svg">
<path fill-rule="evenodd" clip-rule="evenodd" d="M13.5852 2.2915H6.37518C3.86518 2.2915 2.29102 4.06984 2.29102 6.5865V13.3748C2.29102 15.8915 3.85852 17.6698 6.37518 17.6698H13.581C16.1018 17.6698 17.6685 15.8915 17.6685 13.3748V6.5865C17.6718 4.06984 16.1043 2.2915 13.5852 2.2915Z" stroke="#9E9E9E" stroke-width="1.5" stroke-linecap="round" stroke-linejoin="round"/>
<path fill-rule="evenodd" clip-rule="evenodd" d="M8.91846 7.32105C8.91846 8.17105 8.23013 8.85938 7.38013 8.85938C6.53096 8.85938 5.8418 8.17105 5.8418 7.32105C5.8418 6.47105 6.53096 5.78271 7.38013 5.78271C8.2293 5.78355 8.91763 6.47188 8.91846 7.32105Z" stroke="#9E9E9E" stroke-width="1.5" stroke-linecap="round" stroke-linejoin="round"/>
<path d="M17.6725 12.4592C16.9033 11.6675 15.4242 10.0684 13.8158 10.0684C12.2067 10.0684 11.2792 13.5959 9.73167 13.5959C8.18417 13.5959 6.77833 12.0009 5.53833 13.0234C4.29833 14.045 3.125 16.1342 3.125 16.1342" stroke="#9E9E9E" stroke-width="1.5" stroke-linecap="round" stroke-linejoin="round"/>
</svg>
