<svg width="20" height="20" viewBox="0 0 20 20" fill="none" xmlns="http://www.w3.org/2000/svg">
<g clip-path="url(#clip0_3239_1433)">
<path d="M9.99967 6.66683C8.15801 6.66683 6.66634 8.1585 6.66634 10.0002C6.66634 11.8418 8.15801 13.3335 9.99967 13.3335C11.8413 13.3335 13.333 11.8418 13.333 10.0002C13.333 8.1585 11.8413 6.66683 9.99967 6.66683ZM17.4497 9.16683C17.2609 7.47693 16.5031 5.90144 15.3008 4.69907C14.0984 3.4967 12.5229 2.73892 10.833 2.55016V1.66683C10.833 1.2085 10.458 0.833496 9.99967 0.833496C9.54134 0.833496 9.16634 1.2085 9.16634 1.66683V2.55016C7.47644 2.73892 5.90096 3.4967 4.69859 4.69907C3.49622 5.90144 2.73843 7.47693 2.54967 9.16683H1.66634C1.20801 9.16683 0.833008 9.54183 0.833008 10.0002C0.833008 10.4585 1.20801 10.8335 1.66634 10.8335H2.54967C2.73843 12.5234 3.49622 14.0989 4.69859 15.3013C5.90096 16.5036 7.47644 17.2614 9.16634 17.4502V18.3335C9.16634 18.7918 9.54134 19.1668 9.99967 19.1668C10.458 19.1668 10.833 18.7918 10.833 18.3335V17.4502C12.5229 17.2614 14.0984 16.5036 15.3008 15.3013C16.5031 14.0989 17.2609 12.5234 17.4497 10.8335H18.333C18.7913 10.8335 19.1663 10.4585 19.1663 10.0002C19.1663 9.54183 18.7913 9.16683 18.333 9.16683H17.4497V9.16683ZM9.99967 15.8335C6.77467 15.8335 4.16634 13.2252 4.16634 10.0002C4.16634 6.77516 6.77467 4.16683 9.99967 4.16683C13.2247 4.16683 15.833 6.77516 15.833 10.0002C15.833 13.2252 13.2247 15.8335 9.99967 15.8335Z" fill="#22BB9C"/>
</g>
<defs>
<clipPath id="clip0_3239_1433">
<rect width="20" height="20" fill="white"/>
</clipPath>
</defs>
</svg>
