<svg width="52" height="52" viewBox="0 0 52 52" fill="none" xmlns="http://www.w3.org/2000/svg">
<rect width="52" height="52" rx="26" fill="url(#paint0_linear_933_25015)"/>
<path d="M26.0003 21.3337C23.422 21.3337 21.3337 23.422 21.3337 26.0003C21.3337 28.5787 23.422 30.667 26.0003 30.667C28.5787 30.667 30.667 28.5787 30.667 26.0003C30.667 23.422 28.5787 21.3337 26.0003 21.3337ZM36.4303 24.8337C36.1661 22.4678 35.1052 20.2621 33.4219 18.5788C31.7385 16.8955 29.5329 15.8346 27.167 15.5703V14.3337C27.167 13.692 26.642 13.167 26.0003 13.167C25.3587 13.167 24.8337 13.692 24.8337 14.3337V15.5703C22.4678 15.8346 20.2621 16.8955 18.5788 18.5788C16.8955 20.2621 15.8346 22.4678 15.5703 24.8337H14.3337C13.692 24.8337 13.167 25.3587 13.167 26.0003C13.167 26.642 13.692 27.167 14.3337 27.167H15.5703C15.8346 29.5329 16.8955 31.7385 18.5788 33.4219C20.2621 35.1052 22.4678 36.1661 24.8337 36.4303V37.667C24.8337 38.3087 25.3587 38.8337 26.0003 38.8337C26.642 38.8337 27.167 38.3087 27.167 37.667V36.4303C29.5329 36.1661 31.7385 35.1052 33.4219 33.4219C35.1052 31.7385 36.1661 29.5329 36.4303 27.167H37.667C38.3087 27.167 38.8337 26.642 38.8337 26.0003C38.8337 25.3587 38.3087 24.8337 37.667 24.8337H36.4303ZM26.0003 34.167C21.4853 34.167 17.8337 30.5153 17.8337 26.0003C17.8337 21.4853 21.4853 17.8337 26.0003 17.8337C30.5153 17.8337 34.167 21.4853 34.167 26.0003C34.167 30.5153 30.5153 34.167 26.0003 34.167Z" fill="white"/>
<defs>
<linearGradient id="paint0_linear_933_25015" x1="52" y1="52" x2="-9.87533" y2="34.0598" gradientUnits="userSpaceOnUse">
<stop stop-color="#22BB9C"/>
<stop offset="1" stop-color="#35DEBC"/>
</linearGradient>
</defs>
</svg>
