<svg width="28" height="28" viewBox="0 0 28 28" fill="none" xmlns="http://www.w3.org/2000/svg">
<path fill-rule="evenodd" clip-rule="evenodd" d="M4.08301 12.0374C4.08301 6.67088 8.56754 2.33334 13.992 2.33334C19.4318 2.33334 23.9163 6.67088 23.9163 12.0374C23.9163 14.7416 22.9328 17.2522 21.3141 19.3802C19.5283 21.7274 17.3272 23.7726 14.8496 25.3778C14.2826 25.7488 13.7709 25.7768 13.1485 25.3778C10.6569 23.7726 8.45578 21.7274 6.68526 19.3802C5.06532 17.2522 4.08301 14.7416 4.08301 12.0374ZM10.7263 12.3396C10.7263 14.1373 12.1933 15.5513 13.992 15.5513C15.792 15.5513 17.2731 14.1373 17.2731 12.3396C17.2731 10.5558 15.792 9.07298 13.992 9.07298C12.1933 9.07298 10.7263 10.5558 10.7263 12.3396Z" fill="url(#paint0_linear_929_20671)"/>
<defs>
<linearGradient id="paint0_linear_929_20671" x1="23.9163" y1="25.6667" x2="-0.202564" y2="19.7226" gradientUnits="userSpaceOnUse">
<stop stop-color="#22BB9C"/>
<stop offset="1" stop-color="#35DEBC"/>
</linearGradient>
</defs>
</svg>
