<svg width="186" height="180" viewBox="0 0 186 180" fill="none" xmlns="http://www.w3.org/2000/svg">
<circle cx="62.5088" cy="176.5" r="3.5" fill="#7AD6C4"/>
<circle cx="122.009" cy="171" r="1" fill="#7AD6C4"/>
<circle cx="10.0088" cy="133" r="5" fill="#7AD6C4"/>
<circle cx="178.492" cy="27.5" r="7.5" fill="#7AD6C4"/>
<circle cx="95.4922" cy="90.5" r="70.5" fill="url(#paint0_linear_932_24953)"/>
<circle cx="165.509" cy="160.5" r="2.5" fill="#7AD6C4"/>
<circle cx="170.509" cy="110.5" r="2.5" fill="#7AD6C4"/>
<circle cx="1.00879" cy="75" r="1" fill="#7AD6C4"/>
<path fill-rule="evenodd" clip-rule="evenodd" d="M89.0571 110.236L110.657 82.303C111.831 80.7967 112.248 79.0552 111.857 77.282C111.518 75.67 110.527 74.1373 109.04 72.9745L105.414 70.094C102.257 67.5835 98.344 67.8478 96.1006 70.7283L93.6745 73.8756C93.3615 74.2694 93.4397 74.8508 93.831 75.1679C93.831 75.1679 99.9614 80.0832 100.092 80.1889C100.509 80.5853 100.822 81.1138 100.901 81.7481C101.031 82.9901 100.17 84.1529 98.8919 84.3114C98.2919 84.3907 97.718 84.2057 97.3006 83.8622L90.8571 78.7355C90.5441 78.5003 90.0745 78.5505 89.8137 78.8676L74.5007 98.6874C73.5094 99.9294 73.1703 101.541 73.5094 103.101L75.4659 111.583C75.5703 112.033 75.9616 112.35 76.4311 112.35L85.0398 112.244C86.605 112.218 88.0658 111.504 89.0571 110.236ZM101.11 107.594H115.147C116.517 107.594 117.631 108.722 117.631 110.11C117.631 111.5 116.517 112.626 115.147 112.626H101.11C99.7404 112.626 98.6265 111.5 98.6265 110.11C98.6265 108.722 99.7404 107.594 101.11 107.594Z" fill="white"/>
<circle cx="106.509" cy="4.5" r="2.5" fill="#7AD6C4"/>
<circle cx="20.0088" cy="10" r="10" fill="#7AD6C4"/>
<defs>
<linearGradient id="paint0_linear_932_24953" x1="165.992" y1="161" x2="-1.78515" y2="112.355" gradientUnits="userSpaceOnUse">
<stop stop-color="#22BB9C"/>
<stop offset="1" stop-color="#35DEBC"/>
</linearGradient>
</defs>
</svg>
