<svg width="16" height="17" viewBox="0 0 16 17" fill="none" xmlns="http://www.w3.org/2000/svg">
<path opacity="0.4" d="M8.65054 2.40859L10.1349 5.39144C10.2442 5.60755 10.4529 5.75762 10.6936 5.79097L14.0277 6.27655C14.2224 6.3039 14.3991 6.40662 14.5185 6.56337C14.6365 6.71811 14.6872 6.91421 14.6585 7.10698C14.6352 7.26706 14.5598 7.41513 14.4445 7.52852L12.0286 9.87038C11.8519 10.0338 11.7719 10.2759 11.8146 10.5127L12.4093 13.805C12.4727 14.2026 12.2093 14.5774 11.8146 14.6528C11.6519 14.6788 11.4852 14.6515 11.3385 14.5768L8.36448 13.0273C8.14377 12.9159 7.88304 12.9159 7.66233 13.0273L4.68836 14.5768C4.32295 14.7709 3.87018 14.6388 3.66681 14.2786C3.59146 14.1352 3.56478 13.9718 3.58946 13.8124L4.18425 10.5194C4.22693 10.2833 4.14624 10.0398 3.9702 9.87638L1.55435 7.53586C1.26696 7.25839 1.25829 6.80149 1.53501 6.51401C1.54102 6.50801 1.54768 6.50134 1.55435 6.49467C1.66904 6.37794 1.81974 6.3039 1.98244 6.28456L5.31649 5.79831C5.55654 5.76429 5.76526 5.61555 5.87528 5.39811L7.30625 2.40859C7.43361 2.15246 7.69767 1.99304 7.9844 1.99971H8.07375C8.32247 2.02973 8.53919 2.18381 8.65054 2.40859Z" fill="url(#paint0_linear_3239_7975)"/>
<path d="M7.99435 12.9443C7.86521 12.9483 7.73941 12.983 7.62625 13.045L4.66682 14.5909C4.30471 14.7637 3.87138 14.6296 3.66836 14.2834C3.59315 14.1419 3.56586 13.9798 3.59115 13.821L4.18224 10.5349C4.22217 10.2961 4.1423 10.0532 3.96857 9.88508L1.55163 7.54516C1.26474 7.26427 1.25942 6.80322 1.54032 6.51565C1.54431 6.51165 1.54764 6.50831 1.55163 6.50498C1.66612 6.39155 1.81389 6.31682 1.97298 6.29347L5.30983 5.8024C5.55146 5.77171 5.76113 5.62092 5.86763 5.40207L7.31806 2.37492C7.45585 2.13072 7.72011 1.98527 7.99967 2.00062C7.99435 2.19878 7.99435 12.8095 7.99435 12.9443Z" fill="url(#paint1_linear_3239_7975)"/>
<defs>
<linearGradient id="paint0_linear_3239_7975" x1="14.6663" y1="14.6662" x2="-1.06732" y2="9.86425" gradientUnits="userSpaceOnUse">
<stop stop-color="#FB9400"/>
<stop offset="1" stop-color="#FFAB38"/>
</linearGradient>
<linearGradient id="paint1_linear_3239_7975" x1="7.99967" y1="14.6662" x2="-0.40423" y2="13.3837" gradientUnits="userSpaceOnUse">
<stop stop-color="#FB9400"/>
<stop offset="1" stop-color="#FFAB38"/>
</linearGradient>
</defs>
</svg>
