<svg width="60" height="61" viewBox="0 0 60 61" fill="none" xmlns="http://www.w3.org/2000/svg">
<rect y="0.333008" width="60" height="60" rx="30" fill="#22BB9C" fill-opacity="0.08"/>
<path fill-rule="evenodd" clip-rule="evenodd" d="M29.9997 41.9998C23.5597 41.9998 18.333 36.7848 18.333 30.3332C18.333 23.8932 23.5597 18.6665 29.9997 18.6665C36.4513 18.6665 41.6663 23.8932 41.6663 30.3332C41.6663 36.7848 36.4513 41.9998 29.9997 41.9998ZM33.7213 34.6615C33.8613 34.7432 34.013 34.7898 34.1763 34.7898C34.468 34.7898 34.7597 34.6382 34.923 34.3582C35.168 33.9498 35.0397 33.4132 34.6197 33.1565L30.4663 30.6832V25.2932C30.4663 24.8032 30.0697 24.4182 29.5913 24.4182C29.113 24.4182 28.7163 24.8032 28.7163 25.2932V31.1848C28.7163 31.4882 28.8797 31.7682 29.148 31.9315L33.7213 34.6615Z" fill="#22BB9C"/>
</svg>
