<svg width="61" height="61" viewBox="0 0 61 61" fill="none" xmlns="http://www.w3.org/2000/svg">
<rect x="0.666016" y="0.333008" width="60" height="60" rx="30" fill="#22BB9C" fill-opacity="0.08"/>
<path fill-rule="evenodd" clip-rule="evenodd" d="M25.614 18.6655H35.729C39.684 18.6655 42.3324 21.4422 42.3324 25.5722V35.105C42.3324 39.2234 39.684 41.9989 35.729 41.9989H25.614C21.659 41.9989 18.999 39.2234 18.999 35.105V25.5722C18.999 21.4422 21.659 18.6655 25.614 18.6655ZM30.654 26.9034C30.1057 26.9034 29.6507 26.4472 29.6507 25.8884C29.6507 25.3167 30.1057 24.8617 30.6774 24.8617C31.2374 24.8617 31.6924 25.3167 31.6924 25.8884C31.6924 26.4472 31.2374 26.9034 30.654 26.9034ZM31.6807 34.7434C31.6807 35.3034 31.2257 35.7584 30.654 35.7584C30.094 35.7584 29.639 35.3034 29.639 34.7434V29.5867C29.639 29.0255 30.094 28.56 30.654 28.56C31.2257 28.56 31.6807 29.0255 31.6807 29.5867V34.7434Z" fill="#22BB9C"/>
</svg>
